<mxfile host="app.diagrams.net" agent="Mozilla/5.0 (Windows NT 10.0; Win64; x64; rv:137.0) Gecko/20100101 Firefox/137.0" version="26.2.13">
  <diagram name="Page-1" id="c9db0220-8083-56f3-ca83-edcdcd058819">
    <mxGraphModel dx="1160" dy="775" grid="1" gridSize="10" guides="1" tooltips="1" connect="1" arrows="1" fold="1" page="1" pageScale="1.5" pageWidth="826" pageHeight="1169" background="#ffffff" math="0" shadow="0">
      <root>
        <mxCell id="0" style=";html=1;" />
        <mxCell id="1" style=";html=1;" parent="0" />
        <mxCell id="8Nt1t6jGfpRGjF9K0AyX-32" value="" style="group" vertex="1" connectable="0" parent="1">
          <mxGeometry x="50" y="160" width="1170" height="760" as="geometry" />
        </mxCell>
        <mxCell id="3d76a8aef4d5c911-1" value="" style="html=1;shadow=0;dashed=0;shape=mxgraph.bootstrap.rect;fillColor=#222222;strokeColor=none;whiteSpace=wrap;rounded=0;fontSize=12;fontColor=#000000;align=center;" parent="8Nt1t6jGfpRGjF9K0AyX-32" vertex="1">
          <mxGeometry width="1170.0000000000002" height="56.2962962962963" as="geometry" />
        </mxCell>
        <mxCell id="3d76a8aef4d5c911-2" value="RandVar" style="html=1;shadow=0;dashed=0;fillColor=none;strokeColor=none;shape=mxgraph.bootstrap.rect;fontColor=#999999;fontSize=14;whiteSpace=wrap;" parent="3d76a8aef4d5c911-1" vertex="1">
          <mxGeometry width="117.00000000000003" height="56.2962962962963" as="geometry" />
        </mxCell>
        <mxCell id="8Nt1t6jGfpRGjF9K0AyX-1" value="" style="html=1;shadow=0;dashed=0;shape=mxgraph.bootstrap.rect;fillColor=#222222;strokeColor=none;whiteSpace=wrap;rounded=0;fontSize=12;fontColor=#000000;align=center;" vertex="1" parent="8Nt1t6jGfpRGjF9K0AyX-32">
          <mxGeometry y="56.2962962962963" width="384.4285714285715" height="703.7037037037037" as="geometry" />
        </mxCell>
        <mxCell id="8Nt1t6jGfpRGjF9K0AyX-3" value="" style="html=1;shadow=0;dashed=0;shape=mxgraph.bootstrap.rect;fillColor=#222222;strokeColor=none;whiteSpace=wrap;rounded=0;fontSize=12;fontColor=#000000;align=center;" vertex="1" parent="8Nt1t6jGfpRGjF9K0AyX-32">
          <mxGeometry x="384.4285714285715" y="56.2962962962963" width="785.5714285714286" height="703.7037037037037" as="geometry" />
        </mxCell>
        <mxCell id="8Nt1t6jGfpRGjF9K0AyX-4" value="&lt;font style=&quot;font-size: 16px; color: light-dark(rgb(0, 0, 0), rgb(8, 8, 8));&quot;&gt;Random Variable&lt;/font&gt;" style="html=1;shadow=0;dashed=0;fillColor=none;strokeColor=none;shape=mxgraph.bootstrap.rect;fontColor=#999999;fontSize=14;whiteSpace=wrap;" vertex="1" parent="8Nt1t6jGfpRGjF9K0AyX-32">
          <mxGeometry x="33.42857142857143" y="84.44444444444443" width="317.5714285714286" height="42.222222222222214" as="geometry" />
        </mxCell>
        <mxCell id="8Nt1t6jGfpRGjF9K0AyX-8" value="&lt;div align=&quot;center&quot;&gt;&lt;font style=&quot;font-size: 16px; color: light-dark(rgb(0, 0, 0), rgb(4, 4, 4));&quot;&gt;&amp;nbsp;Normal&lt;/font&gt;&lt;/div&gt;" style="html=1;shadow=0;dashed=0;shape=mxgraph.bootstrap.rect;strokeColor=none;fillColor=none;align=center;fontSize=10;whiteSpace=wrap;rounded=0;" vertex="1" parent="8Nt1t6jGfpRGjF9K0AyX-32">
          <mxGeometry x="93.60000000000001" y="337.7777777777777" width="167.14285714285714" height="28.14814814814815" as="geometry" />
        </mxCell>
        <mxCell id="8Nt1t6jGfpRGjF9K0AyX-9" value="&lt;div&gt;&lt;/div&gt;" style="shape=triangle;direction=south;rounded=0;shadow=1;fontSize=12;align=center;html=1;" vertex="1" parent="8Nt1t6jGfpRGjF9K0AyX-32">
          <mxGeometry x="234.00000000000006" y="344.8148148148147" width="15.042857142857143" height="14.074074074074074" as="geometry" />
        </mxCell>
        <mxCell id="8Nt1t6jGfpRGjF9K0AyX-12" value="&lt;span style=&quot;color: light-dark(rgb(0, 0, 0), rgb(11, 11, 11));&quot;&gt;&lt;font style=&quot;font-size: 14px;&quot;&gt;Discrete&lt;/font&gt;&lt;/span&gt;" style="html=1;shadow=0;dashed=0;shape=mxgraph.bootstrap.rrect;align=center;rSize=3;fillColor=none;fontStyle=1;fontSize=10;whiteSpace=wrap;rounded=0;" vertex="1" parent="8Nt1t6jGfpRGjF9K0AyX-32">
          <mxGeometry x="133.71428571428572" y="136.5185185185185" width="147.0857142857143" height="28.14814814814815" as="geometry" />
        </mxCell>
        <mxCell id="8Nt1t6jGfpRGjF9K0AyX-13" value="" style="html=1;shadow=0;dashed=0;shape=mxgraph.bootstrap.radioButton;strokeColor=#999999;fillColor=#ffffff;rounded=0;fontSize=12;fontColor=#000000;align=center;" vertex="1" parent="8Nt1t6jGfpRGjF9K0AyX-32">
          <mxGeometry x="93.60000000000001" y="140.7407407407407" width="23.400000000000002" height="19.703703703703702" as="geometry" />
        </mxCell>
        <mxCell id="8Nt1t6jGfpRGjF9K0AyX-14" value="&lt;span style=&quot;color: light-dark(rgb(0, 0, 0), rgb(6, 6, 6));&quot;&gt;&lt;font style=&quot;font-size: 14px;&quot;&gt;Continuous&lt;/font&gt;&lt;/span&gt;" style="html=1;shadow=0;dashed=0;shape=mxgraph.bootstrap.rrect;align=center;rSize=3;fillColor=none;fontStyle=1;fontSize=10;whiteSpace=wrap;rounded=0;" vertex="1" parent="8Nt1t6jGfpRGjF9K0AyX-32">
          <mxGeometry x="133.71428571428572" y="182.962962962963" width="147.0857142857143" height="28.14814814814815" as="geometry" />
        </mxCell>
        <mxCell id="8Nt1t6jGfpRGjF9K0AyX-15" value="" style="shape=ellipse;dashed=0;strokeColor=#999999;fillColor=#ffffff;html=1;rounded=0;shadow=1;fontSize=12;fontColor=#000000;align=center;" vertex="1" parent="8Nt1t6jGfpRGjF9K0AyX-32">
          <mxGeometry x="93.60000000000001" y="182.962962962963" width="23.400000000000002" height="19.703703703703702" as="geometry" />
        </mxCell>
        <mxCell id="8Nt1t6jGfpRGjF9K0AyX-17" value="&lt;font style=&quot;font-size: 16px; color: light-dark(rgb(0, 0, 0), rgb(8, 8, 8));&quot;&gt;Random Values Distro (x)&lt;/font&gt;" style="html=1;shadow=0;dashed=0;fillColor=none;strokeColor=none;shape=mxgraph.bootstrap.rect;fontColor=#999999;fontSize=14;whiteSpace=wrap;" vertex="1" parent="8Nt1t6jGfpRGjF9K0AyX-32">
          <mxGeometry x="33.42857142857143" y="281.4814814814814" width="317.5714285714286" height="42.222222222222214" as="geometry" />
        </mxCell>
        <mxCell id="8Nt1t6jGfpRGjF9K0AyX-18" value="&lt;font style=&quot;font-size: 16px;&quot;&gt;&lt;span style=&quot;color: light-dark(rgb(0, 0, 0), rgb(10, 10, 10));&quot;&gt;Distribution Function (DF)&lt;/span&gt;&lt;/font&gt;" style="html=1;shadow=0;dashed=0;fillColor=none;strokeColor=none;shape=mxgraph.bootstrap.rect;fontColor=#999999;fontSize=14;whiteSpace=wrap;" vertex="1" parent="8Nt1t6jGfpRGjF9K0AyX-32">
          <mxGeometry x="33.42857142857143" y="394.0740740740741" width="317.5714285714286" height="42.222222222222214" as="geometry" />
        </mxCell>
        <mxCell id="8Nt1t6jGfpRGjF9K0AyX-19" value="&lt;span style=&quot;color: light-dark(rgb(0, 0, 0), rgb(8, 8, 8));&quot;&gt;&lt;font style=&quot;font-size: 16px;&quot;&gt;PDF&lt;/font&gt;&lt;/span&gt;" style="html=1;shadow=0;dashed=0;shape=mxgraph.bootstrap.rect;strokeColor=none;fillColor=none;align=center;fontSize=10;whiteSpace=wrap;rounded=0;" vertex="1" parent="8Nt1t6jGfpRGjF9K0AyX-32">
          <mxGeometry x="108.64285714285717" y="450.3703703703704" width="167.14285714285714" height="28.14814814814815" as="geometry" />
        </mxCell>
        <mxCell id="8Nt1t6jGfpRGjF9K0AyX-20" value="&lt;div&gt;&lt;/div&gt;" style="shape=triangle;direction=south;rounded=0;shadow=1;fontSize=12;align=center;html=1;" vertex="1" parent="8Nt1t6jGfpRGjF9K0AyX-32">
          <mxGeometry x="249.0428571428572" y="457.4074074074074" width="15.042857142857143" height="14.074074074074074" as="geometry" />
        </mxCell>
        <mxCell id="8Nt1t6jGfpRGjF9K0AyX-21" value="&lt;span style=&quot;color: light-dark(rgb(0, 0, 0), rgb(6, 6, 6));&quot;&gt;&lt;font style=&quot;font-size: 17px;&quot;&gt;Formulas&lt;/font&gt;&lt;/span&gt;" style="html=1;shadow=0;dashed=0;fillColor=none;strokeColor=none;shape=mxgraph.bootstrap.rect;fontColor=#999999;fontSize=14;whiteSpace=wrap;" vertex="1" parent="8Nt1t6jGfpRGjF9K0AyX-32">
          <mxGeometry x="33.42857142857143" y="520.7407407407408" width="317.5714285714286" height="42.222222222222214" as="geometry" />
        </mxCell>
        <mxCell id="8Nt1t6jGfpRGjF9K0AyX-22" value="" style="shape=image;verticalLabelPosition=bottom;labelBackgroundColor=light-dark(#FFFFFF,#000000);verticalAlign=top;aspect=fixed;imageAspect=0;image=data:image/png,iVBORw0KGgoAAAANSUhEUgAAAXgAAABsCAYAAABgramfAAARWklEQVR42u3d32tT5x8H8He+7Fbdae7GEOnRizJHZZ60Mp3QQk1Wx9jYj6RsyGCFmlwMXJnt2t4UtZoyGYgk7ajghZIEFWWY2KRgwaSy1jgStuFATxhDvMoxVv+A873Q55jTJG1+tF2bvF9Q0DS/ek7yPs95nud8Houu6zqIiKju/I+bgIiIAU9ERAx4IiJiwBMREQOeiIgY8EREDHhuAiIiBjwRETHgiYiIAU9ERAx4IiJiwBMRMeC5CYiIGPBERMSAJyIiBjwRETHgiYiIAU9ExIDnJiAiYsATEREDnoiIGPBERMSAJyIiBjwREQOem4CIiAFPREQMeCIiYsATEREDnoiIGPBERA3vDW4CImp06XQaL168wFtvvYXm5ma24ImINrtgMIimpib09vbi2LFjkGUZHo+nbv4+i67rOnczETVqwC8uLqKvrw8AMDw8jLGxMdRLLLKLhohqpmkaLly4gN27d6O7u3vDvK/JyUls27YNLper6O+L3S7Lct3sF3bREK2STCaDTCbTcH93Op1Ge3s7tm/fvqHCHQD6+vrw77//wmazQdO0Ff8Ov9+Pa9euMeCJ6HXrdXx8HIqi4OrVqw13UOvo6MC1a9dKtpL/a8ePH0d/fz8cDkfJkA8Gg+jt7cXs7CxaW1sZ8ET0Mhja29sxMDCAXC7XcH+/x+OBy+Xa8KHocrlgtVpx4cKFovvw7NmzmJ6eRmtrKzKZzIqtfQY8UR1LJBKw2Wy4ePEifvjhh7rqt62k9R6NRo0ByqUikQgcDgcmJyeN29LpNFwuF4aHh2t+/cnJSTgcDtNtw8PDJc8kvvnmG5w5c6ZgP/b09GB0dBQPHjxAIpGA0+nE48eP62IfcZCVqEqjo6NGn/P169ehqmpD/f0zMzOQJKlo6z0YDOLOnTvo7OzE0aNH0dXVhRcvXmBgYACdnZ1YXFys+fWnpqZgtVpNt/n9fhw6dKjo/dva2pDL5ZBIJHDgwAEAwK1bt2C323Hu3DnjflartW66aRjwRFUQAVEv0uk0BgYGVryf1+s1wi+dTqOtra3o/bq6uuByuaBpGgYGBjAzM4PZ2VlcvnwZAEwBPzw8jPv37y/7unv37sWpU6eM/2uahmQyiaGhIdMZRS6XQ0dHR9HnEBcw3b1719h/+c9ZjxjwRIS3334bIyMjZd0vP1BLES1rq9UKRVHw448/YnZ21nS78OWXX+LDDz9c9nW3bNli+v/8/DwAYP/+/aYzCgDYt28fdygDnojyA3mtzkqsVityuVzJbo9qukPm5uYAAO3t7cZt169fL9ll1Kg4yEpEa2Z8fBzNzc1QVXVVrxGIxWJQFMU4E0gkEohGoyX73xnwREQV6OzsxKNHjwpuj0QiiEQiCAaD+Oeff3DixAkAwMLCgnHNQC1E/7sI90wmg/PnzwMA3nvvPWiaZpq5s9T27dsbZh+xi4aIqrJ7926oqgpN00x96jdv3kQsFsOhQ4fg8/kAAHa7HR6PB7IsY2pqqqbXFf3v0WjUmCZ5+fJlqKqKM2fO4MqVK/j5558LHpdIJACg5MAwA56I6JXu7m5IkoSZmRnT3PO+vj709fWZ+sIvX76MBw8eoKWlpWBqY6Xm5uagKApCoRCePHlijB1MT08v+xpiSmQ9lQNmwBPRmjl9+jRGRkZMAV9skHM1B3FjsRisViuam5tNYb3ca2QyGfj9fvz6668NtX/YB09EVevr68OhQ4fWtYZ6Mpms6P6apsHpdMLn89Xd9QsMeCJaUz6fDzt27IDNZjP6uddSKpWC1+st676iXMLo6OiGLYa2lrjgB1GVMpkMnjx5grt37xpXgcqyjHPnzmHr1q2r0t+8mYgCXRvpb85kMg3V586AJ1olSwtdLbX08voNGwIWC3dmCZs9HhnwVRIlRnt7e0tW06tHk5OTmJqaQn9/f0Oe8hJtJg3fBy8uvNi5cycsFgssFsuyA0aapsHhcGBkZAT9/f0NFe7Ay0G1/v5+jIyMLLuAAtFaSqfTSCQSDbmCFgO+gnB3OBy4cuUKYrEYstksZFkuWctC0zTs2rULmqZhfn6+YVuwLpcL8/Pzpu1BtF5nzk1NTejt7cWxY8cgy/K6zuDZbBq6i8blciEUCiGVSpVVoMhms0FVVTx8+LChBs+WO0Du2rULsizj3r17/DbRugT84uKiceY8PDyMsbExsKeZLXiTTCaDUCgERVHKCvdgMIhkMonBwUGG+ytWqxWDg4NIJpMIBoPcIFTwnXG5XEbX586dOxGJRGpulC3tFm3E1bQY8CsQazOWW31O1Mr+9ttv+anJI7ZHObXEqXGIpfCampqQzWahqiokScLhw4dXrd88nU7D7/fj2rVr3OAM+MIPBgC8++67Zd1fVVU4nU623ou04p1OJ1RVRTqd5gYhU8va5/MZZQX6+/sBvF6Yo9azg97eXszOzrL+OwP+NZvNhj179iCXywEAenp6jFPIUi2LaDQK4GUp0lI0TYPH40FTUxMsFktBl8Xw8DAsFgtsNltV73t8fBwWi6Wg1Gomk4HFYkFTU1NN20WUWHU4HKYZRfk/pcq8iu0ithNtHGKWmM1mM/ajw+FY84PxgQMHipYSBoB33nmnZGi7XK6in7/8gXwxRXl6ehqtra3IZDIc6C9Fb0DZbFYHoMuyXNb97Xa7DkCPx+Ml7zM0NKQHAgE9m83qkiTpkiSZfgdAB6APDQ1V9Z6dTmfR9xAOh3UAutPprHp7BAIBXZIk4z2W+gmHw0UfH4/HdQC63W4v+zXFY6r5WW4/0GupVEqXJElXFMXYZhMTEzV/XqqlKErR71wqldJlWV52ny/93ITDYT0ej+vxeFxXFEVPpVLc4UU0ZDVJUU9aUZRVe878KxZdLhf8fj8SiQSeP3+OsbExBAKBmqZVxmIxAEBLS4vp9j///HPFs4uVTnV7enoAAE6nE0eOHEF3dzdcLheePXuG6enpNWvhcebD2nZDdnR0QJZlTE9PG12LovX87NmzdX0/Ho8Hqqpidna24Ayjo6MDuVzO9PlramrCpUuX0N3dbbq/KPl77tw5Uzchu2nYgi9oUU9MTKxaC35pi1i01iVJ0gOBQE3vV1VVHYCuKErN721py0m0kJa+R6/XW/T21WrBr7Vqzw4220+ln1nRgvd6vev+fSvWyhbvx+12F7z/jfR52qwaMuArDcVK7y8CudyArOSAUSrIaun2Kfa8IrSXfvEY8Bs/4MWBW+wPVVX1cDisu91u4/ZsNrsu+0F8dkt9D+x2uy5JUsH7kWWZAc8umuqIwcC1qg2dX71uNa52/eOPPwAUzvgRA2V2u72q5w2FQgCA77//vuB3d+/eBQA8ffp0s56ZNuxZufh8R6NRWCwWSJKEtrY27N27F/F4fN1qokciEfT09KzYPdnW1maanZZIJKCqKhfQ5iyayol61dWE4vPnz8vub5QkyZjlUivR/750LUnxRd67d29VfbRiOxSb+vn777+X3bdf7nZZuh+KzdQp52c9ao5vZrdv3wYAxONx6LqOp0+fYnp6GqdOnVq3cM9kMvj6668xNDRkCvfJyUnTbKxPP/0UCwsLxucxEong448/hiRJxmLdxIAv219//VVxKHZ2dpoGNFcK93v37mFwcBAA8Pfff9f8npPJJCRJMp0ZaJqGM2fOAAD2799f8XO+ePGi5O80TTMOKuUcCMV2EdupkkHWan4abVWezeinn35CLpfD2NiY6eB89OhR0/36+vrgdrvR0dEBi8WC7777Di6Xi+VAOMiq19TvXEnf+NI+zWL9iPF4XHe73bokSXoqlSqrD1sMMC3X11iqf1sMQpUavBJ/53KDaaVeWwyKlTuVbrn3QetP9LUXm9YaCASqnqpLHGTd8MR8b1VVK3qcmKdbbHAqfw55/pdKzIfPZrNFv1jlDE6Kg4AkSbqqqno2m9WdTqceCASMYBWDaPlhLmbBLBfwIsjFwU5VVeM2RVHKGoir9JoCWnvic6UoivE5T6VSutPp5JxxBnz9ErNb8i9CqnQ2QLHAFM+59KxAPEaSJH1oaKggMMXvl2spO51OXZZl4wCTf9FKOBw2DiJut9v0/KIVt9JUUK/Xa7rIxG63V3R2U8l0ykZoOGyUaZLhcFhXFMW4n6IoZU8LJgb8plROoC5HURSjJb0aRGu51BWi4syhnKmKa/1eSx0wxZWSjd5iFmcwGyXgiXRd1xtqkPXOnTsAgE8++aSmaYVOp7Pm2heapsHv98PtdhdcrZc/E0FVVezYsaPiGSrJZBI+n2/NFhzWNA1Op9O0XRrVrVu3jCl9epUDx9X+EHEWzSvBYBCSJKGrq6uqxzc3N+Phw4cAgPb29ppqoF+4cAFutxs+n6/kfRYWFqp67vPnz9dcGmGl7dje3g4AePjwYUOvWg+8nMb60UcfMU1ow2mYC508Hg9yuRwCgUBN06+sVivu3btnVLQDqruY6fjx42WfcVQTwGt5kDx79ixOnjzJRbdfnWUlk0njgFdMOp02pqW2tLRw+h8x4FdLJBLB4cOHoSgKwuFwye6QSrlcrjUPOHGx1Pbt2zfM9lyPv3szmZmZKXqxWDAYxI0bNxCLxSDLMqxWKxYWFpDL5eB2u3HixAkGPa25hl6TlWg1DngdHR2mZeQSiQQ++OADSJJkWpBCLPKeTCZht9vXrFInkfA/bgKi6oVCIezbt89025YtW2C323Hp0iVTGVur1YrR0VEAXByF1scb3ARE1YlEIpBluaAWeWtra8nW+datW41/p9Np1jEnBjzRasof9MxX6QDo3NxcTRUPi4V7JpPBkydPyno8B2yJAU+E17N/kslkyftUWko3FAqZVhYqx61btwAAbrfbdLumafjqq68q6rpJpVIMeFoWB1mpruUPbAIwaqNHo1EoimIKyPxuFXFA+OKLL4pOac1kMpBlGdlstuyQTafT2LNnDyRJMlVLXDr4+ujRI6iqaqrkKW7Lf88cpKUV8WJeqlfZbNaoxyLLsqkkhCzLRUtWiLIDoj5PsdWGdP1lEbhKVhwS70VUG136u/xaRcWWqxN/BxFr0RDl1fopVhlTlFNeGraqqhr1e0TIFyswZ7fbKyreVer1in4plyyjKIrkcQk7Yi0aolfdHmNjYwCAqampgm4UWZYBAL/99pvp9ubmZqP0wsmTJwEAv/zyS8FzR6PRgumRpXg8HoRCIQQCgRVnzYjVqvIXcZmZmQFQ2YIqRADnwVOdevDgAYCXheGKher9+/cBANu2bSv5HC6XC7IsQ1VVU/mH+fn5otMjixkfH4ff7y+7NpBYCze/9MHs7CwA4P333+eOJQY8kQjKUmvKitkqLS0tyz6PaMWPjIwYt928ebOs6ZGRSAQDAwOYmJgoCPd0Ol20IumVK1cKBn/F8olcqpAY8EQrtMxFa7ycVnhXVxckSYKqqkb3STnVI8Wi006n01TGQPjss8+Ms4z8xySTSdhsNtOBIJfLQVEU7lSqGOfBU10S/eOLi4um2zVNg8fjAQBcvHhxxeexWq0YHBzEwMAATp48Ca/XC1VVl60eCbyuXnrkyBHjwJB/dqGqasFjrl69CgA4ePCgcZu4IEuEvqZpnPtO5eM4M9Wr/GUL4/G4PjExYSxxWMkSg9ls1liSz+l0rjibRayJutKPWHpRzJQptl5w/rq9Yhm+/McRLYcteKpbPp8PBw8exI0bN3D9+nW8+eabOH36ND7//POKWsFWqxVutxtjY2MIhUKYmJhY9v6PHz82XaRUypYtW0yt97a2NtMsHuBlv7vX68Xt27cxNzeHUCjU8AusUPl4JStRGcSVq8DLEgEsEkYMeKI64vF4EIvF8OjRI24MYsATEdF/h9MkiYgY8ERExIAnIiIGPBERMeCJiIgBT0REDHgiIgY8EREx4ImIiAFPREQMeCIiYsATEREDnoiIAU9ERAx4IiL6z/0fhf2gVKb1MgoAAAAASUVORK5CYII=;imageBackground=none;" vertex="1" parent="8Nt1t6jGfpRGjF9K0AyX-32">
          <mxGeometry x="17.650285714285715" y="591.1111111111111" width="284.1512632325812" height="81.62022534411805" as="geometry" />
        </mxCell>
        <mxCell id="8Nt1t6jGfpRGjF9K0AyX-24" value="&lt;font style=&quot;font-size: 16px; color: light-dark(rgb(0, 0, 0), rgb(0, 0, 255));&quot;&gt;Normal Distribution Settings&lt;/font&gt;" style="html=1;shadow=0;dashed=0;fillColor=none;strokeColor=none;shape=mxgraph.bootstrap.rect;fontColor=#999999;fontSize=14;whiteSpace=wrap;" vertex="1" parent="8Nt1t6jGfpRGjF9K0AyX-32">
          <mxGeometry x="401.14285714285717" y="70.37037037037035" width="401.14285714285717" height="42.222222222222214" as="geometry" />
        </mxCell>
        <mxCell id="8Nt1t6jGfpRGjF9K0AyX-25" value="&lt;div align=&quot;center&quot;&gt;&lt;font style=&quot;font-size: 16px; color: light-dark(rgb(0, 0, 0), rgb(4, 4, 4));&quot;&gt;&amp;nbsp;Sample (n)&lt;/font&gt;&lt;/div&gt;" style="html=1;shadow=0;dashed=0;shape=mxgraph.bootstrap.rect;strokeColor=none;fillColor=none;align=center;fontSize=10;whiteSpace=wrap;rounded=0;" vertex="1" parent="8Nt1t6jGfpRGjF9K0AyX-32">
          <mxGeometry x="401.14285714285717" y="136.5185185185185" width="200.57142857142858" height="28.14814814814815" as="geometry" />
        </mxCell>
        <mxCell id="8Nt1t6jGfpRGjF9K0AyX-26" value="&lt;div&gt;&lt;/div&gt;" style="shape=triangle;direction=south;rounded=0;shadow=1;fontSize=12;align=center;html=1;" vertex="1" parent="8Nt1t6jGfpRGjF9K0AyX-32">
          <mxGeometry x="574.9714285714286" y="143.55555555555554" width="15.042857142857143" height="14.074074074074074" as="geometry" />
        </mxCell>
        <mxCell id="8Nt1t6jGfpRGjF9K0AyX-27" value="&lt;div align=&quot;center&quot;&gt;&lt;font style=&quot;font-size: 16px; color: light-dark(rgb(0, 0, 0), rgb(4, 4, 4));&quot;&gt;&amp;nbsp;Mean&lt;/font&gt;&lt;/div&gt;" style="html=1;shadow=0;dashed=0;shape=mxgraph.bootstrap.rect;strokeColor=none;fillColor=none;align=center;fontSize=10;whiteSpace=wrap;rounded=0;" vertex="1" parent="8Nt1t6jGfpRGjF9K0AyX-32">
          <mxGeometry x="685.2857142857143" y="136.5185185185185" width="167.14285714285714" height="28.14814814814815" as="geometry" />
        </mxCell>
        <mxCell id="8Nt1t6jGfpRGjF9K0AyX-28" value="&lt;div&gt;&lt;/div&gt;" style="shape=triangle;direction=south;rounded=0;shadow=1;fontSize=12;align=center;html=1;" vertex="1" parent="8Nt1t6jGfpRGjF9K0AyX-32">
          <mxGeometry x="825.6857142857144" y="143.55555555555554" width="15.042857142857143" height="14.074074074074074" as="geometry" />
        </mxCell>
        <mxCell id="8Nt1t6jGfpRGjF9K0AyX-29" value="&lt;font style=&quot;font-size: 16px; color: light-dark(rgb(0, 0, 0), rgb(4, 4, 4));&quot;&gt;SDev&lt;/font&gt;" style="html=1;shadow=0;dashed=0;shape=mxgraph.bootstrap.rect;strokeColor=none;fillColor=none;align=center;fontSize=10;whiteSpace=wrap;rounded=0;" vertex="1" parent="8Nt1t6jGfpRGjF9K0AyX-32">
          <mxGeometry x="936.0000000000002" y="136.5185185185185" width="167.14285714285714" height="28.14814814814815" as="geometry" />
        </mxCell>
        <mxCell id="8Nt1t6jGfpRGjF9K0AyX-30" value="&lt;div&gt;&lt;/div&gt;" style="shape=triangle;direction=south;rounded=0;shadow=1;fontSize=12;align=center;html=1;" vertex="1" parent="8Nt1t6jGfpRGjF9K0AyX-32">
          <mxGeometry x="1076.4" y="143.55555555555554" width="15.042857142857143" height="14.074074074074074" as="geometry" />
        </mxCell>
        <mxCell id="8Nt1t6jGfpRGjF9K0AyX-31" value="" style="shape=image;verticalLabelPosition=bottom;labelBackgroundColor=default;verticalAlign=top;aspect=fixed;imageAspect=0;image=data:image/png,iVBORw0KGgoAAAANSUhEUgAABAAAAAJ5CAYAAAAw4EKwAAAEBWlDQ1BpY2MAADiNjVVdaBxVFD67c2cjJM5TbDSFdKg/DSUNk1Y0obS6f93dNm6WSTbaIuhk9u7OmMnOODO7/aFPRVB8MeqbFMS/t4AgKPUP2z60L5UKJdrUICg+tPiDUOiLpuuZOzOZabqx3mXufPOd75577rln7wXouapYlpEUARaari0XMuJzh4+IPSuQhIegFwahV1EdK12pTAI2Twt3tVvfQ8J7X9nV3f6frbdGHRUgcR9is+aoC4iPAfCnVct2AXr6kR8/6loe9mLotzFAxC96uOFj18NzPn6NaWbkLOLTiAVVU2qIlxCPzMX4Rgz7MbDWX6BNauuq6OWiYpt13aCxcO9h/p9twWiF823Dp8+Znz6E72Fc+ys1JefhUcRLqpKfRvwI4mttfbYc4NuWm5ERPwaQ3N6ar6YR70RcrNsHqr6fpK21iiF+54Q28yziLYjPN+fKU8HYq6qTxZzBdsS3NVry8jsEwIm6W5rxx3L7bVOe8ufl6jWay3t5RPz6vHlI9n1ynznt6Xzo84SWLQf8pZeUgxXEg4h/oUZB9ufi/rHcShADGWoa5Ul/LpKjDlsv411tpujPSwwXN9QfSxbr+oFSoP9Es4tygK9ZBqtRjI1P2i256uv5UcXOF3yffIU2q4F/vg2zCQUomDCHvQpNWAMRZChABt8W2Gipgw4GMhStFBmKX6FmFxvnwDzyOrSZzcG+wpT+yMhfg/m4zrQqZIc+ghayGvyOrBbTZfGrhVxjEz9+LDcCPyYZIBLZg89eMkn2kXEyASJ5ijxN9pMcshNk7/rYSmxFXjw31v28jDNSpptF3Tm0u6Bg/zMqTFxT16wsDraGI8sp+wVdvfzGX7Fc6Sw3UbbiGZ26V875X/nr/DL2K/xqpOB/5Ffxt3LHWsy7skzD7GxYc3dVGm0G4xbw0ZnFicUd83Hx5FcPRn6WyZnnr/RdPFlvLg5GrJcF+mr5VhlOjUSs9IP0h7QsvSd9KP3Gvc19yn3Nfc59wV0CkTvLneO+4S5wH3NfxvZq8xpa33sWeRi3Z+mWa6xKISNsFR4WcsI24VFhMvInDAhjQlHYgZat6/sWny+ePR0OYx/mp/tcvi5WAYn7sQL0Tf5VVVTpcJQpHVZvTTi+QROMJENkjJQ2VPe4V/OhIpVP5VJpEFM7UxOpsdRBD4ezpnagbQL7/B3VqW6yUurSY959AlnTOm7rDc0Vd0vSk2IarzYqlprq6IioGIbITI5oU4fabVobBe/e9I/0mzK7DxNbLkec+wzAvj/x7Psu4o60AJYcgIHHI24Yz8oH3gU484TastvBHZFIfAvg1Pfs9r/6Mnh+/dTp3MRzrOctgLU3O52/3+901j5A/6sAZ41/AaCffFXthGDhAAAAIGNIUk0AAHomAACAhAAA+gAAAIDoAAB1MAAA6mAAADqYAAAXcJy6UTwAAAAGYktHRAAAAAAAAPlDu38AAAAJcEhZcwAACxIAAAsSAdLdfvwAAAAHdElNRQfmCAYAJhW30SHtAACAAElEQVR42uzdd3wU170+/mdme9OupG1qu+odTDM24BIbx7gkLnHs2PnFTvV1bF8nTm83N7nfXJfESW584zhxXGLH8bWNC0Ygid6baQIJCYRAIAHqvW2dmd8fQgrEFAECpNHzfr2ICayWPZ+ZnTnnmTNnBEVRFBARERERERGRqoksAREREREREREDACIiIiIiIiJiAEBEREREREREDACIiIiIiIiIiAEAERERERERETEAICIiIiIiIiIGAERERERERETEAICIiIiIiIiIGAAQERERERERMQAgIiIiIiIiIgYARERERERERDS+aFmCiUeWZSiKAkEQIIrqyIAURYGiKKpqjyzLEARh+Jda9j21tWdov+M24vGOx7sLP95xG43t9vB4x+Pd5WgTAFW1h+ek8XFOGtrv1HJ8OBFnAExA/f39aG9vR1dX1/AOPt6FQiHVtaejowPt7e2IRqOqaJMkSejs7EQkElFNe4a20cDAgGpOej09PapqT29vL9rb29HT0wNFUVTRroGBAVW1JxAIoL29HR0dHZAkSRVtikaj6OzsVM3xOxqNDm+jUCikmoFYd3c3gsGgao533d3daG9vR19fn6r6rGprD/vgY1s4HEZHRwc6OjpU02f9V5wBMAHJsoxoNKqqREuWZdV0HIdO5EPbSC2dfEVRIEmS6tqjpjYNfZfUchIHBoOaaDQKrVarqm2kpuPdUHuGriKp6figpnPS0DZS2/FBbftcNBpV1TYaumLOPjj7d+yDjx7OACAiugBqnBpGRERE7DOQOjEAICIiIiIiImIAQEREREREREQMAIiIiIiIiIiIAQARERERERERMQAgIiIiIiIiIgYARERERERERMQAgIiIiIiIiIgYABARERERERERAwAiIiIiIiIiBgBERERERERExACAiIiIiIiIiBgAEBEREREREdFYox3PH76npwdHjx5FMBiEw+FAUlISDAbDeb9fOBxGbW0tzGYzUlJSIAgC9xAiIiIiIiJiAHC5KIqCbdu24Y033kBtbS1kWYbBYMCMGTPwla98BT6f77zed+3atfjDH/6A6667Dj/4wQ8YABAREREREREDgMupsrISv/nNbyBJEu6//34kJCSgrKwMS5cuRWdnJ37+858jLi7unN6ztrYWr7/+Otrb2xEOh7lnEBEREREREQOAyykSieD9999HZ2cnfvazn+HGG28EANxwww2w2Wx45513sHr1atxzzz0jfs/+/n688cYbaGhogFar5V5BREREREREqjPuFgE8duwYysrKkJOTg5kzZw7/uU6nwy233AK73Y7169cjEAiM+D0XL16M7du345ZbboHJZIKiKNwziIiIiIiIiAHA5VRfX4/Ozk5kZWXBarWe9HdutxtJSUk4fPgw2tvbR/R+5eXlePvtt3HDDTdg7ty5E2rjc40DIiIiIvbpiLgPThzjbr57S0sLZFmGy+X6xN8ZjUbExcXh4MGD6OzsRHJy8hnfq7OzE6+88gpiY2Px4IMPoqWl5YKv/suyDFmWx3QNhz6foiiIRqMQxfH/NMihNqmlPZIknfT7aDSqmjaprT1D+58a2qQoChRFUV17TjzeqaGDIsuy6tozRA373YnHB7W1R03Hu6HvkZqPd2pw4vFOLe1RWx9ckiTVtWc89cE1Gs059wXGXQDQ398PRVFgsVg+2RitFiaTCdFo9Ky3AEiShPnz56OmpgY//elP4fF40NzcfMGfLxAIoK+vb8yfJARBQDQaRWdnpyoOqEMnPjW1Z+i/3d3dqklVZVlGT0+PqtoDAAMDA+d029FY3/cikQiCwaBq2iMIAiKRCDo6OlR1vBuv7REEYfjXiR0sURTR29sLURSHB2bj9Za8oW3U3d2tqn0OAPr6+tDf36+aY7ja2iMIAkKhkGoWtB7a70Y6s3e8nJMkSWIffBz0wcd6n1UURcTFxUGj0ag7ABhKZU7X0BM7DmeyefNmLFy4EJ/97Gcxe/bsUd1pJEkaNwOcsT5bYaK35187XmwP23SpT4DcRjzejcaAX6PRDF8h6uvvR0d7O44ePYpDhw6hpqYGh+vqYDabkZWVhYyMDKSmpsLr8cDhcMBoNA7//IlXZriN+F1ie3hO4jGc7Zno36Xz+XzjLgAYWqX/dNMxJEmCKIpnXM2/oaEBr732GtLT03H//fd/Iky4kMG7wWCA3W4f0zUMBAKIRCIQRREWi0UVV2PD4TDC4bBq2hOJRBAIBCAIAkwmkyqeTiHLMgYGBmA0GlXTnqEZSQaDAQaDQRUnukAgAI1Go6r2RKPR4Rliajg+hEIhRKNRmM3mMd2eoav8R44cwY4dO7Cveh+q91XjaF0dWhsa0N/VjUhgAIIkQwMFCgRsBiDodTBarLC7nPAkJSMtIx25ubkoKCjAtGnTYLVax3wQEI1GEQwGYTKZzvnKzFhtTyAQgKIoMBqN0Ov1qjg+DAwMQKfTqao9kiRBp9PBZDKpYgA2NLvOaDSq4vgdDAYRDochiiLMZrMqpsxHIhGEQiFVtWdovzObzWO6zyoIwnnVfNz1wm02GwRBOOV0rUgkgoGBAWi12lPeIjCkqKgI+/fvx3XXXYfS0tLhKVONjY2QJAm1tbX4+9//joyMDMyZM+ecCqvT6aDT6cb8iTwcDkOj0ajmyzp0S4Na2hMIBIYPPiaTSRWdk6EOpNFoVMXgMhqNYmBgAIqiQK/Xn/GYM546kOFwGDqdTlXtiUQi0Gg0qgkIh6bGj/X2dHZ24v0PPsBLf/kLaioroQ1HYBcEWEQN7FoNXBotjDY7TAYDzGYzopKEgYEBBEMhhAJBhA7V4ciBWlStWYN3oEAfE4O58+bh3//933H1VVeN6U5ZOBwe7hCrIfAMh8PD5yTD8e2lhu9RMBhUTXsURUEwGBwOPNVwDB861yqK8omFv8crSZIQCoWGL8Kppc8aiURU055gMDh8EU4tfdZxHwAkJCRAq9We8n79QCCAtrY2xMTEIDY29rQH/K6uLhgMBmzbtg1bt2496e+i0Shqa2tx+PBhzJ07d1RvDxiLJwsiIqLRNDAwgKXLluHFF17Ajg0bYYtGkWM0wREXA5vFApstBg6HA7FxsXDYHTCajMO370mShL7ePnR1daKjsxM93d3o6e1FXyCAtoEBrHp3PjasWoW777sPj3zzm8jPy1NFh5OIfTriPkgMAE7D5/PB6XSiuroa3d3dJ023P3r0KI4dO4bJkycjLi7ulD8viiK+8IUvYO7cuSddORFFEQcOHMBf/vIXTJ48GV/84hfhdDrZsSAiIhqBSCSCzVu24MUXXsCGJUthHBhAjsGIBE8C8vPzkJSUBIvFCoPBAK1WO3wODofDCIVDEEUBRqMJHrdn+L7LcDiMYDCI7u5uHDhQg5qDB9Ha04sFf3kJK0tKcf9XvoyvfPnL8Pl83ABERERqDAA8Hg+uvvpqLFq0CKWlpfj85z8PrVaLnp4efPDBBxgYGMCnPvWp4SnTkiRh9+7d6OvrQ2FhIeLi4pCWloa0tLRPFkOrhSiKiI+Px4wZMzj4JyIiOgtZllFZWYm/vPQSit57D7qOTvj0BsS73MjJyUVeXh4cDsfw64cG9yeutDz4X0CRFcj450JSer0eBoMBDocDSUlJyMzKQkV5OeqPHEHHsQb8+Vf/jYUffoiHH3kE9957L+Lj47lBiIiI1BQAaDQa3HPPPaiqqsIrr7yCffv2ITk5GRUVFdi1axfmzp2L6667bvj1oVAIf/nLX1BdXY1f//rXuPrqq0/73kPTD8fbKsNERESXQ2dnJ1588UW8+sor6K0/ghS9AW5HLDIyMlFYWAiXywVBEC5oauhQWCCKInwpPng9Xhw+fBgVFeWwNTWhsbIKP/72k3j33Xfxwx/+EPPmzWOAT0REpJYAAADS0tLws5/9DPPnz0d5eTl2796NmJgYfOlLX8I999xz0sInGo0G2dnZMJlMiImJOeP7Wq1WTJs27ZSzA4iIiOifmpqa8KMf/xjvv/UWvIKIwhg70v1+TJo0GYmJicOP7hvN+0IVRYFOp0N2djaSk5NRc6AGlXsqcaStBXvWrsPX9u7FU888g4cefFAVi+8RERExADguIyMDP/jBD9DZ2YlQKASLxQK73f6J1N9gMODb3/42FEU5a2cgPT0dzzzzDERR5NUDIiKi0zh06BC++93vYvWiRcjWG5CVmIRpU6fB7/dDr9df9GcnK4oCs9mMKyZfgVR/KvburYKjogIHOjrx4+9+D91dXXjsscdUuXozERHRhAwAgMF79l0u11lfN9LH8gmCoIrHrREREV0slZWV+Pa3voWKteuQZzQjOzUN1157LeLi4oYfUXgpDP07drsdV111NWLj4qDbuBF1nR14+j//E13d3fjhD36gmsehERERTfgAgIiIiC6drVu34ltPPIGjO3Yi22RGblY25syZA5vNBlmWL8tnGgoCsrOyYdDrsX79eujb2vDir3+Drq4u/PIXvzjto4GJiIgYABARERH9i5UrV+I73/oWevbXINNiRUF+PmZdPQsmk2nMPP85NTUNOp0e69avg7apCf/35z+ju6sLzz77LLxeLzciERFNeLzRnYiIiE5LlmUsWLAAj3zjG+jdX4N0qw3TpkzFnNlzxtTgHxicDZCUlIS5c+ciIyUF6Vo9Fr/1Fh599FEcPnyYG5OIiBgAsARERER0KtFoFH//+9/x7489BvloAzJi7Ljqyitx1VVXwWAwjKnB/4khgNvlxtwb5yI3LQ2ZBhPWFS3C17/+dVRVVXGjEhERAwAiIiKiE8myjFdffRXf/853YGjvQJbDgTmzZ2Pq1GnQarVjcvB/YggQGxuLG264EZOyc5BtMqNszRp87WtfQ2VlJTcuERExACAiIiIasmTJEvzyF7+ArX8AufFOXH/d9ZhUOAmiKI7pwf+JIYDNZsP111+P6YWTkGexYd/WbfjhD3+I5uZmbmAiImIAQERERFRRUYEf//jHENvakWV34LprrkVOTs64a4eiKDCZTJg9Zw6m5Ocj22TG+mXL8N9PPYVAIMANTUREDACIiIho4mpubsaPf/xjNFZWIdNixZXTpyMzM3NcXPU/XQhgMBgwc+ZVyPH7ka7V461XX8XLr7xy2R5dSERExACAiIiILqtAIID/fuopbF62DJkmMwrz8jFp0uRx3y5FUWC1WjF79hykuVzwRGX85umnUVpayo1OREQMAIiIiGhiURQFL7/yCt5+7TWk6fTI9Pkwc+ZM6HQ61bTP7XZj1qzZ8Nvt0LW146c/+QkqKiq48YmIiAEAERERTRylpaV47umn4YlI8DldmD17DqxW67id+n+6ECAtLQ3Tp01DqsWK1qq9+PGPf8xFAYmIiAEAERERTQwVFRX4yY9/DF1bO1LsdsyaNRtut1tVg/8hgiBg0qTJyM/NQ6rRhC3LlnNRQCIiYgBARERE6tfc3Iwf/+QnaK7aC5/FiunTpiEtLU2Vg/8hOp0OM2fORIbPh1SdDv/36mt4+ZVXVN1mIiIiBgBEREQTWCAQwFNPPYWNS5cizWhCQW4eJk2aDEEQVN3uExcF9DldcEej+PVTT6GEiwISEREDACIiIlLjIPiVV17B3199FT6tTnWL/o2k/UOLAvpiHBDa2vGTH/+YiwISEREDACIiIlKXDRs24NfPPou4cBTpLrcqF/0bSQiQlpaGGdOnI81iRf2eSvzil79ET08PdxAiImIAQERERONfZ2cnnn32WQQam5Bmt2PW1bNUu+jf2QwuCjgJk3JzkWY0YkVxCd566y3uJERExACAiIiIxr833ngDG1auRJrJhEm5eUhPT5vQC+DpdDpMmzYdaW4P4iUJz//hD6isrOSOQkREDACIiIho/CorK8MLf/wjXLKCVI8Xk6+4AqKomdA1URQFsbGxmDplKnwWK1oPHMRvf/tbBINB7jBERMQAgIiIiMaf/v5+PPfcc+g5XAefxYppU6fBbrfz8XfHQ4CsrCzkZGTApzdg0QcfYMFHH3GnISIiBgBEREQ0/rz33ntYurAIPoMROZlZSE9P5+D/BDqdDlOnTkNKXBxiAkH89rnncOjQIRaGiIgYABAREdH4sb+mBr//3e8QF4kgOT4eU6ZOnTCP/BspRVHgcrkwefIVSDaZUb+7HP/7xz8iEomwOERExACAiIiIxr5wOIw//M//oHHvPiSZzbjiiilwOp28+n8KgiAgLy8PaT4fknU6vPP3v2P58uUsDBERMQAgIiKisa+kpAQfvP02knV6pPtTkZOTw8H/aSiKAqPRiOnTp8MbY4euqxu//vWv0dTUxOIQEREDACIiIhq7jh07ht/85jcw9vUj0eHAtGnTYTAYWJizhAAJCYkoLChEssmM8s2b8de//hWyLLM4RETEAICIiIjGHlmW8eKLL2Lvtm1INpowqXASvF4vr/6PpIMkiigsLIQ/IRFeQcQrL72EzZs3szBERMQAgIiIiMaetWvX4m+vvooEUYu05GQUFBRAEAQWZgQURYHVasW06dOQbItBsKkZz/761+jq6mJxiIiIAQARERGNHe3t7Xj22WcRaW1DckwMpk2bDrPZzKv/5xgC+H1+5OXkIsVgxLply/Dmm2+yMERExACAiIiIxo6/v/kmNq5eDb/RhIK8fKSkpHDwfx40Gg2uuOIKpHo8iJVk/PF//xeVlZUsDBERMQAgIiKiy+/gwYN45a8vI15WkObxYvLkyRBFnvLPh6IocDgcmDZ1KnwWK5oO1uLll1+GJEksDhERMQAgIiKiyztgff3113GkuhopZgsmTZqEmJgYXv2/wJqmp2cgw+dDok6H9+fPx7Zt21gYIiJiAEBERESXT8WePXjrzTfh1WiQmpSEjIwMFmUU6PV6TJo0CUlWGwLNzXjppZcQCoVYGCIiYgBAREREl140GsXLf/0ruo8cRZLFikmTJsFoNPLq/yhQFAVJScnITEtDst6AkqIirFu3joUhIiIGAERERHTpbd26FQveew+JOh3SfD74fH4O/keRVqtFYeEkJMTYIXZ1489//jP6+vpYGCIiYgBAREREl04wGMSf//IXRFrb4LXaMGnSZOj1ehZmFCmKAq/Xi+zMTCQZjFi7fDmWLl3KwhAREQMAIiIiunTWrF2LZYsXI1FvQGZ6OhITE3n1/2J0nEQR+fkFSHDEwhII4s9//jM6OjpYGCIiYgBAREREF19vby9efPFFaLt74I2JQUFBIbRaLQtzESiKAqfTiZycHCQajdi5cSM++ugjFoaIiBgAEBER0cVXWlqKTatWIdFgRHZWFjweD6/+X0SCICAvLw8J8U7YoxJeeuklNDQ0sDBERMQAgIiIiC6e9vZ2/PnPf4YpEERCbCzy8wsgijy9X0yKosDhcCA/Lx8JRhP2l+3CO++8w8IQEREDACIiIrp4PvjwQ+zasgWJRiNyc3MRHx/Pq/+XSHZ2NpLdHsQrwGuvvora2loWhYiIGAAQERHR6BIEAceOHcPLL70Ee0RCUrwLubl5EASBxbkEFEWB1WpFYWEhEsxmHK3ej9dff52FISIiBgBEREQ0+t76v//D/t3lSDSZUJCfD7vdzqv/l1h6ejr8iYlwiyL+8eab2LNnD2/BICIiBgBEREQ0SidvUURNTQ1ef+01xANI8XqRlZ3NwlxiiqLAZDKhsHASEi1WdNTX468vv4xwOMziEBERAwAiIiK6MIIgQJZl/O1vf8PR/TVINFtQWFAIi8XCq/+XKQTw+/1I9/mQoNXhg/nzsW3bNmg0GhaHiIgYABAREdEFnLhFEVV79+Kdt9+GW6NBWlIS0tPTWZjLSK/XD84CsMVgoLkFr7z6KkKhEAtDREQMAIiIiOj8ybKMD95/H2319Ug0W1BQUAij0cir/5eRoihISkpChj8VCTo9li9ZgvLycq4FQEREDACIiIjo/B0+fBiLFy2CW9TCn5iIFF8KB/9jgFarRV5eHhKsVoTa2vH+Bx8gEomwMERExACAiIiIzs/ChQvRUlcHr9mM3NxcGA1GFmUMUBQFCQkJSE1OgUenw7LSUuzdu5eFISIiBgBERER07o4cOYL5774LpyAixeOBz+dnUcYQnU6H3Lw8eM0W9DY24e133uHsDCIiYgBAY4MgCCwCEdE4smDBAhzetw8JJhNycnJhNpvH/wBTOM3vx6mkpCT4k5Lg1miw4P33sX//fu64xD4dcR+kMUPLEowuWZYhSdKY/4yCIEBRFEQiEVUsUiRJkuraMyQajarioDrUJkmSVHFf7InbSC1tUhQFsixDlmXVtGdocDzUpvH6XRIEAc3NzfjHP/6BWBlIcLrg9/shyRIwzsf/iqycdH4a7yGATqdDVnY2Dh05gvLDh/HOO+/gZz/72bgOaqLRqOqOd7IsQ1EUVR2///V4p5Z+9VD/Tg0kSWIffBwd76LR6Jhvk1arPee+jaBwbtqoGhgYQF9f37g4mAqCoJoViodOfGpqjyzLAAYf+aWWVFWSJNW1R23baCggVFN71HC802g0+Pubb+K/fvRj5On0uPbqqzFp0iRAUcb1+F/AYH4x1BURBGH4z8ZtmwQBwWAQK1eswI66w9Cmp+Efb70Fv98/fFznOYnHOx7vRt6mof1OTdto6LjOPjiPdxdCFEXExsae877EGQCjzGg0QqfTjenP2NfXh2AwCI1Gg5iYGFV8YYPBIAKBAOx2uyraEwqF0NvbC0EQYLPZxvw+NdLBck9PD6xWq2ra093dDVmWYTQaYTabVXHS6+npgU6nU017ent7EQqFoNPpEBMTMy47+oIgoL29HR9+8AHskgSPOxZpaWkw6A2qOG9Go1FEooOzM/R6PURh/B/D9To9MjMzcbS5GXsOHsSKFSvw/e9/f9wGAJFIBD09PVAUBWazGUbj+F94UpZl9PT0wGg0qqI9iqKgu7sbkUgEBoMBNptNFceHvr4+KIqiqvYM9cHV1GcdGBhQZR/carVCr9eP6c97PjVnAHARNsJY3/lFURxOiHU6nSq+rENTe9XSnhOnH2m1WlUMmIcGXhqNRlXtUVObhhJ8URRV056h7TTUpvF6pW/VqlWo3LEDWUYj0jMyYLPZVHO1RRCFk8+hKggAZFlGis+HhP370Vg/gPfmz8eDDz6IxMTEcftdUtvxbujqv5qO3/96vFNLv1pRFNW0R6PRqK4PPnSrqlrac+Itnmrpg3/ie8Uh+8TFuz+IiMa+np4evPHGGzCHwvA6YpGZmamuxZaU0/x+XDdp8Ep5TnY2PEYTDu7Zg4VFRdyZiX064j5IDACIiIjo9FavXo1tGzfCazAiMzMTsQ4HO1rjRHp6BhKcTtglGf948020trayKERExACAiIiIPmlgYACvv/EG9AMBeOx2ZGdn81FL48TQfcvZWdnwGk2o2rkTpUtKWRgiImIAQERERJ+0YeNGbFy9Gl69ARnpGYiLi+fV/3EmMzMT3rg4WMJRvPH6G+jq6mJRiIiIAQARERH9UygUwhuvvw5098ATE4OcnBzVLPw3USiKArvdjqzMTHiNBpR9/DFWrFzJwhAREQMAIiIi+qdt27Zh5bJl8OgNSE9Nhcvl4tX/cUgQBGRlZSPBEQt9IIg3Xn8dfX19LAwRETEAICIiosHHKr3x978j3N4Br9WKnJxcaDQaFmYcUhQFsbGxyEjPgFdvwMa1a7F23ToWhoiIGAAQERERsGvXLpQuXgyPToc0nx9er5dX/8dzZ0sUkZOTgwS7HWJfP9544w0Eg0EWhoiIGAAQERFNdO/Ofxc9Tc3wWqzIzcuFVqtlUcYxRVHgdDqRkZYGr16PNStXYvv27SwMERExACAiIprIamtrsWhhEVwaDXyJSUhISOTVfzV0uEQR2dk58FptCHV04N358yHLMgtDREQMAIiIiCaqxYsX41htLTwmM7KysqDX61kUFVAUBW63G76kJLi1OpQWF+PAgQMsDBERMQAgIiKaiDo6OvDee+/BLitIcjqR4kthUVREp9MhKysbXpMZLXV1KCoqYlGIiIgBABER0US0du1a7NlZBq/RiIyMDFgtVk7/V5nk5GQkutyIhYD3338fra2tLAoRETEAICIimkhCoRDefucd6AIBeOwOpKdnsCgqoygKzGYzMjMz4DEYsW93OVauXMnCEBERAwAiIqKJpKysDOtXr4ZXb0Ca34/Y2Fhe/VeptLR0eGNjYQyF8O677yIQCLAoRETEAICIiGgiUBQF7733HkLt7XBbLMjMzIIo8hSt1m1tt9uR5k+F12DA5vXr+UhAIiJiAEBERDRR1NbWonjxYrg0WiQnJsLj8fDqv5o7X6KIzKxMuKw2RDo6+UhAIiJiAEBERDRRLFq8GE21h+A2mZGVlc1H/6mcoihwuf75SMAlxcXYX1PDwhAREQMAIiIiNWtvb8d78+fDoShIcDqRksJH/00EOp0eWVlZcJnNaK8/gqKFC1kUIiJiAEBERKRma9aswd5du+A2DD76z2KxcPr/hKAgKSkZiS4XHBDwwQcfoKWlhWUhIiIGAERERGoUDAbxzjvvQB8MwW23Iy0tnUWZKMP/4UcCZsJtNGJ/eQVW8JGARETEAICIiEiddpaVYcOaNXDr9Ejzp/LRfxNQamoaPA4HjOEQ3n3nHQwMDLAoRETEAICIiEhNFEXBe/PnI9jeAbfVisysTD76bwLuA3aHHWmpafDoDdiyYQO2bdvGwhAREQMAIiIiNTl48CBKFhfDpdUiJTERHo+XV/8nYkdMEJGZefyRgJ1dmM9HAhIREQMAIiIidVm0aBEaDw09+i8LOp2ORZmAFEWBy+2CLykJLq0WpSUlqN6/n4UhIiIGAERERGrQ1taG9957D3ZFQaLTieRkPvpvItNr9cjKyobbbEbbkSNY+NFHLAoRETEAICIiUoPVa9agctcueIwmZGZm8tF/E5wCBcnJyUhyeYYfCdjc3MzCEBERAwAiIqLxLBgM4t133oEuGILX4eCj/wiKosBkGgyDPEYjqiv2YCUfCUhERAwAiIiIxrfy8nJsWLceHp0eaX4/HA4Hr/4TACAtLQ0JjlgYwmG89/77CAaDLAoRETEAICIiGq8WFhVhoK0VbqsFGRkZfPQfARicBRATE4NUvx8evR6bN2zA7vJyFoaIiBgAEBERjUcNDQ0oXrQI8aIGyR4v3G4Pr/7TPztlooj09HS4LRYE2tpRtHAhi0JERAwAiIiIxqPVa9bgUHU13EYT0tPTYTAYWBQapigK3G4PkjxexGk0KC4uRkNDAwtDREQMAIiIiMaTYDCIDz/4AMZwBB6HAz6fn0WhTzAYDEhPz4DHYMShfdVYvWYNi0JERAwAiIiIxpOKigps3rARbr0efp8PMTExnP5Pp+Tz+eB2OGAKh/HBBx9wMUAiImIAQERENJ4MLf7nMluQns7F/+jUhhYD9Pt8cOkN2LJhA8orKlgYIiJiAEBERDQeNDY2onjxYsSJGiR6vPB4uPgfnaFzJopIT8+Ay2LBQFsbFwMkIiIGAEREROPF6jVrcGjvPrgNRi7+R2elKAo8Hg8S3R7EiVwMkIiIGAAQERGNC/9c/C8Mt8MBn9/HotBZGQwGZGSkw20w4tC+fVjDxQCJiIgBABER0dhWsWcPNm/YAJdeD3+KD/YYO6f/04gMLQZoDIXxwYcfIhQKsShERMQAgIiIaKwqKipCf2vb4OJ/GVz8j0ZmcDFA+/BigJvXb0AFFwMkIiIGAERERGNTU1PT8cX/RCR6PFz8j86tkza0GKDZjIHWVizkYoBERMQAgIiIaGxas2YNavfuhYuL/9F5GF4M0ONBnEaDxYsXo7GxkYUhIiIGAERERGNJKBTC+x98AEPo+OJ/Pj+LQufMYDAMzgIYWgxw7VoWhYiIGAAQERGNJRUVFdi8fv0/F/+zc/E/Oj9DiwEaQmF88MEHXAyQiIgYABAREY0lRYsWoa+1dXDxv/R0Lv5H50VRFNjtdvhTfHDp9di0fj327NnDwhAREQMAIiKisaCpqQnFixYhVhhc/M/r5eJ/dAGdNVFERkY6XGYL+ltasbCoiEUhIiIGAERERGPB2rVrcWDvXriNJmSkpcNgMLIodN4GFwP0ItHjQawoYvGiRWhqamJhiIiIAQAREdHlNLT4nz4Uhsduh8/Pxf/owhkMBmSkp8NtNOLg3r1cDJCIiBgAEBERXW57Kiuxcd06uHV6+H1c/I9Gj8/nh8fugD4UwodcDJCIiBgAEBERXV7FxcXoa2mFy2JBenoGF/+jUTG8GKDPB5dOj00bNqBq714WhoiIJlYAIMsyJEm6oKsriqJc8HsQERG1tbWhpKQEDlFEossFj4eL/9Ho0Wg0SEsbXAywp7kFS0pLWRQiIjon2vH6wfv6+rBhwwbs2LEDfX198Hq9mDNnDqZMmQKtdmTNCofD2LFjBzZv3oyWlhbY7XZMmTIFs2fPht1u595BRETnZMvHH6O6Yg/SDQakpqbCaDQyAKBRM7gYoAcJThdqe7pRXFyMb37zm4iNjWVxiIhIvQFAb28vXnjhBSxbtgxutxuxsbGoqKjAkiVL8LWvfQ333HPPWadchsNh/P3vf8f8+fNhMpmQnJyMo0ePYsWKFZg5cyaefPJJeDwe7iFERDQikiShaOFCCAP9cLu98Pm4+B+NfgBgMpmQmpqK/ceOoqq8HFu3bsW8efNYHCIiUm8AUFxcjCVLluDmm2/G17/+ddjtdhw8eBD/8z//g9dffx3Z2dm44oorzvgemzZtwttvv43c3Fw8+eSTSElJQX9/P9555x288847SEpKwuOPPw5BELiXEBHRWR0+fBirV62CU6tDckIiYmNjefWfLgq/3w9X+W4cam3GwqIifPrTn+ZaE0RENCLj7mzR2dk5fOX/oYcegtfrhclkQmFhIb7yla8gEAhg2bJlZ+x0SZKEDRs2QFEUfPGLX0RWVhaMRiPi4+Nxzz33wOv1YuvWrejq6uIeQkREI7Jy5Uo019XDZTQhLT1txLejEZ0LRVEQFxeH5IQEODU6rFqxAvX19SwMERGpMwCoq6tDXV0d8vPzkZCQcNLfDf1ZeXk5Ojs7T/segiDg7rvvxk9/+lNMnjz5pL/T6/XQ6XSIRCKIRqPcQ4iI6KwGBgawsKgIFkmCJy4OiYlJLApdNDqdbnAxQJMRDYcOYdWqVSwKERGpMwA4duwYQqEQkpOTP3F1xWq1wuv1orW1Fe3t7advtCiioKAAN910E2w22/CfR6NRrF+/Ho2NjSgoKFD9ojq8vYGIaHSUV1Rgx8cfw6U3wJfig9Vq5fT/EZ+MTvN7Oi1FUZCUlAS3IxbmqISFRUUIBAIszET+GrFPR9wHaYTG3fzErq4uKIoCh8Pxib/T6/WwWq0Ih8Po7e0d8Xs2NTVh3bp12Lt3L7Zs2YJJkybhoYceOq/pm+FwGOFweEzXMBKJQBAESJKE/v5+VXxhI5EIZFlWVXuGBAKBMb9PjYQsy1AUBcFg8KT2jff2DH3v+/r6VHFSGHokqprac+Lx7mIQRREfffQRAu0dcMbGIjk5GVEpCkW+OAGAJMtQZFkV36PB9khDw1pEI1FVHMMVRQYweGHhYrXHYDQgOSkJrpYWbNu8Gdt37MCM6dMhSdJF+R4NCYVCkGVZFSGKLMuqa48gCIhGo6o5hg8d59TUHkEQVNdnVVN7hmaAj4c+qyAIMJlM57wGzLgLAEKh0PBg/1RF0Ov1kGX5nAZMe/fuxdtvv41wOIxAIACbzXbeA65wOIyenp5x8QWQZVk1B9QhamuPoigYGBhQVZvU1p6h49LQsUkt1BA6/esJ/VyC4XM5+ba2tqK0pARxGg088U7YHfZLsj+EI+raRooCRKIRVbXpYrZHEAQkJSfBWb0PR9raUbRwIbIyMy/6zJNgMIhgMKiabSRJkqraMzQgU0tA+K9BgFqwD84+62gQRREGg0H9AcDZBtaKokAQhHMagE+ZMgXPP/88otEo1qxZg3feeQdHjx7FL3/5S6SlpZ3z59NoNGN+UDnUQVDLqsFDbVJbe9S0jYZOeGprz9D3Xi1T34b2OzW153zOCyOl0WiwY8cO1NXUIFtvgM/ng9FovLiDMAVQoKhquqXa9rsT+yMXk8vlhifeCUdPD1atXImvfe1riI+Pvyj7nxqPd0NXzNXUHp6T2L9jH3zibCNRFM/ruzHuAgCj0QhBEE6Z1g5d+ddoNDAajSN+z9jY2OH7/f1+P/r7+/H2229jxYoVePjhh8/p85lMJhgMhjFdw97eXgQCAeh0OtjtdlV8YYPBIAKBgKra09vbC0EQYLPZTjnjZbyRJAnd3d2wWq2qaU9XVxdkWYbZbIbZbFbFSa+npwdarRYWi0U17QmFQtDr9YiJiRn1TqQkSVi1ejW0wRBcHi/S09NhNFzcACAajUCSZRj0BqhBVIoOT4s16A2q6OjLsoxwJHzR22MympCeno6DDQ04sH8/qvfvx5133DHqtwFEIhF0d3dDURRYrdZz6mON5W3U3d0Nk8mkivYoioKuri5EIhEYjcaT1rgaz3p7e6EoCmJiYlTRnr6+PgwMDECr1cLhcKimzzowMKCa9oRCoeHZ3OOhD34+NR93AUB8fDwEQTjlI/pCoRC6u7thMBhgt9vPeJCMRqOQJAkGw8knZ41GgxkzZuC9997D4cOHEY1Gz2ktAFEUx0VaBAymqVqtVhVf1qE2qKU9J84i0Wq1qnqcmEajUd3j0URRVEWbhq5Yqq09Jx7vRnswdvDgQWxctx5OrQ7JSUmIjY276Fffht5fLVdbBPmftRJEAaIw/tul4J9XLS/mdhIEAT6/H87du3GopRnFxcX47Gc+M+rf3xPvkVfL8WHo6r+aj3dqOb8qiqKq9qitD67RaFTVnhOfAqfGPiswDp8CkJKSArPZjPr6+k/cD9Td3Y3GxkZ4vd4zruDf09OD3/72t3j22WfR09Pzib8fel+9Xq/qFS25QjUR0YVZvmIFWo8egctkQlpauio7CpdgtHzq39OIzuOxjlgkJyYiXqvFmlWrcOjQIRZmgu4LRNwHSbUBQGZmJioqKnDw4MGT/m779u1obm7G1KlTT5oBEA6HT1rlVa/Xo7m5GatXr8bOnTtPeo9QKISNGzdCkiTk5eWN+fv5iYjo8ujr68OioiJYZQWeuDgkJCSwA0SXnE6nQ1paOpxGE5rr6rFi5UoWhYiI1BMAWK1W3H777ejr68MLL7yAsrIyNDY2Yvny5fjb3/4Gl8uFefPmnTSg/+Mf/4gf/vCH2LdvH4DB+/TvvPNO6PV6vPrqq1i7di2amppw8OBBvPzyy1i2bBmmTJmCT33qU9xDiIjolHbt3oWy7dvh0uvh9/lhsVgYANAlpygKEhMT4YmLg0WSUFRUhP6BfhaGiIhOaVzOVZw7dy5aWlowf/58/OQnP4HZbEZ3dzecTiceffRRZGVlDb9WkiTs27cP1dXVJ033v/baa/Hoo4/iH//4B371q1/Bbh98bFMgEMCMGTPwyCOPwO12cw8hIqJTWrxoMcKdnXDFOeFPTYUgCAwA6LIEAFarFX6fDweam7Dz460o312OWbNmsThERKSOAMBgMOBLX/oSZsyYgYqKCvT09MDtdmPatGnw+XyfeO1jjz2Gvr4+ZGdn/7PhWi3uuusuTJkyBbt27UJzczNMJhOys7MxadIk1ayeSkREo6+xsRFLlixBrKhFoscDl8vFwT9dNoIgIDU1Da7KStR3dKC4uJgBABERqScAGBrAFxYWorCw8Iyv02g0mDp16in/ThRFpKenIz09nXsCERGN2IYNG3Couho5RgNSU9Og1+sZANBloygKXC4XEtweOLq7sGTJEjzxxBPweDwsDhERnTwGZgmIiIhGLhKJYOHChdCFQnDH2JGSksKi0GVnMBiQlpYKl8GIA3v3YuOmTSwKERExACAiIroQ+2tqsGHdOji1eqQkJ8Nut/PqP40JKSk+uGNioAkEsHDhwpOeZ01ERMQAgIiI6BwtW7oU7Q0NcJlNSEtLh1arZVHoslMUBQ6HA8lJSXBq9Vi3Zg0O/MvjkomIiBgAEBERjVBPTw8WL14MmwJ4453wJnh59Z/GDK1Gi7S0dLhMJrQdPYYVK1awKERExACAiIjofOzavRvlZWVw6fXw+/wwm80MAGjMUKAgISEBnrg4WGQZixcvRn9/PwtDRESjGwAoigJJklhNIiJStdKSEoS7uuC0WOH3+yFAYFFo7AQAigKLxQJfig8uvQFl27Zjz549LAwREY1uANDT04Nf/vKX+Mc//oGjR49ClmVWloiIVKWlpQXLli1DrKhBotsNp9PJq/805giCAL/fD5fFgkBHO0pLS1kUIiIa3QAgGo1i4cKF+PKXv4x58+bhe9/7HlatWoXu7m5WmIiIVGHzli04uG8fnAYjUlNTodfrWRQacxRFgcvlgtflgkMQsWTJErS3t7MwREQ0egGA2WzGXXfdhczMTOzfvx9/+MMfcOedd+KOO+7Ac889h/LycoRCIVabiIjGJfn4/dRiIACXLQbJySksCo1ZRqMRqX4/XAYjqisrsW3bNhaFiIhGLwAwmUz4xS9+geXLl+Nvf/sb7rvvPthsNqxfvx4/+tGPMG/ePDz44IN46623eIsAERGNO4cPH8ba1asRr9UhOTEBDoeD0/9pTEtJ8cFlswF9/Vi8eDH3VyIiAgCM2sOLNRoNfD4fvvSlL+Hee+9FTU0Nli9fjuLiYmzfvh3vvfceFixYgMzMTMybNw+f/exnMX36dDgcDm4FIiIa09asXYumujoUGs1ITU2FTqdjmE1jlqIoiIuLQ6LXi/iOdqxetQpHjhyBz+djcYiIJriL8hhAg8GAwsJCfOc738GCBQuwePFi/Od//idmz56NlpYWPP/887j77ruHbxGorKxENBrl1iAiojEnFAph8aJFMEUluB0OJCYm8WoqjXlarRapqWlwGk04WluL9Rs2sChERHRxAoAT2Ww2XHPNNXj88cfxyCOPYMqUKRBFEb29vSfdIvDv//7v2L17N7cIERGNKXv37cPWLVvg1OmRkpwMq9XKAIDGhaSkJLjtdhjCESxetAjhcJhFISKa4LQX8807OzuxY8cOlJSUYOXKldi/fz+CwSDMZjMmTZqEa665BrW1tVi/fj1eeuklrFy5Ei+88ALmzZvHLUNERGPCsmXL0NPcgowYO1JTU6HRaDj9n8Y8RVEQExOD5KQkOFtbsHnjRtTU1KCgoIDFISJiADB6+vv7UVlZiaVLl2LJkiXYvXs3+vv7h9cImDt3Lu68807MmjUL8fHxCAaDKCsrw3/8x39g1apVeOaZZzBz5kzExsZy6xAR0WXV3d2N0pISxADwxsfD7fbw6j+NGxqNBqmpaYivrsbRhkasWLmSAQAREQOAC6coCvbv3z+86N+2bduGnzkbFxeH6667DnfeeSfmzp2LtLQ0aDSa4Z81Go2YNWsWfvCDH2DTpk3Yu3cvjhw5wgCAiIguu7Jdu7Bn1y4k6w3w+fwwm80MAGjcUBQFXq8Xnrg4WHt7UFxcjK9/7WuwWq0sDhERA4Dz193djUceeQRr164FMLgI4NSpU3Hbbbfh9ttvxxVXXAGz2XzG9/B4PNDr9RBFEVqtlluGiIguu5KSEkS6e+CMd8Lv97MgNO4CALPZDF+KDzWNDdi9YwfKy8sxe/ZsFoeIiAHA+YtGo+jq6kJSUtLwFP85c+bA7XZDEIQRvYfFYsF3vvMdpKenIy0tjVuGiIguq6amJqxYtgyxogYJbjfi4+N59Z/GHUEQ4Pf74dxTgcMdHShdsoQBABERA4ALYzab8V//9V/Iy8tDenr6iK/gy7IMURx8EEFWVhZ++ctfcosQEdGYsHnzZtRW70e20YDU1FTo9XoGADTuKIoCl8sFr8sNR3cXli5Zgm9/61twOp0sDhHRBDQqjwEURRGRSAQVFRWQJOmsr6+oqMCPfvQjvPjii8OvH+lMASIiootNkiQsWrwYmmAATlsMkpNTWBQatwwGA1JT/XAZDKip2ouPt25lUYiIGACcv/7+fvzyl7/Er371KwQCgbO+vqysDL/5zW/w4YcfIhKJcCsQEdGYcujQIaxfuxbxWh2SExPhcDh49Z/GtZQUH5xWG9Dfj8WLF/NRlkREE9R53QLQ3NyMtrY2CIIAQRDQ2dmJYDAIrVaLffv2wW63n7ajFA6HsWrVKgBgZ4qIiMak1WvWoLm+HpOMZqSmpkKj0UJROGCi8UlRFMTGxiIpIQHxHe1Ys2oVjhw5woUtiYgYAIzMzp078eijj6Kvrw+CIECWZXR3d0MQBNx+++3D9/WfSiQSQV9fHwBg0qRJMBgM3ApERDRmBINBLF68GKaoBHdsLBISEwEwsKbxTafVITU1DZUHD6Lq0CGsW7cODz74IAtDRDTBnNctANdffz2uu+469PX1YWBgAIFAAIqiQJZlBAIBDAwMnPaXJElwOBy4+eab8eijj/LefyIiGlP27t2LbVu2wKnTIyU5GTarjTPWaNxToCApKQluhwOGSASLFi1COBxmYYiIJpjzmgFgNpvxzDPP4Ctf+QoEQUB3dzeefPJJaDQa/P73v0dMTMxpO0sajQYxMTFITU1FbGwstwAREY0pS5cuRW9rK7JjHEhNTYUgCAwAaPwHAIoCm82GlKQk1LQ0Y8umTdi/fz8KCwtZHCIiBgBnl5SUhKSkJABAd3c3rrzySmi1Wtx4442w2WysLBERjTvd3d0oKSlBDAR4nE643R7O/ifV0Gg0SE1Ng3PfPhxtasLy5csZABARTTCj8hSAmJgYvPrqq3jppZdgtVpZVSIiGpd27tyJyvJyuPQGpPr8MJlMUJgAkEooigKP1wNvfDxssoKSkhL09vayMEREE8g5zwAIh8M4cuQIotEoYmNj4Xa7Icsyurq6EAwG0dTUNOKTkN1uh9fr5VYgIqIxoaS0FNHuHricLqT4fSwIqS4AMJvM8KWkoLrhGHaXlaGiogKzZ89mcYiIGACcWn19Pe677z40NDTgkUcewX/913+hp6cHX//617Fnzx5oNJoRvY8kSXjggQfw29/+9oxPDSAiIroUmpubsXLFCsRqNEhwexAfF897/0l1BEGAz+eHs6ICdR0dWLJ0KQMAIiIGAGceuLe1taGlpWX4cX6yLKOjowOtra0jDgCi0SinnRER0Zix5eOPUVtdjUyDEX6/H3q9ngEAqY6iKHC5XEhwuWDv7sKyZcvw7W99C/Hx8SwOEREDgE9KSkrCq6++ikAggIyMDACAzWbD73//e/T09JzTCcjn8/ExgEREdNnJsozi4mKIAwG4PF4kJyezKKRaBoMBfr8fe+vrsb+yEtu3b8e8efNYGCIiBgCfZLVa8elPf/qkP9Pr9bj++utZTSIiGpfq6+uxbs0axGt1SEpIgMPh4NV/UrWUlBS4rFYcamtBSUkJbr75Zl6UISKaAC7ZzffhcBhdXV0IBAKsOhERjSnr169Hw+HDcBqNSPWnQqfVsSjjlCAIg79G+FpxAg56FUVBbGwcEr1exGq0WLVqFRoaGrjzEBExADg3kUgE5eXl2LFjx/CVE0VRsHbtWjz44IP49Kc/jbvuugt/+ctfzul2ASIiooslHA6juKQEhkgELrsDiUlJE+7Rf0OL8UYlCZFoFLKiQDw+kD7jzx0faA/9nCTLwwPw8x7AAxAFEQqAyPH3VRQFoijiTMN6QRAQiUbR3NWJps4OBMLhs36Ojt5eHGlrRSgSmXD7vU6ng9+fCpfBiPoDB7Bp0yYeDIiIJgDtaL1RT08Pnn32Wbzyyiu4/vrr8dZbb0Gv12PHjh34+te/joMHDw6/dvXq1di7dy+eeeYZmM1mbgUiIrpsDhw4gC0bN8Kp0yM5KRE2m23CTP8XBAHhSAR76utQVnsQjR0diESjiLPZMMmfiiuzsmEzm09ZD0VRsK/hGLbt34/61hYEI2HYjCZkJibhquwcJMaf+1MUBEFAKBrB7kOHUHbwIJq6OgYXrbM7cEVaOqamZ8BiNH7ifQVBwMHGRizYvBEHGhshKzKS4524bcZMTMvI+EQQIAgCuvv78cLiIoQiETx5590wTsBFH5OSkuCMiYGuqQHFxcW4++67odVqeVAgImIAcHZ///vf8dvf/hbRaBSyLCMajUKr1eLll1/GwYMHER8fjwceeAChUAjvv//+cFDwuc99jluBiIgum1WrVqGjsRFXmK1ITU2FRqOBLMsTYvDfPdCP+evXYe2eCgTDYZj0egBAZX0dNu2twsf7q/HVm26GNzb2pMGxJMtYunMHPty8Ed39/dBptNDrtAiGw/h4fzXW7inHgzfMxfSMzBHPpRAEAT0D/Xhn/Tqsr9yDUCQCo14PURBQWV+P9ZV7MC0jEw/eMBcJcXHDn0cQBLR0deHlZaWoa27GtIxMWE0m7DhQgz+XLsa/3/5ZTMvIhHzC5xcAfFy9D5X1dbhn9jVwxsRMuMG/oiiw2+1ITkzEgbZWbFi/HocPH0ZmZiYPCkREDADOrKenB/Pnz0c0GsV3v/tdPPnkkzCbzaivr8eaNWsAAN/4xjfw9NNPAwAyMzPxox/9CB999BHuvPPOET86kIiIaDT19/ejpKQEFkmGOy4OHo93wgwEQ5EI3lm3FivKdiLGbMGdV83CFWlpEAQBFYcPo2T7Vuw4UAOL0YhHbrkN+uNXhkVBwNYDNXh3/VoEwmFcnZuHuVdMgd1sQVNnB0q2b8W+o0fxtxXLEW+LQZrHc9Lg+3SikoQFmzdh5a4yWE0m3HHV1ZiSlgGNRkRNwzEs3voxtu6vhigKeOy2z8Ks1w+HC5ur9+JAQwNuumIqvvbpm6HX6bC6fDf+UlqMJTt3IN/ng/74ug6CIKC9txfLd5XBExuL6wsnQRCECbnoo1arhd+fCuf+/Sg/cgRr1q5lAEBEpHKjsgbAkSNHUF1djcmTJ+P73//+8OOTysrKcPjwYdhsNtx2220QRRGiKOKzn/0sPB4PKisruRYAERFdNlVVVSjbvh1OvR6+5BRYLJYJMRAUBQFltQewbk8FjHoDHrpxLu695lrkJKcgOykZ98yeg3uvuRYaUcSOmhocbGyAKIjDwcHqinIMhEKYnJqGf5t3K6ZnZCLD68U1+QX4t1tuQ2JcPJo6O7Chas+IBv+iIOBwSzPWV1ZCEATcPWsO7rvmOuSmpCArMQm3z5iJL90wFwadDjsPHMTeI/UQjq9bEIlGsffIEQiCgOmZmTAen8UwKTUNLrsdh5qb0NHbd9JtAJv2VaG+tQU3TroCnn+Z3TCRKIqChIQEuBwOmKMSiouLEQqFeGAgImIAcGZdXV3o6elBZmYm4uPjh/98w4YNCIfDyMjIQF5e3vCfOxwO2Gw2DAwMIBgMcisQEdFlsXTZMvS3t8NptsDn90MQxAnR7nA0ig2VlQhFIrg6Nxdz8gsARYEsy5BlGQqAmVk5yE1Ogd1iQWdfHyAcn6YfCKCxox0AMD0zCw6LBZIsQ1YUSLIMn9OFAp8fAFDb1IRINDqiz3SouRn9oSAS4+IxJy8fgiAMfx5ZUVDg8yExLg7haASHmpsARRlegLCrvw86jQYxZvPwrACDTger0YRgOIy+YAACBj9/a3c3Vu7ehaT4eFyTXzCh939FUWC1WpGSnAynTo9tW7agurqaBwYiIhUb1ZVeosdX6gWA7u5ubNmyZbCDMH36ScFAb28vBgYG4HQ6odPxUUtERHTpdXZ2YumSJbBDgNfphNvtBjAxrv639nTjQGMDdFotZuXmQa/VQpbl4UfiKQDsViu+c+fdkBUFZoMB8vEV/gEF/7xgfop6CQI0msEgRToeJpyNrCiYlpGBhHgnNKIIxylnYgjHf2F4VoFyfFCvOT4bQPmXwa2syMNtHrKhag8a2tvx0I03wWm3T9ir/0M0ombwNoC9VahvbsHyFcsxefJkHiCIiNTaDxiNN3G5XIiPj8f+/fvR3NwMAKioqEBVVRVEUcR11103/IghAFi7di0aGxuRkpICm83GrUBERJdcWVkZ9lZUwGkwwOfzwXiK1eVVSRDQ1NmJrv5+xFmtSHE6AQD9oRDqWltwoLEBLV1dkGUZcTYb4mw2GI6H9YqiwGYyI/l4qL+rthY9gQFoRBHi8YF4c1cn9h45AgBI83iH1w44m3hbDGZmZWNGVvZwn2Hoqr0oCNh/7CiaOjug12qR5vECxwf1Wo0Gzhg7wtEoOnp7IWDwMYQDoSC6+wdgM5kQY7ZAEAQ0dXZgdflu+F1uzMrN45cAgAIFHo8Hnrh42ACUlpSit7eXhSEiUqlRmQHg8/lw5ZVX4qOPPsJ//ud/4rbbbsPLL7+Mjo4OZGVlYc6cOQCA5uZmlJSU4Omnn4aiKLjhhhtgMBi4FYiI6JIrLS1FtKcHzngXfD7fhGm3AKC1uwtRSYLdYoFOo8XK3buwqnw3GtrbIckSLEYT8n0+3Dp9BtK9CSf9vFGnwy3Tr0RtcxN2HarF35Yvx9wrrkCM2YzW7h6UbN+KupZm+N0e3DD5CoiCMKJ1AJTjtxCIJ/z/QDiM3kAA5XWHUPTxFgTCYVxfOAmFPj+U409q0Gk0mORPxaa9VVhfuQe5yckwG4zYuLcKHX09+NSkKxBrtUKWZazdswfNXV342qfnId5mG9HnUn0AoCgwmUzwpfjgajiG8rIyVFRUYPbs2TxIEBExADg1o9GIxx9/HNu2bcPrr7+ON954A4qiQK/X4xvf+AbS09MhyzKeeuopvPjii5AkCddddx3uu+8+bgEiIrrkmpqbsWLFCsSKGiS4PYiLi59QU8F7BgIAAI0o4oNNG7FiVxm0GhHxthhEZQntPT1YXb4b1UeP4OF5t2JSatpwfWRFweS0NDx++x34+6oVWLunHB/v3weDTodAKIRwNIrJqWl46MabkOp2n9cgWxQENHR24i+lxcdnK/RBVhRck1+AB2+YO3hLwgm3AczMzkFZ7UFsr9mPp+a/A5PegNqmRvhdHtw+Yyb0Wi2OtLZi7Z5ypHsTcHVO7uDtAxicYYDjTwGYqLcDCIIAn98HZ0U5DnW2o3TJEgYAREQMAM7sxhtvxGuvvYYXX3wRNTU1sNvt+MIXvoCvf/3rEITB6XgWi2X4iQD/8R//gZSUFG4BIiK65D7esgWH9u9HlsGIVL8fer1+wgz+FEVBKBIBMLjw3sHGRkxJT8dnZ16NhNhYRGUZVUfq8cHGDWjoaMdba1bj+5+LgzNm8H55QRDQ1tON7Qf2o7OvFzqNBrEWK4x6PXo1GnT09aGluwsVdYfhiXXApDecV227+vvRPdAPk0EPSTajJzCA2qYmrNlTjpunTofZYBgetMeYzfjGp+chze1Bed0hRCUJN02ZipumTIXP5YYky1hdUY72nh58fvY1g2sMABgIhdDU1YlINIpYqw1Oux0iJsJKEJ/cJ5xOF7wuNxxdXVi2dCme/Pa3T1q/iYiIGACcRBRF3Hzzzbj22mvR1dUFk8kEu91+0mN3vvrVr+Kee+5BQUEBTCYTq09ERJecLMtYXFwMcSAApzcBSSnJE64GyvEhbjAcRqE/Ff92y62It8UMX1W/wTEZFoMRf1y8EAcaG7Ctpga3TZ8BCAJ6AwN4bfkybN1fDbfDgS9efwMmp6bBoNehdyCATfv2YvHWj/GP1SvRGxjAfddcN7xI34i3kaLA73bhp/feD71Wi+6BfqwuL8fyXTvxf2vXYCAUwheu+ef6QoqiINZmw+fnXIPPXnX14CxEnQ6iIEAAUNfagvWVe5CdlIwrs7IBAAcaGvDO+rWoaTgGSZLgsFpx4+QpuHXGDJh0+gkXAhgMBvj9Puyrr8P+qips374d8+bN4wGDiEhlRv15RyaTCQkJCXA4HCcN/gEgOzsbM2bM4OCfiIgum/r6eqxbuxbxWh2SvAlw2B0Ta+q3IECn0Qx2AkQRN0yajHhbzOCK/cevqMuyjEmpqchJGgxH9h2tR1SSIAgCttfUYMeBGpgMBjx04024acpUOO122ExmJMXH457Zc3D37NlQFGB52U4caGw4aRX+kTLrDXA7HHBYrUj1ePH/feoG3Dj5CsiyjNXlu1Hf2nrS+yrKYKyh12ph0Okg4J/rCqwq343ugX58eso02C0WtPf24vWVy1FZdxgzs3Pw+WuuhdVowvz167B05w5M1JUBUlJ8cNpsUPr6UVxSMuGfkEBEpEba0X7DUCiE9vZ2BAIByMcX6DmdmJgYeDwebgUiIrpk1q1fj8bDh1FgNCI11Q+dTnfW85Wqxv8ALMbBIN6k1yMxPv4TA14Fg4v9JcbHY+fBA+jo7UNUliFIEqrq6yDJMrISEjElbXCNH+WEnxMEAdfkF2DV7t041t6Gqvp65KX4gLMMJgVBgCgO3jI4NJgf+pmhK/rXFkzCuso96OzrQ21zEzISEs74vqIg4EBTEzZWVSIvxYfpmZkAgF21B7Hv6BHMycvHN26+BWaDAQU+P559fz5Wl+/GNfkFw7c8TBSKoiA2NhaJHg/iOtqxetUqNDQ0ICkpiQcNIiIGAJ8kSRKWLVuGV199FVVVVRgYGDhjh0qSJNx///147rnnTnpEIBER0UUZ+AoCwuEwihcvhiESgcvlRWJi0oS8yumKiYFGFCErCmT5zAPok87dsozugQEAgDMmBgad7pPhgaLAajQh3mbDsfY2dPX3Da/Yf7pEQlEUdPX3oamrGxaTCW67/ZQDVIfFApNej/5gEAOh4FnbGZUkrNxdhv5QCDdPnQaryYSoLKOm4RgAIN/nh0mvR1SS4HO5keJ0ofrYUTR2dMA10WaGANDpdPD7U+GsrUX1gQPYtGkT7r33Xh48iIgYAHxScXExHn74YbS0tJzU2RJOM+1PlmV0dnZyCxAR0SVz4MABbNm0CU6dHilJSbDZbBNukKcoChLj4xFjNqOzrw/H2tuQd4pFeSOShLaenuHAQHv8tgGL0QgA6BkYQESShm8nOPHcH5UkBMJhAIBRrx++qn86kiLjw82b8fH+alydm4dHbrntE+sGCIKA3mBgeAFDq/HMtxOKgoD9jY3YvG8vCv2pmJKWPnhLgCShNxCAAMB2wi2JOo0GZoMBkWgU/cEghAn6HUlKToIrJgYHGxuwuLgYn/vc53jgICJiAHCy3t5evPDCC2hpaUFqaioefPBBFBYWwmQynTYAUBQFKSkpp/17IiKi0bZy5Up0NDbCZ7HBn+qHRqOZUNP/gcEF9jyOWGQlJGJrzX5s2luFq3JyYTUahxcB1IgiDrc0o/roUQBAns83GAAoCtK9Xqyv3IMDjY2oa2lGTlIypBNqKAoCahqO4Vh7G7QaDdI8XkAQzjhVX6fRwm42IxAOo/zwIRxta0O61zv8voIgQJZlbNtfjd5AALFWK9I83jOGChFJwopdOxGKRHHz1GkwG42QZRmiIECn1UIBTvrc8vH1AgRBgEbUTMjvh6IosMfYkZyYiPi2Vmxcvx6HDh1CamoqDx5ERAwA/unw4cMoLy+H1WrF7373O6bF4wTDFyKaSMe7/v5+lJSUwCIrcMfFwetNmLCLnBl1Otx4xRTsqa9DRd1hvLdhPe6aNQsOixWKouBoWxveXrsG7b09yEhIwLT0zOFazcjMxqrdu3GkrRVvrVmNh26cC7/bA40oQpIkVB87infWrcVAKIRCfyoKfP7BxwcCCITDWLJzO1q7u5Hm8WLuFVMGtw+AGZlZ2LRvH1p7ujF/wzo8dONceByxEAQBgVAI66sqsXTnDgDA7Nx8JDudw4HFvxJFEVX19dhasx9T0tMxyZ86fBuCVqOBxxELAGg6PhNRFET0BAfQ3tMDi9GI+JiYCbtvaLVapKamwrl/P/YcOYI1a9fiq2lpPIiwT0fEfZABwD91dXWhq6sLkyZNwg033DChCxoOhxEMBsf0lyASiUAQBEiShL6+PlV8YSORCGRZVlV7hgwMDCAUCo37NsnHVxgfGBhA+PjUYDW0Bxhc/FQNgwVFURCNRqEoCnp7e1XTnqGrx9u3b0fZ9u1w6Q1ISkyEVqdFKDz+vluyJENWZIQjF/Y9yk9JwR1XXoWPPt6Mku1bsfdoPTITEhGVJOw9cgQNHe2ItVpx91WzYDMZh2sVb7Xi87Pn4PVVK7Cn7jB+/f585CSnINZqRUdvL/YdPYLOvr7BJwLMmg3T8ToLENAXGMD6ykrUt7ZgRmYW5uTlQcDg1Xef04m7rr4ab69bi637q3GsvR25ycnQ63Q40tqK/ceOIiJJmJGZiVunT4csS5Ck6CnbFpUkLC3bgagk4VOFk6ARBISO10sUROQlJ8FsMGDT3irkp6TA63BgXVUljrS1YkpaOpw2K0Lh0Hk/DWDoeBCJRsbdOUkQBMQ7nXDZ7TD29WJRURE++5nPDP99MBiEJEmqOD5IkqS69giCgEgkgp6eHtX0hxRFUU17wuHw8DlJbX3w3t5eVazrFo1Gh79TY7nPqigKRFGE2Ww+57qPSgBgNBphMBig1+uh0+kmdAAgy/LwjjOWP+PQjjMUBox3kiSprj0nDmDUMEV56PFiQ9tKDe058Tt1Ymijhk6kmtoztI2WLluGgfYOxDtikZycMrxPjuc2XQgRwC3TpyM+JgYrdu9CXUsLDjY2AgBMBgOuSEvDbdOvRH5KyicGSNMyMmAxGrGkbCeqjx7B5n17hzsjdrMZ1xUU4pZp0+FzuRA9/rMCBtcBiDGZYDWZYDYYhqfkD7kmrwAxZjOW7NyJ2qZGrNy9a7CzotHAbXdgdm4ebpw8GTFm82kHbaIgoPzwIew4UIOp6RnITUpG9ISgQIaMDG8Cbps+A4u2bcVvF3wAi9GI9p4eJDuduPOqq2HQak+6PeB8j3fy8VsKxhuzyYykxCQ4W1qw7eOPsW/fPuTl5UGSJFUMlv/1eKem9pzYd1BLv1pt7VFbH/zEbaSW9vzr+GKsEkXxvD7fqAQAqampyMrKQm1tLQ4dOoRJkyZN2ABgKAwZy3p6etDf3w+tVguHwzHu0zpBEDAwMID+/n44HA5oNJpxPcAUBAGBQABdXV0QBAE2mw0Gg2HctykajaKjo0NV7Wlvb4eiKDAajapZTK6zsxM6nU5V7QmFQujt7cX6desQIwjwOp1ITEyEQW8Yl20KR8KQJRkGveGCO1sGADdcMQUzsrJxtL0NHb29UAC4YuxIcTlhNhhPux9MychEbooPjZ0daOnqQigSgclgQEJsLDyO2MH77P/lZ+N1Ovz7Z+9AJCrBqNfBbDIjGokgLIcBQYDRYMCsvAJMTsvAkbZWtHV3Q1YUxJjNSI53Ij4mBgJwxivzg08UGMDk1DR8ZuZVsFutp7xV4HOzr0Gqx4sdBw9gIBTCdQWTMCc/H0lx8bjQPV+SJITCIRj0hnF5jhUEAenp6dhTvQ9H29qwecsW5OfnAwAsFgvMZvO4Pz4oioKOjg6YzWZVtSccDkOv18N+iidpjEc9PT2Da1OoqD0n9sHV0mft6+tjH/wyfubLEgC4XC7827/9G5588kn8z//8D37zm9/A6XRO2BBgPKVfZ3pSw3iuPdvE7wm30fl1INW0jYbao9FosGv3LlRVVCBFb4Df54PJZBq3nRTh+P+M1vZRFAU2sxn5Fv/wyvdDV7DPVCNFUWDQ6ZDu8SLDm3DSn8un+VlRFOGMsQ8P4k/1GkVRYDEYkJfsg3D84QTKiZ9pBN/Hm6dOw83TpkMUhNOuE6DTajErNw9X5eQOz17AaT7T+W2k8c3j8cATHw9rbw+WLFmCez//eVgsFtUdH9ge9hkuVzvU1r9TS3tO9fnV9n0alQBAkiRcffXV+MxnPoN//OMfqKmpwU033QS/33/aJwEoioK0tDRceeWVXDSCiIguGkmSsHLlKkR7euGMdyIlxceinOKcfL4DX1lRzrjC/yn/rbO9BoCiyDjfS/Ejveo+FA6c7TGFE3F/MJlM8KWkoPrYMVTu3o29e/di5syZLA4Rnfa4QRMoAOju7sa3v/1tlJWVIRqNYsOGDdiwYcPwSfV0O8lXv/pVzJgxgwEAERFdFKIooq2tDevXrUOsKCLR7UZ8fDw7KkRnIQgCfD4/nBUVONzZgTVr1uDKK69kYYiIGAAMniRMJhNiY2PhcrlOGuSfjiRJJ72WiIjoYgxiysrKUHfwILIMRvh9fuj1egYARGehKAqcTie8Thfs3V1Ys3Ytvv71ryMmJobFISKa6AGA3W7HK6+8cs6PSbBarap4XAQREY1N0WgUK1auhCYQgMvtRXJKMotCNEJGoxF+nw97j9Th4L59qKioQEZGBgtDRDTRAwBRFJGYmMhqEhHRmCEIAhoaG7Fl0ybEa3RITkhEfFz84GPnTrM2jTyCmQECRnaPuYKRP6pPFMURrRsnj3DmgjjCBV7lEd77LwjCSY/rO22bR1jDE9ssiSJEUYQoCNAc//151XCMt3nE7zfK+40CQJHlES2n8K81FAQB/lQ/3OW7cbi1BStXrcJnPvMZ6PV6HmCIiCZyAPCvJElCW1sbmpub0dPTA5/PB5/Ph66uLmg0GthsNlaeiIguum1bt+JIXR0SRA3aFRmbq/edZuV5wO1wIOssYbYgCOjq68O+o0fO+px4s8GIAp8POu2ZT7URScKe2oMIhEJnfJ1GFJGbnAKz4eyDr/3HjqG5u+usg8MUlws+l/uMA2JBENDU2YnapsYzPxUAQKzFityUlDMOdAUA/aEQKuvrEIlGIUkSolIUAgTodDoIgoih1f/0Oh0KfD6Y9YYzDmBlRcaeunp0Dwycsc2CICAzIRFuh+PMbQZQ19KMo21tZx1cex2xyEhIOOt+09Hbi+pjR884uFcAWI1GFPj80Go0Z3zPcDSKPXWHETzL7EuNRoO85BTYLZazbr99R4+itaf7nzUUBEQjEfSJIkQAG9avR0tLC1JTU3lwISJiADCYgu/YsQOvv/461q9fj2PHjiEYDOJXv/oVvvOd7+CVV17BsmXL8MQTT+DWW2+FVqvlFiAioosiEolgxYoVCEYiOIwI6it2AxW7T/laSZZxw6QrRhQAHGlrxYslixGMRE472JQVBT6XG//xhQcQq9OdduAlCAICoRD+sXoljrS1nXbgrAAw6nT4wec+j7zkZEhnORcv27UTq8t3Q3OGmQqyouAL114Hv9tz1gCgqr4Of11aeua1fWQZU9Mz8IPEz0M8w/ldEAS09fTg5aWl6O7vP+NiwfG2GPzsCw/A4jSe8d+OSjLe37gBVfV1Z5ydIYoiHrvtM/DGxkI601V7QcCmvVX4cPOmM4YZkizj5qnTkJmYeNYaHm5pxp+KFyESjZ5xm6R7vfjZfQ8g5gzPphcEAX3BAN5YtQKNHR1n3G/MBgN+dM+9cFitZ32sY+mObdhQVfmJ/WboKRH9Bw9ix44dDACIiBgADE5X+7//+z/87Gc/Q319/fCJVpZlRCIRAEB1dTWWL1+O7du346mnnsIjjzzCNQCIiOiiqK2txZbNm2HA4DRz4QznGwWAII7siTQCBIiiCI0gnvZ574KsQBRH/oQbURChEcXTT2FXcHxQJozw/T45nf5Un3HET+E5/n5nm+ouiuKIPqIgDLZZHGqzMlzckwadoihgpFUUh24lOEObNcLI308QBGgE8Yz7hYKRPx9aAKARREhn2G8gyxAF8Zze78z7jTLYhhG2WjjTfiPLkEMhLFmyBHfffTf7b0REEz0AWLt2LX74wx+ipaUFN910E+6++26UlZXhlVdeGX7NXXfdhaqqKmzatAm/+tWvMGXKFMyaNYtbgYiIRt2aNWvQfPQosixWzJw2HYlJSad9Xr2iKIiznX11c0WW4Xe78d077z7jYFhRAJNeD6vReNarrmaDAV+/eR6C4QjONJYUBRGpbjdkWTnrIO62GTNxdU7uGQenigIkxMVCOcutDIos44rUNPzgc58/8+sUBTFmM7Timaeuy4oCV4wdT3z2DkQlCdFoFNFoFIIgQKfXD1/NVgDoNVrExcScNXjQajT44vWfQl8giLONx30u91nfT1EUXFc4CTlJKWd8P0VR4Iyxn3VNAUWWke5NwHfv/txZ9ofBK/amszypQlEUWE0mPDzvVoQiZ9lvRBHJTudZt7MoCLjzqqtxXUHhJ/YbSZKxe3cZdtXWYu3ataivr+csACKiiRwAhEIhvPjii2hsbMQ3v/lNPP3004iNjcX//u//nvS622+/HVOmTMFjjz2GoqIivPvuu7j66qtHfgWCiIhoBAKBAEpKSqCLRpHkicXV+flwxjvPOug768AQgM1kxpT0s6+EPtLF3LQaDfJ9/hEvAhgOh876ulS3G2kez4jeTxlBm+NjYuCy28/e5hEuiGfU6zEpNQ0CgHAkgnAkDFEQYDQYz2sRQFEQkJ2YNKqLACbGxSP5LPvMuew3dosFU0dxv9FptCjwj3C/GeEigGkeL9K9p14gUzswgCPHGnDw8GGsW7eOAQAR0UQOAOrq6rBlyxZkZGTg+9//PmJjY4dPGP8qKSkJTz75JFauXInt27ejr6+PiwISEdGo2lddjW1bt8Kh1SMxMREmk/msi/aNlAIFkqyM6ueVR+mznTjIhTJ6n1FRlDPfM38BbZZleXCAKgiQRjhQHY9tvpg1vNj7jSzLcHs9iI+JQV1TA4pLSnD//ffzaQBEROPQqNzA1dbWhvb2dhQUFCAlJeWsr8/KyoLH40FnZyf6+/u5FYiIaFStWLECXc0tiDObkZ6ezvuViS6IghibDX6fD3atDps3bsSBAwdYFiKiiRoADJFleUTT6oLBIMLhMLRaLZ8EQEREo6q3txdLSkthUhQkuN1ISkqCrMgsDNEF0Gi1yM7ORqzRhLbGRqxavZpFISKaqAGA2+2G0+lERUUFamtrz/r6zZs3o6GhAUlJSbBardwKREQ0asrLy1FetgsOnR6ZGRmwWCyAwroQXQhFUZCckoIElwsGSUJJSQkGBgZYGCKiiRgApKSkYNasWairq8MzzzyDlpYWAP98NM7QfxVFwccff4znnnsOsizjU5/6FIxGI7cCERGNmqVLl6K/swPxViuysrO50CzRKAUANpsNGRkZcGj12LltG6qqqlgYIqKJGAAYDAZ885vfhNfrxVtvvYV7770XL774IiorKwEAR48excqVK/Hzn/8cDzzwACoqKjB16lTce++93AJERDRq2tvbsWzZMlggwJecjMTExBHdmkZEI+g0iiLy8vIQb7Wip60Ny5YvZ1GIiMaZUbsB//rrr8ezzz6Ln/3sZ1i3bh3Wr18/vOjSyy+/jL/+9a8IBoMAgLy8PPz2t79FWloatwAREY2a7Tt2YF9lJdwGA/Jyc2E2m9HNxWaJRoWiKEhJSUFKQgIOd3Vi6ZIlePyxx2AfwSMiiYhobBi1RQBFUcSDDz6I+fPn46tf/SoyMjJgMpmg0+kQiUSg0+mQm5uLJ554AvPnz8eNN97I6hMR0agqLSlBpK8Prhg7cnJyWBCiUQ4ALBYLcnNz4dDrsae8HLt27WJhiIjGkVFdgl8URcyePRtXXnklGhoacOTIEXR3d0MQBDgcDvh8Pni9Xq78T0REo66hoQErV66ETRCR5vfD4/EgKkksDNEoEgQBOTk5cK5bh8b2VpQuWYLrr7+ehSEimogBwBCdTge/3w+/388KExHRJbFp0yYcPnAAyQYj8vPzYTAYEOX0f6JRpSgKEhMT4U9JwaGOdqxYvhwt3/kO3G43i0NENFECAFmW0draitraWtTX16O7uxsAYLFY4Ha7kZGRgcTERK74T0REF4UkSSguLgaCQXgSk5GZmcmiEF2kAMBkMiE/Lw+79u5Fzd592Lp1Kz7zmc+wOEREag8AZFlGeXk53nzzTaxYsQJ1dXXo6+uDdHzKpSAIMJlMcLlcw6v+33777VwshoiIRtXhw4exft06xIgaZKanw+l0cvV/oosoOzsbbocDx5obUVxSgttuu2148WciIlJhABAOh/Haa6/hmWeeQX19/fCA32AwwGq1QhAERCIRBINB1NXVoa6uDqWlpbjtttvw9NNPIzc3l9UnIqJRsWbtWjTW1yPdZEJ+fj50Oh1kWWZhiC4CRZbhdruRnpqKg60tWLN6NY4cPQq/z8fiEBGpMQBQFAV//etf8ZOf/AR9fX2IjY3FjTfeiE996lPIyMhATEwMNBoNBgYG0NjYiJ07d2L58uWoqqrCggUL0Nraitdffx0ZGRncAkREdEFCoRCKi4uhjUaRkORCeno6r/4TXcwAAIBer0d+fj62l5ejrrYWGzZsgP+LX2RxiIjUGADs2LEDzz77LPr6+nDFFVfg6aefxty5c2EwGE75+i9+8YtoaGjASy+9hOeffx4bNmzA7373Ozz//PPQ6XTcCkREdN6qq6uxdcsWODQ6ZGdlweFwMAAgutghgKIgMzMT3vh4HDlaj+LiYtx3773s1xERjXHndbPW/PnzcezYMfj9fvz5z3/GbbfddtrBPzB4a0BSUhJ+/vOf44knngAAFBUVobq6mluAiIguyIoVK9DR1IQ4ixn5+fnQaDQsCtElCADi4uKQmZEBu0aLTRs24ODBgywMEZHaAoCenh5s2bIFAPCFL3wBs2bNGvHP6nQ6fPWrX0VGRgYaGhqwY8cObgEiIjpvvb29KC0thVFWkOxNgM/v59V/oktEq9UivyAfcSYzWo4dw+rVq1kUIiK1BQC9vb1oaGiARqPBzJkzz/kfTE5OxqRJk6AoCmpqargFiIjovFVUVGD3zjI4dDrk5mTDZrUyACC6RBRFQVpqGhLdbuglCcUlJQgEAiwMEZGaAoBgMIiBgQEYjUY4nc5z/gcNBgMSEhIAAB0dHeyoERHReVu6dCn6OjrgtNqQm5vHx5ARXeIAwG63Iyc7Gw6tDju2bkVVVRULQ0SkpgAgEolAlmVoNJoz3vd/thBgKExgAEBEROejvb0dy5YtgwWALzkZSUlJPKcQXeqOpCgiLy8P8RYrulpbsWz5chaFiEhNAcCJBEG4oJ9jR42IiM7X9u3bsXdPJRx6A/Jyc2E2m3leIbrEFEVBSkoKUhITYFaAJUuWoLu7m4UhIlJjAEBERHS5Bh0lpaWI9PXCbbcjJyfnvENpIrqw76LVakVuTi4cOj327NqNXbt2sTBERGoMANjZIiKiy6GhoQGrVq6ETRCR5vfD6/VClmUWhugyEAQBubm5cMXEINDdhdIlS1gUIqIxSnu+PxgKhfDuu+9i69at59TpEkWRyTAREV2QTZs34/CBA0g2GpGfnw+DwcAAgOgykWUZiYmJ8KekoLa9HcuXLcN3v/MduN1uFoeISA0BgCAICIVC+P3vf3/BH4D3axIR0bmIRqMoLi4GgkF4EpORmZnJcwnRZWYymZCfl4dde/eiZt8+bN26FZ/5zGdYGCKi8R4AaDQauN1uKIpyQbcASJIEu93O2wiIiOicHD58GBvWrUOMqEFmejqcTicDAKIxIDs7G26HA8eaG1FcXIzbbruNj+YkIhrvAYDf78eHH36IaDR6QYP3oWfH8sRARETnYu3atWisr0e6yYz8/HzodDpO/ye6zGRZhtvtRnpqKg60tmDN6tU4evQofD4fi0NENJ4DAL1ej4yMDFaOiIguuVAohOLiYmijUSQkO5Gens6r/0RjhF6vR35+PraXl6Pu0CGs37AB/98Xv8jCEBGNIbz8TkRE40Z1dTU+3rIFDq0O2ZlZcDgcDACIxghFUZCZmQlvfDzEcBjFxcWIRCIsDBERAwAiIqJzt2LFCnQ2NyPebEF+fj40Gg2LQjSGAoC4uDhkZmTArtFi04YNOHjwIAtDRMQAgIiI6Nz09fWhpLQURllBktcLv9/Pq/9EY4xWq0V+fj7iTGa0HmvA6tWrWRQiIgYARERE56a8vBy7d+6EQ6dDbk4OrFYrAwCiMUZRFKSlpSHR7YZeiqKkpAQDAwMsDBERAwAiIqKRK12yBP0dHXBabcjNy+VTZIjGaABgt9uRk50Nh1aP7Vu3oqqqioUhImIAQERENDJtbW1YumQJLBDgT05GclIyr/4TjdXOpSgiPz8f8RYLulvbsHTZUhaFiIgBABER0chs3boV1VVViDUYkZ+fD5PJxACAaIxSFAUpKSlISUqCWVGwpHQJOjs7WRgiIrUEAMFgEFu2bEFLSws7ZERENOqDicXFxYj298PtsCMnJweCILAwRGP4O2uxWJCXm4tYvQGV5eXYsWMHC0NEpJYAoK+vD9/61rdwyy234Be/+AU+/vhjLvhCRESj4siRI1i9ahViBA0yUtPg8XggyzILQzSGCYKAvLw8uGJiEOrpQXFJCS8SERGpJQDQarWwWCwoKyvDr371K9x2222499578Ze//AUHDhxANBplpYmI6LysW7cOR2prEWc0oqCgAHq9nkUhGuNkWYbX60Wa3w+bIGLlihVoaGhgYYiI1BAA2O12/PWvf8Wf/vQn3HLLLQCAkpISPP744/j0pz+NRx55BAsXLuQtAkREdE7C4TAWL14MMRxGgtOJjIwMnkeIxgmjcXDNjliDEYdqarBp0yYWhYjoMtOOxpsIgoCsrCxkZWXhy1/+Mvbs2YPS0lKUlpaioqICr732Gt566y0UFBTgtttuw+23345JkybBYrFwCxAR0WnV1NRg08aNsGu0yMrMRHx8PAMAonFCURRkZ2fDGxeHow1HsWjxYtx9993QarUsDhHReA4ATmSxWHDVVVfhqquuwhNPPIGtW7di8eLFWLVqFfbs2YOdO3fixRdfxMyZM3HHHXfgpptuQlpa2nmdDCKRCDo6OhAKhWCz2WC328/5udCyLKOnpwc9PT0QRREOhwMWi4ULTBERjQErVqxAW0Mjsi1WFBQUQKPR8P5/onEUAMTHxyMzIwM1TU1Yv24damtrkZ2dzeIQEaklADhRfHw8br31Vtxyyy1obGzEihUr8Le//Q3r16/HkiVLsGzZMqSkpGDevHl44IEHMGvWLBgMhhG9d01NDd5++21UVFQgHA4jJiYG1157Le655x7Ex8eP6D2OHTuGBQsWYOvWreju7oYoinC5XJg7dy5uu+022Gw27iFERJdJX18fiktKYJAlJHu9SE1N5dV/onFGp9OhoKAAH5ftxIEjR7Bq9WoGAEREl5F4sf+B/v5+bNu2DW+88QbefPNN7NmzB5IkwWAwIDU1FV1dXfjrX/+Ku+++G9/73vfQ1NR01vc8fPgwnn76aWzcuBFTp07FXXfdBafTibfeegt/+tOf0N/ff9b3aGpqwrPPPov3338fLpcLd911F+bNm4dwOIw//elPePnllxEMBrmHEBFdJuXl5SjbsQMOnR65OTmw2WwMAIjGGUVRkJaejiS3B3pJwuLFixEIBFgYIqLL5KLMAAiHwzhw4ABWrVqF4uJibN26FR0dHRAEAV6vFw888ADuvPNOzJw5E8eOHcOHH36IN998E3/6058gCAJ+//vfQ6fTnfK9JUnC+++/j0OHDuGJJ57AXXfdBY1Gg97eXvzv//4vli9fjpkzZw4vRng6paWlKCsrw3333YeHH34YJpMJAHDHHXfgv//7v1FcXIxZs2Zh1qxZ3EuIiC6DJUuWoL+9HWmx8cjLy4Moipz+TzQOAwCH3Y6c7Gzsra/H9o8/RmVlJWbMmMHiEBGN5wBAkiQcPXoU69evx+LFi7FhwwY0NjZClmVYrVZcd911uOOOOzBv3jxkZ2cPP8YpLS0Ns2fPRkpKCr73ve9h8eLF+Pa3v43MzMxT/jtNTU3YsmULMjIyMHfuXGg0GgCAzWbD5z73OWzYsAFr1qzBjTfeeNpHRQUCAezatQsOhwO333778OAfABITE3HTTTdh9+7dqKqqYgBARHQZtLW1YcnSJbBAgD85GcnJybz6TzROiaKI/Px8bNiyGZWtbVi6dCkDACKi8RwABAIBPPXUU5g/fz4OHz6MSCQCrVaL7Oxs3HzzzbjjjjswY8YM2O32054Yrr/+ethsNvT19aG3t/e0/1Z9fT1aW1sxc+bMT7xf8vFOYk1NDdrb25GQkHDqRmu1eOCBB9DT04PExMRP/P1QqCBJkqo3Phc6JKKxauvWraiurILHYEB+fj7MZjOv/hONU4qiICUlBSmJSTjU1YXS0lI89thjiI2NZXHYpyPugzQeA4CBgQEUFRWhpqYGHo8Hc+bMwV133YVPfepTSEpKGtHK/IqiIC0tDX6//7QDd2BwBoAkSfB6vZ/Y0YxGI+Lj41FXV4fOzs7Tvo9Op8PVV1992jBj69at0Gq1yMjIOK+T3Hg4EQ/9d+iXmjoZamjPiW1QW5u4jcbH9+dytkeWZSxevBjR/n643V5kZ2efd42VcXZ8PnsH63ibFPW05+StNPj/x3PTBOHEJimqaM+/fv5z3fcURYHZbEZebi72HDiAyvIK7NixAzfddNNl24/Vdk7614BUlmVVDMiGto+a2qPW/h230fgJXkYlABBFEVdffTXuv/9+3HrrrcjLy4PRaDyn98jNzUVxcTHsdjssFstpX9fb2wtFUWC1Wk85sDebzYhEIiNaCPBUG7y0tBSbNm3C5MmTMX369HN+j2AwiP7+/jH9BYhGoxAEAZIkobOzUxVfVkmSIMuyatozdCJXFGX4EZVqOKDKsoze3t7z+n6O5cFyIBBAOBxWRZskSYIkSZetPYIg4MiRI1ixYgViRA18KSmwHp8dppznd0kQBMiyhGAoCDVcn5CP73dqa4+iKAiFQ6pokzLcnrB62nP896FQ6LyOD6Iowp+aCqfNhob2Vnz44YeYOnXqZT3eRaNR9Pf3q2LR56H2CIKAUCiEzs5OqEE0GgUAVbVHbX1wWZYhSRK6urpU1wcf631WURQRExMzPHv9kgYAFosFDz/8MGw2G7Kzs886WGlqasLmzZsRExODG264AaIowmKxnHHg/68HAq321B9do9EMd2LPdWMvXboUL7/8MuLj4/GNb3wDDofjvAaiY30gMPTlVBRFFYOWE9uktvYAQCQSgVoIgqC69gx974eOTWpp0+Vqj0ajwbr163Hs8GGkGozD55ToBd6SpQBQVHYLgRrXRFDbbR5qao9wvG93vm2SJAlOpxMpyck41NGB1atXo76+HgkJCZetTkMDMbUdv2VZRigUUlWb1NYe9sHHR5vGep91aNx7rkYlAOjr68O3v/1taLVaFBUVnXXgvHr1anz5y1/GjTfeiGuuuQYGg+GcGjp0IjndyVYQhHNKQsLhMIqKivDKK6/AarXie9/7Hq644orzqoVWqz1pUcGxKBKJQJIkCIJwzjM1xuqXNBqNIhqNqqo9Qwcdg8Fw3l/wsTZYCYfD0Ov1qmqPoijQarWnDSXHm3A4DFEUL0t7BEFAOBzGqpUroYlE4PUkICsrCzqd7rz3F0mSAEUZPC+IGlVsI1mRoSiKqtozNADUaDQQVHDNXMHghQjVtEdRoByfA6DRaM57VppBr0d+fj4q9lfjyKFD2LVrFzIzMy/bADwcDkOj0UCr1aoiUAuHw5BlGRqN5rRP0xpvhvpCamnPUH+VffCx254TL+aO9T64KIrndTw+rx5eIBBAJBKBIAgQBAE9PT3o7OyEVqtFb2/vGQ+ksixj3759iEQiGBgYOOfU12q1QhAEDAwMnPJLFQgEoNVqYTabRxxevPnmm3jvvfeQnJyMJ598EtOmTTvvDWE0Gsf0F2BoSnl/fz+0Wi3sdrsqppcPDAygv79fNe0JBALDU6msVus5hWRj+aTX0dGhqva0t7dDURSYTKZT3pY0Hjv5nZ2d0Ol0sNlsl+UzVFZWYsf27XBotMjOykJiQsJ5f6cVRUEgEIACQBREVex3gx3iMCRZVlF7IgjLYQiCAL1Or4pj+NBtaWpqTzg6OBDT6/XQn+dgTBAEFOTnw7t2LY42HMXqNWvw4IMPXpbAUZZldHR0wGw2j7jPOJYNtUeSJOj1etjtdlVMx+7u7oaiKKpqz9Bi6eczdXus9ln7+vpU1Z5wOKyqPvioBABr167Fc889N3wVPhKJoL6+HoIg4IEHHjjjgTwYDGLfvn0AAJ/Pd86JntvthiiKaGtrO+V7Dw0wRjJ9v7OzE3/+859RWlqKKVOmnPHxg2rBFTq5zYjGshUrVqCtoRHZFisKCgqg1WrPe3owvzt0+Q7cajsPjc77KIoCp9OJzIwM1DQ1YcO6daitrUV2djb3GfYdJkR7TmwHtxHbMa4CgClTpiAcDmPDhg2f+LuNGzeO6D1SU1Px5S9/+ZxTX5/Ph9jYWNTU1KC/v/+kdQNaWlpw7NgxZGRkIC4u7ozv09fXhxdffBFLlizBDTfcgMcffxwej4dnDCKiy6Svrw/FJSUwyhKSvV6kpqaq8j53oolMq9WioKAAH5ftxIEjR7Fq1SoGAEQqwPO1ygMAr9eL3/72t1i9ejUEQUB/fz9eeuklaDQaPPzwwzCbzafdCbRaLWJjYzF9+nRMnjz5nP/txMRETJ06FevXr8fGjRtx8803Axi876mkpATd3d2YM2fO8H34siyjrq4OwWAQKSkpw9N0Fy1ahKVLl2LGjBl45JFH4HA4EAgETtqJdTqdau45IiIa68rLy7Frxw44dHrk5uTAZrOxQ0GkwkFCeno6ktwe1NcewOLiYjz00EOqmIZPRKTaAAAArrrqKlx11VUAgI6ODixduhRarRbf/e53YbfbL9oH1ul0uOeee7Bnzx788Y9/RF1dHVJSUlBWVoZly5Zh+vTpmDt37vDrQ6EQ/vCHP+DAgQP4r//6L8yYMQONjY0oKipCJBJBY2Mjnn322VM+P/WGG27Afffdx72EiOgSKF1Siv72DqTGxiEvLw+iKKpuVXgiBgCD93PnZGdjb309tm/diqqqKsyYMYPFISIaywHAiWJiYvDyyy9DEIQRPcrvQhUWFuJHP/oR/vGPf2DBggWQJAkGgwE33HADvvKVr5w0/V8QBNjtdsTFxQ1fzW9paYHRaER6ejoURTnlegKSJKniWeVERONBS2srli5ZCosgwJ+cjOTkZF79J1IpURSRn5+PDVu2oKqlFaVLljAAICIaTwGAVqs9r+n850sQBFx55ZXIy8tDY2MjBgYGYLfbkZCQ8ImVGg0GA77zne8gGo0Oz0zIzc3Fb37zmzP+G4qicDoaEdElsmXzZlRXVsKrN6CgoAAmk4kBAJFKKYqClJQU+JKSUNfViZLiYjz+2GNnXb+JiIguQwDQ1NSE559/Hp2dnZg7dy7uvfde9Pf34w9/+AOOHj064sfdSJKEOXPm4Etf+tJ5r7ZotVqRlZV11rAgNjb2E6GAy+Xi1iciGgMkSULRoiJIAwPweBORk5sLQRAYABCpOACwWCwoyM/HngM12FuxBx9//DFuvfVWFoeIaKwFAJ2dnXj99dfR1NQEvV6Pe++9F8FgEO+++y4qKirO6b2CwSC++MUvquKZkUREdH4OHTqENatWwy5qkJmeDo/bzXv/iVROEATk5ebCvXYtjrU0oaioCPPmzRvxhSQiIrpEAUBMTAzuuOMOtLe3Y9q0aQAAvV6PefPmIScnZ8QHblmWcdVVV/E5zUREE9zKVavQUFePTJMZhYWF0Ol0DACIVE6WZXi8XmSkp6O2rRWrVq5EXV0d0tLSWBwiorEUACQmJuJPf/oTFEUZHuzbbDY888wz5zxdUxRFJr1ERBPYwMAAioqKoJeiSHS7kZGRwan/RBOEXq9HYUEBdpSX49Dhw1i9Zg0DACKii+ycR9+CIECr1UKn0500dX/oz87lF6f+ExFNbBUVFdj28ceI1eqRm5sLh8PBAIBoglAUBZmZmUh0uaCNRFBUVIRAIMDCEBGNpQBAURREo9FR+cUpnkREE1tJSQn62trhtFpRUFDAWWFEEywAiI2NRW5ODhxaHT7evBlVVVUsDBHRRXTOtwAcO3YMP//5z9HR0XFB9+/LsoxPf/rTePzxx9nhIyKagFpbW1FaWgoLAH9KClKSk3n1n2iC0Wg0KCgowMaPP8belhaULlmC6dOnszBERGMlAOjt7cWSJUvQ1NR0wf94XFwcO3tERBPUli1bsK+yEl6DEQX5+TCbzTwnEE0wiqLA5/PBn5SEuu4ulBQX47FHH0VcXByLQ0Q0FgKAuLg4PPzww+ju7r7gGQBXX301r/4TEU1AkiShqKgI8sAAvN5E5ObmQgDA4T/RxAsALBYL8vPzUXHgAKoqKrB161bccsstLA4R0VgIADweD/7f//t/rBwREZ23Q4cOYfXq1YgRNchMT4fH44HMq/9EE5IgCMjLy4N73To0tDShqKgIN998My8SERFdBDyyEhHRJbdq1So01NUh3mRGYWEhdDodi0I0QcmyDK/Xi8y0NMSIGqxcuRL19fUsDBHRRXDOMwAikQhaW1shSRJsNhscDgdkWUZLSwsikcg5vZfFYuE9XkREE0wgEEDRokXQRaNISnEjIyOD9/4TTXB6vR6FhYXYXlExPEPoq1/9KgtDRHS5A4D6+no89NBDaGxsxNe+9jX8x3/8B3p6evDwww+jqqoKGo1mRO8jSRLuvfdePP3005ziRUQ0gVRUVGDblo8Rq9UNPv7L4WAAQDTBKYqCzMxMJLlcOFJ3CEVFRXjggQdgNBpZHCKiyxkARCIRHDp0CI2NjWhraxsezNfX16O2tnbECwMqioKWlhZuASKiCaakpAQ9bW1IccSioKAAoihClmUWhmiCBwCxsbHIyc5G9bGj2LJ5M6qqqjBt2jQWh4jocgYAiYmJeOGFFzAwMIC8vDwAgNVqxdNPP43Ozs5zCgAyMzMv6EkCREQ0vrS1taGktBQWAKnJyUhJSeHVfyICAGg0GhQWFmLT1q3Y29KC0tJSBgBERJc7AIiJicHnPve5k/7MYDDg9ttvZzWJiOiMtmzZgn179sBrMKCgoABms5kBABEBGLw45PP54EtKQl13F0pKSvDoo49yvSgiolF00W6+VxQFoVAIPT096O/vhyRJrDYR0QQmyzKKioogDwzA44hFbm4uZ4ER0Ul9R4vFgoL8fMTqDagsr8DWrVtZGCKiUaQd7Tfs6OjA2rVrsXr1auzfvx99fX3Q6XRwuVyYOnUqbr75ZkyePJmPfCIimmCGVvaOETXITE+H2+3mvf9EdBJBEJCXlwf3unVobGnCokWLcPPNN3PBaCKisRgAbNy4Eb/85S+xfv16hEKhT/z9e++9h+effx7f+MY38N3vfpdTuoiIJpBVq1ah4fBhpJtMKCwshF6vZwBARCeRZRkerxeZaWk41NaKlStXor6+HqmpqSwOEdFYCgB27tyJb3zjG9i3bx8cDgfmzJmDvLw8xMXFQZIkNDQ0oKysDFVVVXj22WfR2dmJ5557DmazmVuBiEjlBgYGULRoEXTRKJJSPMjMzOS9/0R0Sga9HgWFhdhRUYFDtbVYs2YNvvKVr7AwRERjJQCIRCL44x//iH379mHatGl4+umncc0118BisQy/RpZltLS04M0338QzzzyD1157Dddeey3uv/9+bgUiIpXbs2cPtm3ZglitHjk5OXA4HAwAiOiUFEVBVmYmEl0uHK07hIULF+L++++H0WhkcYiILtCo3FBVX1+P1atXw+l04ne/+x3mzZt30uAfAERRhNfrxfe+9z1873vfQzAYxPvvv49wOMytQESkcosWL0ZvaxucVisKCwp4Py8RnTEAiI2NRU52NhxaPTZv2oSKPXtYGCKisRIANDc3o6WlBdOnT8dVV1115n9QFHHPPffA6/WipqYGPT093ApERCrW3NyM4sWLYREEpPp88Pl8vPpPRGek0WgwadIkuKxW9LS0YtGiRSwKEdFYCQC0Wi00Gg10Ot2IruqYTCZO4yIimiDWrVuHmr17EWcwYlJhIcxmMwMAIjojRVHg8/mQmpICqyCgpLgYzc3NLAwR0VgIAPx+P7KysrBr1y5UV1ef9fW7d+9GY2MjCgoKYLfbuRWIiFQqHA5jwYIFQDCIhPg45OblcvBPRCMKAMxmMwoLCxFnMKC6qgobNmxgYYiIxkIA4PF48Oijj6KzsxM//elPsX///lN28BRFwc6dO/HUU08hNjYWDz/8MHQ6HbcCEZFK7du3D+vXrYNDo0VOVjZcThcDACIasby8PHjj4oFAAAsWLEAkEmFRiIguwDk/BaCzsxMLFy5Ef38/BEEY/vNAIIC0tDQUFxejtrYWd9xxB6ZMmYK4uDgoioK2tjaUlZVhwYIFqKurw5e+9CXEx8dzCxARqVhJSQnaGxqRY4vBpEmToNVqIcsyC0NEZ6UoClwuF3KysnCwuQlr165FdXU1CgsLWRwioksVADQ3N+MnP/kJmpqaTvuavXv3Yu/evRBFERqNBgAQjUaHr/oIgoA333wTOp0OL730EleDJiJSoY6ODixatAgmRYE/KQlpaWm8+k9E59ZR1WoxefJkbC3biX3HGlBSWsIAgIjoUgYABoMBeXl5cDqdJ80AOFeSJMHr9XILEBGp1OYtW7Bn92649QYUFhTAarUyACCic6IoCtLS0uBLTEL9vr0oWliEh7/xMGJjY1kcIqJLEQD4fD4sWLBgVKZwGgwGXv0nIlIhSZLw0YIFiPb3w+tJQH5+PgRBYABAROccAFitVhQWFKCythYVu3Zhy5YtuPXWW1kcIqJLEQBoNBqu3E9ERGd08OBBrFy5EnZRg6yMDHi9Xt77T0TnRRAE5Bfkw7t+PRpbmrDgo49w8803D99mSkREI3fZLr93dXWhvr6eV4OIiFRo6dKlaKyrh9NsxuTJk/nEFyI6b7Isw+vxIisjAzGiBqtWrEBtbS0LQ0R0HrSj+WaNjY1YtWoV9u/fj2Aw+ImrPbIsIxwOo7e3F9XV1Zg5cyZ+//vfM8ElIlKRnp4eLFy4EAZZQoo3ARkZGQx7ieiC6PV6TJ48GdvLy3Ggrg7Lli1DVlYWC0NEdLkCgKqqKjz66KPYuHEjJEka0c8UFhZe0EKCREQ09uzYsQM7t29HnM6Agvx8xMTEMAAgoguiKAoyMjOR4vXiyMEafLRwIR566CHYbDYWh4joUgcAkiTh+eefx7p162AymZB/vMO3fft2yLKMK6+8Eoqi4OjRo6irq4Moivja176Gb37zm1wEkIhIZZ30jxYuRLC7Gx6nGwUFBRBFkff/E9EFH1vsMTEoyM/Hvvo67Ny2DTt37sT111/P4hARnYNRGX0fO3YMq1evhkajwc9+9jMsXboUCxYswJw5c/5/9u47Po7qXPj4b2b7atV7t1VsSe694IptOoEEAknoJCQkQBo3CeSm39wbSPJCGimUJHSDARvbFGODjSmuyL03uUpWl3a12jrn/UMltrGktXGR1s/381kspNVoz5kzZ855ThlsNhsPP/wwb775JosXL+anP/0pNpuNQCDAgAED5AwIIUQUOXDgAO8sWkScZqKwf3+ys7Ol8y+EODONVl1n8ODBpMXF09rYyLx582R2kRBCnI8AQGVlJVVVVZSVlfHVr36V5ORk4uPjGTlyJPX19Wzfvh2n00n//v158MEH+frXv85LL73EkiVL5AwIIUQUeffdd9m/Zw/JDgdDhwzBZrNJpgghzgjDMMjKyqKwf3/iNJ1FixZx8OBByRghhDjXAQC/34/P56N///4kJSV1fr9jhH/z5s2d37NYLNx88804HA7mzZsnI0NCCBElvF4vc+fOxRoMkp2WRnFxsYzOCSHOKLvdztAhQ0i2O9i/ezfvvfeeZIoQQpzrAIDVasVisXxqPX92djY2m409e/YQCoU6v5+fn09mZiYbN27E7XbLWRBCiCiwceNGVq1YSaLZSllJCUlJSRIAEEKcUUopBgwYQHZaGpZgkN78gBgAAIAASURBVLlz59La2ioZI4QQ5zIAkJSUREJCAgcOHDiuQ5+ZmYnL5WLfvn00NjYeV3kDtLS0SKUthBBRYv6C+Xjq6kiNjWXw4MGyyasQ4qwEABITEyktKSHBbGXVihVs3LhRMkYIIc5lACA7O5vS0lI2bdrECy+8gN/vByAtLY2cnBx27txJeXl55/s3b97MwYMHcTgcWK1WOQtCCNHHVVZW8tabbxGrafTPyyM3N1dG/4UQZ4XJZGLwkMGkxrporqllwcKFkilCCHEuAwAxMTFcf/31KKX48Y9/zK233sqePXtITU1l8uTJtLS08OCDD/LUU0/x73//mx/+8Ic0NjYyaNAg4uPj5SwIIUQf9/7y5ezevp1ku50hQ4bgdDolACCEOCuUUuTl5tE/N49YTePNN96gqqpKMkYIIc5VAADgy1/+Ml/96lcJBAIsWrSImpoaAO644w4KCwspLy/nG9/4Bl/72tdYtWoVqamp3HzzzZhMJjkLQgjRh/n9fl579VV0n4+M5BRKSkqk8y+EOKsBAKfTyZAhQ0iy2dm1dRvL3n9fMkYIIc5lACA+Pp7f/e53/Pvf/+bOO+8kNzcXgJEjR/K3v/2NqVOnEh8fj8vlYvjw4TzyyCPMmDFDzoAQQvRxmzZt4oP3l5NotlA6cCApKSkSABBCnPUgQElpCZkpKeh+H3PmzMHn80nGCCFED8xn8mCxsbF8+ctf5oYbbjhu86dZs2YxevRodu/eTSgUon///qSnp6NpmpwBIYTo4+bOnUtTdTWDEhIZNmwYJpNJHvEqhDjrAYDUlFTKSkrYW1XJRx98wIYNGxg3bpxkjhBCdOOsbNFsMpnQNI1wOIzP5yMYDJKQkMCYMWOYMGECGRkZ0vkXQogocPjwYRYsWECsplGQn09+fr6M/gshzgmTycSwYcNIjY2lubqGefPmSaYIIUQPzGf6gC0tLaxevZr333+fHTt24Ha7sVgspKWlMXLkSKZPn05RUZE8HkoIIaLAkiVL2LNjB/l2B8OGDcPpdMrovxDinFBKkZ+fT2F+Pw40NrJw4ULuuececnJyJHOEEOJcBADWr1/Pr3/9a9555x3cbvenfq5pGv369eNb3/oW3/jGN4iNjZUzIIQQfZTX6+WVV17BHAiQnZ8tm/8JIc55AMDhaAs+btyxgz07drB48WLuuOMOyRwhhDjbAYCtW7fy1a9+lfLycpxOJ6NHj2bAgAEkJiYSDoeprKxk8+bN7Nu3jx//+MfU1tbyy1/+EpvNJmdBCCH6oPLyclZ8/DGJZiuDy8pITk6WAIAQ4pwHAUpKSshJT+dwxV7mzJnDDTfcQExMjGSOEEKcrQBAOBzmz3/+M+Xl5ZSUlPCLX/yCmTNnkpiY2DnVPxgMcvDgQZ566in+9Kc/8dhjjzF+/HiuvfZaOQtCCNEHG92vvvoqLfX1FCanMHToUHRdl+n/QohzXhclJSUxuKyMXYcPsXrlStauXcvUqVMlc4QQ4iTOyEL8gwcP8s4775CQkMAjjzzCjTfeSHJy8nHr/C0WCwUFBfziF7/gvvvuw+PxMHv2bILBoJyF80Q2YhRCnK6KigrefPNN4jWd4v4F5OTkSOdfCHF+GrO6ztChQ0mPi8fb0MCrr712wdVH0qYTUgZFpM7IDIDKykqqqqqYMGECU6ZM6fa9FouFr3zlKzz11FNs376d5uZmkpOToyZDlVK9fgpsx+dTSkXFDVLTtM40RVt6OtIUDemKtnJ37DmKpjR1vLpLj67rvP322xzcu5cCh5Nhw4Zhs9l6XR6o9lfH/0XL8gTV/p/oSY86/v+iIV3qP2mLhvQcl4Re2M4Jh8NkZWdTVFBARUM9b7/1Fnvvu4+ioqIu6yXDMCKq7/pq+zNaAiDRdI5ObDtEW5qiJT3HpuPYdlFvdTob65+RAICmaWiaRkxMDBaLpcf3x8XFde4UHW3rRX0+Hy0tLb36M4bD4c7HNDY2NkbNxWoYBg0NDVERgeyofJRSuN3uqEhTxw082tID0Nrait/vj4prKRQKEQqFCAQCXdb3breb2S+9hC0UJjsnjZycHDwtLb2yPjcMo62+Mwx8fl/0NLYU0ZWe9n/9XZS7vhgAUEp1eR31xQiAaq+3/YEAgV44e1PXNUpLSli/dQt79u7ltdde46677iIcDnfbHmppaaG1tTUqTlNH+87v91NfXx81aQKiKj0dbfBoarNGcxvc4/H06s5/fHw8JpPp3AcA8vLy6NevHxs3bmTfvn0MHDiw2/dv27aNo0ePMmrUKOLi4qIqAGA2m3E6nb36M7a2thIIBNB1HYfDERUXayAQIBAI4HQ6oyI9wWAQr9eLpmnYbDbMZnOfT5NhGLS0tERVejweD0opLBZLVGxoqpTC6/ViMpmw2+0nfY/JZOLjjz9mQ3k5yRYrQwYPJjU1tW0UtxfGcwPBIEopdE3HbDaj0ffrh1A4hFIqatITDocItTeKTSYTutb3HxNsKAMVUlGVnnB7o9hsNrU1NnvZ9a5pGiWlpeRlZHJ4z24WLlzIrbfeSnx8/EmDk0opWlpasFqtWK3WqKi/W1paCIfDmM1mHA5HVLSrW1tbUUr1+rb1qbbBNU2Lqjarz+eLujY40OvbrJqmnb8ZAFlZWdx111088MAD/PznP+f3v/99l89g3bFjBw899BB2u5077rgjKirdY1kslohmQZzvgu33+zsDAKdTcHpruqIlPa2trZ2Vj91uj4rrJBQK4fV6sdlsUdFZDoVCtLSPelsslqhonCil8Pv93aYnHA6zcOFCgm43GanpDB8+vFdO//9PZznceZO0mC1EA9XeGYua9KCg/TyZzeao6DCHjTChUAizyRwV9yTDCP8nAGAy99p2TmpKCkOHDGHHwQNsXL+e9Rs2cNmll3aRJoPW1lasVmvU1N+tra2EQiFMJlPUdJiD7UHcaElPKBSKujZ4R1AjWtLj8/mOG4SLxifWnXIAoLm5mffee4/W1tbOKE9HFKu4uJiXXnqJvXv3cv311zNs2DASExMxDIP6+nrWr1/P7Nmz2bZtG7fccgvFxcWI83uzEEKIU7Fr1y7eeecd4nUTA4qKyMzM7N3r/qSe6wsRgOO/ln2k+szp6m00TWPw4MF8+PHHVFVX8corrzBr5sxTnh4rbTohpAxGs1MOABw5coR77rmHI0eOHBflOXbjsjVr1rBmzRpsNlvnyKXf7+9cC6dpGrNnz8Zut/OXv/wlakaghRAi2r3xxhscPXCQYmcMw4cPx2q1yu7/QohewTAMMjMzGVhczL7aWpYsXszOnTspLS2VzBFCiNMNAFgsFrKzs9um6fXQcT82EnTimpBQKERMTIycASGE6CPq6+uZO3cuDsMgPzuboqIiifgLIXoVq9XKsGHD+GTjRnYcPMiChQslACCEEJ8lAJCfn8/8+fO73VU1Uk6nU0b/hRCij/jwww/ZtG496TYbQ4cMITY2VgIAQoheRSlFYWEh+dnZHNy+jbmvvcadd9xBSkqKZI4QQpxOAMBsNpORkSE5J4QQF5BgMMicOXMwvC1kZGQxePDg45Z+CSFEbwkAxMbGMnToELbt28eWjRv54MMP+fy110rmCCEEZ+gpACfyer1UVFRw4MAB3G43uq6TmJhIfn4+ubm5UbfzvxBCRLutW7ey9L33SDBZKB04kPT0dFn7L4TotQYPGswHH3xIZeVhXpkzhyuvuELan0IIcaYDAKFQiMWLF/P3v/+dNWvWUFdX1/msS7vdTnp6OlOmTOHee+9l9OjRUfGsSCGEuBDMnz+f+soqSmLjGDZsGGazWQIAQoheSSlFWloaJQMHsre6mmVLl7J161aGDx8umSOEuOCdsQX4oVCIv//979x8883Mnz+f6upqHA4HWVlZpKWloes6+/fv55lnnuFLX/oSb7/9tuS+EEL0AVVVVbz++uu4gP55ufTv31+m/gshejWz2cyw4cNJdbloqKpi3rx5kilCCMEZnAGwZMkSfvGLX9DY2Mi0adO46aabGD58OLGxsRiGQU1NDR999BHPPvss27Zt44EHHmDgwIEUFBTIWRBCiF5syZIlbN+8mVybnWFDh+FyxWAYEgAQQvReSin69+tHQV4ehzY3MXfuXL52113kZGdL5gghLmhnZAaAz+fj8ccfp66ujq985Su89NJLfO1rX2P06NEMHDiQ0tJSpkyZwoMPPshLL73EuHHj2LhxI3PmzJEzIIQQvZjH4+HFF1/E7PeTk5bGoEGDkMF/IURfCADExMQwYsQIUuwOdm/bJrNPhRDiTAUADhw4wJo1a8jLy+PBBx8kLS2ty/cOGTKEH/zgB1gsFt577z1aW1vlLAghRC+1cuVKVn70EUkWG0MGDyYlJUWm/wsh+kwQoKysjNyMDKzBEC/Nnk1zc7NkjBBCAgCfVW1tLXV1dQwaNCiiKf0jR44kMzOTw4cP43a75SwIIUQvFAqFeOmll/A3NZGRkMDw4cPRdV0yRgjRZwIAiYmJDB0yhGSrlTUrV/Lhhx9KxgghJABwJipYpRSapkW0s3/H++QpAEII0Xtt3bqVRW+/TYLJTOmAAWRnZ8vO/0KIvtXQ1XWGDRtGZmISofYlTR1PqBJCCAkAnKaUlBSSk5PZunUrFRUVPb5//fr1VFZWkpGRQWxsrJwFIYTohV597VVqDh8mLcbFyJEj5RnaQog+xzAMsrKyKCspIdFk5t0lS9i0aZMEAIQQEgD4LPLy8hg1ahQVFRX89re/pb6+vsv3bt++nd///vcEAgGmTJmCw+GQsyCEEL3pxqDrHDp0iLmvzSUWjcL8fAoLC2XtvxCiTzKbzYwcOZL02Fgaqo4y55VXZDaTEOLCrRPPxEEcDgd33XUXy5cv5+mnn+bQoUPcdNNNDBkyhISEBAzDoLq6mpUrV/Lvf/+bjRs3MmjQIG688UY5A0II0ctomsZbb73F7u3b6Wd3MGLECGJiYqTBLITok5RS9O/fn+L+BRxcv47X583j63fdRUJCgmSOEEICAKfr0ksv5Sc/+Qn/8z//wzvvvMN7771HXFwcDocDpRQtLS243W4Mw6CgoICHH36YAQMGyBkQQohe1vlvaGhg9uzZWINB8nLyKCsrk9F/IUSfDgA4HA5GjhzJph072LNrFwsXLuTmm2+WzBFCXHDO2HbOFouFb3/72zz99NNcccUVJCcn4/F4OHLkCJWVlQQCAXJzc7n99tt56aWXuOKKKyT3hRCit90UdJ0PPviAtatXk2y1MWzoUBITEyUAIITo80GAkpIS8rOycIQNXnr5ZWpra2UvACHEBeeMzQCoq6vDbrdzzTXXMHPmTPbt20dFRQVNTU3ouk5ycjKFhYXk5ubKRlJCCNELaZqGz+djzpw5hD0esjKyGDZsGLquy/R/IUSfDwDEx8czfNgwdh48wMbycj744AOZBSCEkADA6XC73dx77700NTVx//33M2PGDAYPHszgwYMlh4UQog/ZunUrHyxfTqLJwqCSEjIzM6XzL4SIGkOHDuWjFSuoOnKIuXPn8oUvfAGbzSYZI4S4YJyRJQC7d+9myZIlLFq0iMOHD0uuCiFEH6SUYv6CBbhra0mPjWXkyJGYzWbJGCFE1NRx6enpDC4rI8lsYeWKFWzcuFEyRgghAYBT5ff7CQQCWCwWsrOzJVeFEKIP2rdvH2+9+SZxmk5xQQH9+vWT0X8hRFQxmUyMGDGC9Lh4vPX1vPbaa7LHiRBCAgCnqqioiFGjRuH3+1myZAnBYFByVggh+piFCxeyf/duUp1ORo4YgcPhkEwRQkQVwzDIy8tjYGEh8bqJhQsXsnPnTskYIcQF44zM7UxJSeE3v/kNP/rRj/j73/9OfX09l19+Ofn5+TgcDnT903GGjs1YMjIy5CwIIcR5VldXx0svv4wjbNAvK5uSkhIZFRNCRCW73c7IUSPZuG0bOysqeP311/nhD38oGSOEkABApJqamnj88ceprq7G4/Hw+OOP8+9//5uYmJguAwDhcJgvf/nL/O53vzvpz4UQQpw7S5cuZWN5OZm2tkf/xcfHSwBACBGVlFIMKB5Av+xsDu/cwSuvvMJtt91Genq6ZI4QQgIAkQiFQqxdu5Zt27ZhNpsxm80YhkFzczPNzc0nbUQahkFjY6OcASGEOM98Ph8vzp6N3tpKZmY2ZWVlkilCiKgOALhcLgYPHsyO/RVs27iJJUuWcNNNN0nmCCEkABCJ2NhY/vKXv9Dc3IymaRH9TscarEjfL4QQ4uxYu3YtHyxbRpLZSsmAASSnpMjovxAi6g0sKSFr5UqqDh/ixRdf5NprryUmJkYyRgghAYCeWK1WJk+eLLkphBB9TDgc5oUXXsBbV0f/pBSGDBmCyWSSjBFCRDWlFMlJSZSVlrK/upqPP/yQjz76iEsuuUQyRwgR1T7z4nvDMHC73dTX19Pa2io5KoQQfcjmzZtZuGABiSYzJcXF5ObloeTRf0KIC6ERrOsMHzGCzMREgk1NPPvsswQCAckYIURUO+0ZAOFwmNWrV/Piiy+yYcMGfD4fSUlJjB8/nhtvvJGSkhLJXSGE6OVmz55N7eHDlMbFM3bsWGw2GzL5XwhxITCUIicnh8FlZRysr+OdRYtYu3YtEydOlMwRQkgA4MTO/1NPPcXPf/5zqqqqjvvZ22+/zYsvvshDDz3EtddeKzkshBC91K5du3j1lVeI13SKCwopKirCMAw0WQIghLhAWMxmRo8ezbqNG9lcU8Nzzz/PuHHjZCmUECJqndYSgA8//JCf/vSnVFVVkZCQwMUXX8yNN97IpEmTcLlc7Nixg/vvv58NGzZIDgshRC/1yiuvcGjvXlKdMYwZMwaHwyGj/0KIC4qhFP369aN0wAASTWYWzp/P5s2bJWOEEBIA6KCU4qWXXqK6upp+/frxr3/9iwULFvDiiy/y5ptv8qc//YmUlBT27t3Lyy+/LDkshBC90KFDh5g9ezYxCgrz8igtKZGd/4UQFx6lsNlsjBkzhjSXi5pDh3nxxRelPhRCSACgQ2NjI5988gkA3/jGN7j22mtxOp1omkZsbCy33norN9xwAwArV67E4/FILgshRC/z+uuvs3PrVlLtDsaMHk1sbKw0eIUQF2gMQFFUVMSAgkLidZ3XXnuN3bt3S8YIISQAAOB2u6mqqsLhcDBq1KhP/dxkMjFlyhR0XefgwYO43W7JZSGE6EVqamp4/vnncYTC9M/OZvDgwdL5F0Jc0AEAp9PJ2DFjSHM6ObBnD6+88opkjBBCAgAAfr+fQCCA2WzG5XKd9D3p6enY7XZaW1vxer2Sy0II0Yu8/fbbbCgvJ8VmZ9TIkSQkJEgAQAhxwQcBSkpKKMzLx6UUs2fP5uDBg5IxQggJAITDYZRSaJqGrp/8161WK5qmYRgG4XBYclkIIXqJpqYmnnnmGUx+P/np6QwbNkwyRQghAQCliI2NZczo0aTZnezcupX5CxZIxgghJABwOhWqEEKI3mHZsmWsWrGCVKuNEcOHk5KSIvW0EEK0t1kHDx5M/+xs7KEwzz/3HDU1NZIxQggJAJwKTdMkl4UQohfwer08/fTTqJYWcpJTGDFiRJczuYQQ4kIMACQkJDBq5EhSbXY2lJfz9ttvS8YIISQAEEmnv+MlhBCid/h4xQreX7qUZIuVYUOGkJmZiWEYkjFCCHGMYcOGkZ+ejtnv59lnn6W5uVkyRQgRNcyn+4vhcJi9e/cSFxd33Dp/k8nE3r17CYfDBINBdu7cSSgUOmkjMzExkezsbDkLQghxlgUCAZ599ll8jY0MTE1n1KhRmEwmCQAIIcQxlFKkpKQwYvhw9lVVsurjj3nvvfe49tprJXOEEBduAEDTNFpaWvjWt76FxWL51M+DwSA+nw+/389tt92GyWT61HtCoRA333wzf/jDH2QKqhBCnGXl5eUseustks0WBpeWkpubK51/IYQ4CV3XGTFiBKvWrKG68jDPPPMMl1xyCU6nUzJHCHFhBgA6NDY2dvtzpRT19fVd/tztdsvmU0IIcZYZhsHzzz+Pu7qGQYlJjBkzBovFIgEAIYToos7MzMxk2JAhHKit4f2lS1mxYgUzZsyQzBFCXHgBgIyMDH7729/i9Xo/0xp/wzAoKSmR0X8hhDjLtmzZwoL580k0mSgZMID+/ftL518IIbphMpkYNWoUn6xbR23NUZ555hkmT56M1WqVzBFCXFgBgISEBG655RbJOSGE6CNenD2b6oMHKYmNZ+yYMdhsNgkACCFENwzDIDc3l0GlpRxqqOedtxexbt06xo0bJ5kjhOjTZPhdCCGi2M6dO3llzhwSNJ3igv4UFxfL0ishhIiAxWJhzJgxpMfG4a6u5umnnyYUCknGCCEkACCEEKJ3eu655zi0ew9pzhjGjR2H0+mUAIAQQkTAMAz69+9P2cCBJJnMzJs7l/LycskYIYQEAIQQQvQ+O3bs4MUXXyRe0xhQUEBpaal0/oUQ4hTYbDbGTxhPRlwcTVVH+de//iWzAIQQEgAQQgjR+zz33HMc2rOHdGcM48ePx+VySQBACCFOgWEYFBUWMaikhCSTidfnzeOTTz6RjBFCSABACCFE77F9+/b20X+dAYWFlJWVSedfCCFOg81mY/z48WTExdNYVcU/ZRaAEEICAEIIIXoLpRTPPvcch/fuJT0mhgnjxxMTEyMBACGEOA2GYVBYWMjg0hKSTGbmz5vH2rVrJWOEEBIAONcN3EOHDvHuu+8yf/58VqxYQUNDw2c65tatW1m6dCnBYFBKhhCiz9q+fTuzX3yROE2npKBQ1v4LIcRnZLPZmDB+Aplx8TQdPco///lPaS8KIfokc1/80OFwmDfffJNnn32WhoYGzGYzwWCQ4uJi7r77boYNG3bKxzx48CC///3v0XWd0aNHY7FYpHQIIfocpRTPPvssh/fto8QVx4QJE4iJicEwDMkcIYQ4TYZhUFBQwJDSUipXrWT+669z+x13MHHCBMkcIUSf0idnAKxatYq//vWvOJ1OHnjgAX7/+99z++23U1FRwaOPPsqRI0dO6Xj79u3jkUceYdu2bZhMJikVQog+a9u2bcyePZsETaeksJASGf0XQogzwmazMWHCBLLi42murpZZAEIICQCcC62trbz22msopbjvvvuYMWMGgwYN4qabbuLWW29l7969LF68OOJjvfvuu/zsZz9j3bp1mM1mKRFCiD5LKcUzzz5LZUUFGTEuxk8YT4zTKQEAIYQ4A/4zC6CMJJOZBa+/zurVqyVjhBASADibDh06xNatWykrK2PQoEGd39c0jcmTJ5OSksLKlSvxeDw9HuvFF1/kf/7nfwgGg9x5552kpKTINFkhRJ+1detWXpo9m3hNp6SoiNISGf0XQogzyWq1Mn78eLLjE3DX1MgsACGEBADOtgMHDuB2uykoKMButx/3s6SkJLKysjh06BB1dXXdHkcphc/n46qrruLhhx/m8ssvv+BmAGiaJleAEFFCKcUzzzxD1f79ZLpcTJgwHucpjv5HZZ0g9VwfOEddfC16/em6UOvagoIChpSVkWyysHDBAlatWiVtOiF1g5TBPqPP9Xhra2sxDIPk5ORP/cxms5GQkMD27dtpbGwkPz+/20J6yy234HA4MJvN1NTUnJGRsnA43OufDRsOh9E0DcMwCAQCff6C1TSNUCiEUiqq0tOhY2Shr4/khsPhzvRomtbn03PsbKFQKITf7z9vn8VkMrF582ZefuklEjSdAQWFFBUWEQwGTzmflVIYhhE1z7hW7edJoTrLYF9nKIVSUZIe7fhryQgbKE1FTZoMw+j7s3BOOEdhw0CLgvpBtV9Hp1Pf6brOmDFj2LR1K5tranjyqScZMWIEFovlvJ3vjvR0lLvzeU86020HpVRUpaejDRRtbXC/34+u630+PcfO6OntbVZN07BYLKdcjvpcAKC1tRUAh8Nx0kawzWYjHA7j8/l6PFZsbOwZ/3w+nw+3293rb3odlVBjYyPRQikVVenpSFNvL0+nmp5Iluf0pfR01EuR1Dln83M88cQTHD1wgIGuOEaMGIECWlpaTv1Y7XVDKEqmtKr2G6RhGPj8vqiqH6ItPUop/AF/VKUpmtKjtTfsA4EAgShZWqQAfyBAIBA41VY3aenplAwYQOXaJt6Yv4DPX/t5Jk6ceF4Dc0opNE3D7/efepp6+X32sz7qW9rgZz9dTU1NUXdP6u1tVl3XSU5OPuVN7PtcAKAjCt1VhEnX9eOioOejsPSlaH+0rQ+OxvXOco4kXd0xmUxs2bKF+a+/ToJuorh/fwoLC9vqos/YMBZCiAviPnvqmYDFYmHUqFFs37mTLfW1PP/CC4wcOfK8zgKQtoOkSdJz4aXpdD5jnwsAWK3WT03PODYDgsEguq5jsVjOy+ez2+29/lGCXq+XQCCAyWTC5XJ1Bk36qo5ot9/vj6r0eL1eNE0jJiam1zQoPkuawuEwHo8Hp9MZVekxDAO73Y7D4TjnaeoY2Z43bx51R45QEhvPxIkTSU5KOq0NTRUQ8PvRTSYsUbAniqJttFIpdV7vC2daOBTGUAYWsyUqFmR3LJ073amMvVHHtPJoSY8yDELtdYrVasUcBY9MVoDf78dsMp32HlADBwxg6KBBVK34mKVLlrB9+3amTZt2XpZQdYxWhsNhrFYrTqczKuq71tZWlFJRlR6/3x9VbfBAIIDP54uq9HTMoHS5XL26zapp2mn1O/tcCy8+Ph7gpNOig8EgLS0tWK3WszK9P6IMNZt7/WaCgUCgc52O3W7v8+t1OhpbgUAgatKjlMLr9QJte1tYrdY+n6ZQKNR5fdpstqhIT8fUMIvF8qlNSc+VDRs28Pq8eSTqJkqLiykrK8NsNp/2zep8B1HPxnkC0NAwm6Jjo1dlGChDi5qNa48tqyaTCV3r+3V4WGsLaph0U3TcY7VwZwDAbDJFRf3QsQbb9BnSY7PZmDBhApu3bmVTXQ3PPvccU6dOPeky1XPVbgiFQphMpvPyGc5Wm1UpFTXpCQaD+Hw+NE2Lqjar3++PmvRA2xJKTdOips16oj53lrKysrBarVRWVn5qhMvr9VJdXU1iYiKJiYmIyBtdQoi+2bl94oknqDl4kAyXiwkTJnymmQhRWSdIPdcHzlEXX4tef7oudIZh0K9fP4YMHkSK2cqbCxawbNkyadMJ6VcICQCcSXl5eWRmZrJ169ZPPepv9+7dHD58mIEDB0oAQAgR9VasWMErc+aQbDIzqKSUgQMHyg1YCCHOIYvFwsQJE8lJSiLQ0MBjjz0WVZv3CiEkAHDepaamMnXqVCoqKpg9ezbNzc0opTh06BDPP/88ADNnzuycGhkMBnnrrbd4/vnnOXLkiJxxIURUaG1t5a9//Sue6hqy4hOYPGkSdrtdAgBCCHEOGYZBfn4+o0aMINVqY+mSJbzxxhuSMUKIXqtPLiC89tpr2bVrF6+++iqbN28mPT2dXbt2UVVVxQ033MDYsWM73xsMBnn55ZfZsWMHBQUFZGVlnfSYHc9UjpbnRAshotvixYt56403SLVYGDF0KIWFhae18Z8QQojPxmQyMXHiRDZv2ULdoYP89a9/ZcaMGaSmpkrmCCEkAHAmpKWl8aMf/Yi33nqLTz75hCNHjpCfn88tt9zC9OnTj9swzWw2M336dMrKykhPT+/ymA6Hg0svvbRzh3IhhOitGhoa+Mtjj6HcHnIzMrnooouwWCwSABBCiPNAKUVGRgbjx43lUG0Na1eu5OWXX+aee+6RzBFCSADgTElJSeHmm2/mi1/8IqFQCKvVetKd0q1WK7feemuPx4uNjeXuu++WEiGE6PXmzZvHx8uXk2mzMXb0aHJycqTzL4QQ55GmaYwZM5b16zdQt3cPjz/+OFdeeSX9+vWTzBFC9Cp9+lkNHY/QcLlcUfGYNCGE6EllZSV/+9vfsPj89M/IZPz48VHz2B0hhOirlFIkJSVx0UUXkeFwsnPzZp5++mnJGCGEBACEEEKcvueef55N5evIcDiYOGECaWlpsvGfEEL0EsOHD6ekoIA4NJ5++mk2bdokmSKEkACAEEKIU7dr1y6eevJJXIbBgPx+jBo1SjJFCCF6CaUUsbGxTJ48mSyXi8p9FTz++OOEQiHJHCGEBACEEEJEzjAMnnzySSp27iQzxsWkiy4iISFBRv+FEKKXBQFKy0oZUlJKksnEnJdfZuXKlZIxQggJAAghhIhceXk5Lzz/PImazqDiYoYMGSKdfyGE6IUBAIfdweTJk8mJT8BdXc1jf/0rra2tkjlCCAkACCGE6FkgEOBvf/87tYcPkx0Xz6RJk4iJiZEAgBBC9EKGYVBYWMjIYcNItVh5+403WLJkiWSMEEICAEIIIXq2fPlyXp87l1SzhWGDBjFw4EB57J8QQvRiFouFiy66iLzkFMLNzfzlL3+hsbFRMkYIIQEAIYQQXfN4PDz22GP46+vJTUxi0qRJ2Gw2yRghhOjFDMMgJyeHsaNHk2618/Hy5cybN08yRgghAQAhhBBde/PNN3lv8WLSrDZGjRhBv379ZPRfCCH6QiNb1xk/fjz9MzOx+v387W9/40hlpWSMEEICAEIIIT6tqqqKP/35z5i8XvJT05g4cSImk0kyRggh+gClFGlpaUwYP54Mu5PN5eU8/e9/S8YIISQAIIQQ4tP+9a9/Ub5iJRk2BxPGjyczM1M2/hNCiD5m9OjRDOjXj3gDHn/8ccrLyyVThBASABBCCPEf69at4/F//IN4pRjQvz/jx49H0zTJGCGE6EOUUiQkJDBt2jSyYmOprtjPH/7wB3ksoBBCAgBCCCHatLa28uijj1K9/wBZsXFMnzaNhIQEGf0XQog+yDAMBg0axIihQ0mzWJg/dy5vvPGGZIwQQgIAQgghYOHChcyfN49Ui4WRw4YyaNAg2fhPCCH6MJvNxrRp0+iXmgaeFh555BEqZUNAIYQEAIQQ4sJ25MgRHnnkEXB76JeaxrSp0+Sxf0II0cd1PBZw0kUXkelwsG71ap588kmZ2SWEkACAEEJcqJRSPPnUU6xbs4YMu4PJF11ETk6OjP4LIUQU0DSNcePGUVpQSJyCJ554grVr10rGCCEkACCEEBeitWvX8uQTTxCnoKywkHHjxsnGf0IIESWUUsTHxzN92jRy4uKoOXiQRx99FK/XK5kjhJAAgBBCXEi8Xi+PPvooNQcPkhvXtvFffHy8TA8VQogoYhgGZWVljB4+gjSLlYXz5zN//nzJGCGEBACEEOJC8vrrr7Nw/nzSLVbGDB9BWVmZTP0X564xoGnouo5J19F1PaKZJ5qmtf1eN68zNYNFa/98eg/H6/jsHe+P5O8rpVBIoE2cO1arlWlTp1KYlo7e0hb8PXTokGSMEOKcMEsWCCHE+XXo0CEeffRRTC1eCnJymTp1KlarVQIA4qzTNI1wOMyRxgYO19XR4vPhcjjITUkhLT4BXde7nIXS1NKCp7UVuupjK7BaLCTHxn6mQICmaTS1tLD90EGcNhslObmYTaZPvccfDLB+7152HD5EOGzQPyODkYVFxDmdJ01DKBzmnXXl1DQ1cdWYsaTIjBtxjhiGQVZWFpMnTaJq/nw2rv2EJ554gp///OfouozNCSEkACCEEFFLKcUTTzzBpk/KKXA4mXzRRWRlZUnnX5yTzn9tcxMLVq1i5Y7tNHjcGEqhaxrJcXFcVDqIK0aPISk29lMdYwW8vmolH2zZhK7pJx1BNwxFcVYW373m81jNp9/cCIZDvPrxR7z1yRoGZufwwPU3YDGZj/ubgWCQlz/8gLfWrsFsMmExmVm07hNGFhbx1VmXkhwXd1wadE1nd+VB5ny4nNLcPGIcDpDOvzjH19/YsWPZsmULDVu38tRTT3H55Zczfvx4yRwhhAQAhBAiWq1atYp/PvUUiZpGaVERY8eORdM0GYkU56Dz38zf33qT9Xv3YDGbKcvLJy81lRafj8379zNv5cccqKnm65ddQcoJHehAMMieyiM0eDxYzGZMJxm1NAwDXyDwmcqyrmms2rGdpRvXo5TCUO2BMa09CtHemd9YsY+3P1lLTkoKt8+YRazDyeurVrBs00Yyk5K4aer042YhBEJBFq9bR9gwuGzUaJw2mwTdxDmllCIuLo7p06dz4PBhth4+wiOPPsq//vlPYmJiJIOEEBIAEEKIaOPxeHjkkUdoPHyE0sQkpk+bRlxcnHRExFkXNgwWrl7F+r17cNhs3DBpCjOGDcNps2MYBnuqKnnqnUWU79nN6ys/5rYZszo7+Zqm0ez1UtvchEnX+crUaQzMzsE4cZaAUjhtNiynOfqvaxoHamt49aOPaA0EuklLmDW7duIPBpk5fARD+vVHKbh67DjK9+ymfPdurhozlkRX20wGXdfZtr+CNbt3MqqomNLcPLnmxHlhGAalpaWMHjGCug8+YNHChcydO5ebb75ZMkcIcdbIQiMhhDhPZs+ezVsLF5JutTJ6xAhKS0ulIyLO/o1f06hqqGflju0ATB8ylCtGj8Fps6OUQtM0BmbncOPkqTisVj7etpWK6qOdG/B1zB5oavES63AwoqCI0ty8T73K8vLpl5be48Z9J6NpGl6/n1c/+pDK+npS4+O7fG8gFOJIfR1mk4nspJTOmQKJLhdJsbE0eNw0trR0blXgCwRYvK4cHY1Zw0dis1ikUIjzxmKxMGXKFPpnZGBp9fH73/+e3bt3S8YIISQAIIQQ0WTTpk387ne/w+EPUJCZxdSpUzGbZVKWOPs0TeNAdTUNHjcxdjsXlQ7CbDIdN1XfUIoB2dnkpaXR5PWy9cD+//w+UNlQhy8YICUunviYGMKG0babvlIYhvGf1+lO/1eKpZs2sGL7NoYVFHBR6aCTp4W2mQbBUBiTrmMxmzp3BtA0HbNuImy0/RzanhKwZX8F5Xt2M3bAAAbkZEvQTZxXHRsCTpkyhSxnDDs3buT3v/89Pp9PMkcIIQEAIYSIBh6Ph9889BAHd+4iO8bFjIsvJjMzU9b9i3OmocVD2DCIczo/tb6f9k61zWIhyRULwP7qakLtHWXDMDhcVwdAdnIyLrsdXyBAg8dDU0sLoXC47RGAp9sw0XR2HD7E6ytXkOByccOkycTHOE8eJwBMuo7L4SAUDuMLBDr/bigcojUQwGo24bRZoX1WwTvryrGazcwcPgKrSYJuoncYN3YswwcPJtVkYfYLLzB37lzJFCHEWSF3PiGEOMdeeOEF5r/2GumWtqn/I0eOlEwR51jP3fOO0XyAOrebUDiMzWwmGA5zuK4WAKfdzlufrGHt7l3UNbsx6ToZiYmMHTCQsQMG4rTZTimwpWkajS0eXv5wOY0tLdw+YxbFWdls3r+/y9+xmM30S09n/d49bD90iGH9CzDrOgdqaqhtbqIgI5NEVywasHHfXjZW7GPqkKEUZWad/gwFIc4gpRROp5NLZs3i4KFDbDhymIceeojRo0dTXFwsGSSEkACAEEL0VRvbp3fa/QGK8/sxc8YMbKfYSRLiM3U2gOTYWEy6TnOLl+qmRlLj4wkfUwY1TaPF56OqsQEAXzBAKBzGbrHgbm2luqkJgOWbN9EaCGAxmTCbTPiDQQ7UVFO+ZzebKiq4ZfrFJLhcEZdvwzB4c+0aNuzbx0Vlg5g2ZGiPv6NrGhMGlvDhls0sWvcJZpOJhJgY3i7/BKUU04cOxWV34Glt5Z115ThsNmYMG47ZZJIAgOg1DMMgLy+Pi6dNo3bePHZu3MRvf/c7/vynP2G32yWDhBASABBCiL7G4/Hwm9/8hoO7djEwNp5ZM2bI1H9x7gMASpGflkZqfDxVDQ28u2E9/dMz2h6Fp1TnE/ZW7NjeOdW/Y02/pmnUe9zUu90A2CwWrhwzliH5/XBYbdQ0N7F88ybW7NrJ+5s3YrdauH3GLMwmU0Qd+fK9e3i7fC1ZyclcN/Gi9hkEPXSclKIgI5PbZ17Cyx8sZ85HH4CC+BgnN06ZyqSyQWgalO/dw9YD+5k1YiQF6Rmo9r8Zak+bxWxGaz+eEOfL2LFj2b1nD01r1/DSiy8ybepUbrrpJskYIYQEAIQQoq957vnnWTBvHhkWK+NGjmTEiBHS+RfnJQCQlpDA5EGDeeWjD/lw6xZ0TWfWiBGkxMbRGgiwdvdO5q9ahd1ixRNuRUND07TONfdD+/Wnxefj6rHjGFFYhKZpoBQFGRkMysvH+e5i3t2wno+2bmFiaRmD8/phqK4329M0jaONjcz58AOCoRDXTZxEfmoahlLoemS7CYwfWEJRZhYHaqoJhw2ykpPJTExE13WavF7eWfcJsU4nFw9tG/1v8ftZtWM7G/btxRcIkJOSwqSyQeSnpct1Kc7btdm2FGAmBw8eZN2RQ51LAQYOHCgZJISQAIAQQvQV69ev5/+1T/0fkN+PGTNmYLVapaMhzgtd07l81BiONjby4dYtvLdxPat37SDW4cAXCNDk9TK8fwGZSUm8sWY1ZpMJk65jGAb5ael853PXtu0JYLF07v7f3oMhxm7nitFjKN+zhwaPm837KxiUl9/1h9HaHuW3cO0a9h2t4rKRo5lUWoamaejtL+2YRwnqetv3jPYO07Gdp5S4OFLj4ztH8lX7jIa1u3ay89Bhrhwzlvy0NPyhIK99/CELVq/CZXcQ53SwYd9eVu/cwd2XX0lZbp7MBBDnhWEY5ObmcfH06dTMncuuzVv47e9+x1/+/GccDodkkBBCAgBCCNHbud1ufvOb33B4924GxiUwa+ZMMjIypPMvzhulFHFOJ3fOvIT+6Rms2LaV6qYmPK2tJLpimTFsBJePGs2idZ8A4LLbO6fxa7TNAjDrOicrwcowSItPICMxkQaPm+rGRsKGga5pXQQjNNbu3sVH27eRFBvLoLx89tdUd14fmqZR29y254AvEGRvVRUOq42UuDjinc7jPsNxwQg6NhVsYfH6chJjXUwbOhSzycSWA/tZVP4JWUnJfPOKK8lISOT9zZt4btl7vLbiY/qlpeOwWpErVJwvY8eOZc+ePTSvWcOc2bOZNnUqt9xyi2SMEEICAEII0ds9+9xzvDF/PhkWG+NGjmT48OHS+Re9QqzTydVjxzFtyFAaWzwYhiLe6SQ+JgalFFX19QCkxid0BgD09qUAXZVhBei6jt1iASBsGG3v7SIAoBTsOnKEYChEU0sLf3tr4afeEwyHAThUV8vDr8wBDe6YOYuZw0YQNrpZWgCs2rmdPZWVfH7CRHKSUwgbBhsr9uH1+5lQUsrA7ByUUkwZPIT3N29i5+FDHKmvoygzS65TcV4opXA4HMycOZMDBw+y/vAhHn74YcaMGUNJSYlkkBDiM9ElC4QQ4uxZt24dj/y//4czEGRATk7n1H8hzifDMGhsaeFoQwOBYJBYh4O8lFT6paWR4HKhaRrNXi/7a6oByE9Lw6TrKKVYuWM7T7+7hLc/WUuovWN+XKdb0wiGQjS3egFIiHFh1rtvbsQ6HKTExpESF0+sw0msw3HMy4mtPZhg0nVcDjuxDgdWU/djGJqmUed2s2T9OlLj45kyeEjbpn/hMEcbGwHISExsyw+liLHZSI6Nxev3U+92H7fsQIjzcY3m5uZy8cXTyYlxsXfrVh7+7W9pbW2VzBFCfCYyA0AIIc6S5uZm/u83v6Fqz14GxMUza+ZM0tNlgzFxfnVMi//bWwupamjgq5dcxqjCouNG0k26ztaDBzhcV0eiK5YB7aPkmqax7dBBFq5eRUZiIiOLishISDxuvbyuaVRUH6WqvgGTrlOclYWm66j247ctBdBQtE3XVyhmDR/BlEGDsdls6NrxwQJd11hUXs7cFR+Rk5zCPVdejdNuI9bu6Hb0H2DF9m1UVFdzw6QpZCUld35OwzA6lzIckzHo7UGOno4rxLkyZvQYdu/eQ/Oa1bz68stMmzqV2267TTJGCHHaZAaAEEKcBUop/v3vf/PW/AVkWK2MGzVKpv6LXlM2Y+x2QKOqoYEPtmymNRDApOvomoZJ1zlUW8uC1asIhcOMKS4mOzm5fUd+neH9C3BYbRxtaOC9DesJhsPH/W5NcxOvr1pJi99HUVYWg/LzO8t92DDYX13NjvZp9m0fCGLtdlLj40mPTyAt4YRXfAIuR9tz0C1mU+f7HN3MpNE0jZqmJt7dsI7MxEQmDxp8XHAjrn3vAI/vP6OpwVCIFp8Pq9mMy+GQ9f+iV1yrDoeDWTNnUpiRidXbysMPP8zmzZslc4QQEgAQQojeZNmyZfzut7/FFQxSnJPLxRdfjKV9GrMQ55vDamX6kKHYLVZWbN/GM+8tYVNFBbsqj/DuhvX8eeHr7DpymP7p6Vwxemzn+n/DMCjLzWNSWRkKeGPtGv615B027NvL7spK3t+8iT8vmM+6PbuJj4nhCxMuIjHG1Tl7oMXn4/FFb/GLF55lzocftI20a3TuKdCxc/9xr/YgwbGdInX8t07qo61bOFRXx8VDh5OekNAZhNB1naLMLDRgU0UFXr8fs8nEgZpqDtbWkJ6QSFZSkgTrRK9gGAY5OTnMuPhiclwuDmzbzs9+/nMaGhokc4QQp0WWAAghxBm2f/9+fvKTn9B85AgliclcdullMvVf9K5OhVKMHTCQo42NzF+1kkXln7B04wZ0XScQDAJQlpvHLdNnkJOSclzZtVos3Dh5Kgr4cOsWFpV/wnsbN2DWdfyhEIZhkJWUzI2TpzCisOi45QEKhS8QIBAK4Q8GTv2DR3AJaZpGVUM9721cT05yCheVDTr+EEoxvKCQsrx81uzayT/efpOclBRWbt9OayDA9RdNJtEVK9er6FVGjx7N/v37afn4Y96ev4A//elP/OQnP8HUHpwTQggJAAghxHng9Xr59a9/TfmKlRTYnUybPJmhQ4dIZ0L0OhaTiWvGjWdAdjZrdu2ksr6eUDhMostFWV4+owqLSHS5juvAd3SgE1wu7ph5CeMGDGT9vr1U1dcTCIdx2e0UZWUxpmgAWcnJx5V7pRR2i5XLRo2m3u0mJyUFXdPoabW9UoqSnFxumDSFlPh4rGZz99eTUqzauYPGlha+PHUaqXFxxwchlCLR5eKrsy7l5Q+Xs2HfXj7ZvYtEl4ubpk5nxrDhaJHFGoQ4J5RS2Gw2Lr30UqqqqvDu2smf//Qnhg4dyuc//3nJICGEBACEEOJ8+ec//8mLzz1HutnMyCFDmDZtGiaTSQIAovd1KmibDj8kvx+D8/IJhEIYSmE1mzvLrNHVo/7a3zeyqJgRBYUEwmEMw8BsMmExmbp8TKDNYmHm8BGdHWylVI89baUUA3NyKMnJ6fbxgx0MpRhRUMjArBzy0tJO+n6lFHlpadx31ec42tiIPxgkKTaWpNhY6fyLXhsESElJ4corr6TuuQY2Vx/lZz/7GQMGDGDQoEGSQUKIiMkeAEIIcYYsW7aMhx56CGcgyMDsHK64/HJcLpd0/kWvZrSvqbeYzdgsFjRNwzCMiMqtYRhtv2syYbNYMOl65zr+7joyPb3ns/yOpmnkp6ZRmpeH02rtsjOvlMJqsZCflsaA7GyS4+I6AyNC9Mpr1TAYMGAAs2bMIDfGxe7NW/jZz35GQ0MDui5NeiGEBACEEOKc0DSN/fv389///d80HT5Cv/gErrj8crKzszHkcWJCnPuOklKdwYmI3nuKAQkhzuf9ZsKECUwYPZosq5U32/cDCLbv3SGEEBIAEEKIs9wY83q9/Pp//5dPVqwgx+Fk+pQpDB06VDoUQgghzqhj9wMYXFBIglL8+U9/YsGCBTILQAghAQAhhDjbnX+lFP/617/a1/1bGD14cOe6fyGEEOJsBAFSU1K46sorKUxJIdTQwE9/9jO2bNki9x4hhAQAhBDirFWgus6KFSt49NFHcfoDlGTncOWVV8q6/95E09CAtv+I3nmOjjtdQpz7OqIPFryO/QAumTGTvJhY9m7ZykMPPST7AQgheiRPARBCiNPs/B88eJDfPPQQnqNHGRifyMyZM0lJTaXV7//U+y0mU0SNsnA4TCiCfQNMuo45gpEeQylCoVCPa6F1TYvoeEopguFwjwEODTCbzegRNKxD4TDhCNJs1vWIRrfChkEoHAal8AfbnjkfCIXQTcHjepunkuZQONxjHmqA2WSKqDMRCoe73GH/uDSbTBHlYdgwIspDk65jiqAcGu1p7rnvpGGJJA9RhEInz8Ngx/nRNEyhEFaz5YzmYcRpNoyIrr3Iy01b2rQe/vaplJtIrr2zUW6IMKBpGAbBCMqNrmlYzObI6psI6i+Ntk0sI8rD9qddKKUIHLNuXp0kDyMpN531zTmuszUNrGYLEyZM4PDhw3hXrGDpO4t58qmn+PGDD8pNWgghAQAhhDiT3G43jzz6KGvXrMGm6ezz+3hm6Xs8v3zZSRqnGl++7DImDBna7aaAuqbz9qqPeeOjD7oNFhiGwcShw/jSJZd22+DVdZ0d+/byxLy5BIOhLkfBlVJkpaRyzw03Yuqhs9fk8fDXV16msra267+twGIxc/cXrmdAfn63aVZKMfudRazavKnbNCuluGryFC4dP6HbDpBJ11mxaSMvLnq7bTf7sEEoGEQZYXRNP66RPTA7hy9Nmdpto1zXNI40NPD0e0to8fm6nEiggDiHgztnXUpyXFy3n9EfDPL8+0vZV1XVbSdN0zSuu2gSw/r177ajq2ka723cwPLNm7o9nqEU4waWcNWYsT0Gt3YePMDs5e932zk0lCI7OZnbZszEabV12WFpKzct/PvdxdS5m9GOG/IHZSgM1fZ37FYbt8+YRV5qardpNgyD11Z8xKaKim7TrIDLRo5iUtmgbo+n6zqrdu7gjTWrjv98J0lzWV4eN0ya0m3nUNc0KhvqefmjD/EFg92UG0VCjIs7Z11KYjczhzTAGwjw3NJ3OVBT022adV3nhslTGJSb12OA5J115Xy8bWuP5WbCwBKmDx3aYwd3w66d/GvB/G7Lv2EoCrKzufu663Haui83tY2NPDbnJeqamrqsb5QCh83GfTfeSF56RrdpDoXD/HvhAjbu2omu6YTb6wVN1z5VcL44cyZTRo7qvs7Wdd5bs5q5y5ah61q35XV06SBuueKKbus5XdfZe/Agf3/1FfyBQLd1dlpiEvfeeCNJcfFceumlVB09im/XLv715JOMHDGCr3zlK3KjFkJIAEAIIc6EUCjEY489xqsvv4wO+JWBv9VL/Z7dXTZkL50woedZ6BpU1dWxaffuHj9DTlo6iu5ntmtAc0sLG3ftOm6k62SaPR5CoRAmi6Xb9wVDIbZXVLC/srLb99msVjytrT2mWSnFgarKiNI8pmxQ574L3XWG6xob2bhrV4/Hs1stEY0gtwb87Dh0CHert9v3JcTE4A8Fu32OvNbeGag4WsX2Qwe774hrGs0tLW0dnx4+Z3VjY4/HA8hLTYus3LS2svXggR5Hh/3BAKGw0TYc2c1nDIRC7K48QlVDQw/nxEprwN/j8RRwqLY2ojSPKR7QnirVbZrr3W62Hez5eLEORwQzYLS2cnP4EN6TzAg6VkpcHIFQDzu4axphw2Df0Sp2HTnSY0fc7fVGVG6qGhoiysP+6ek9V4yaRqPbzYadO3vMn3A4TNgId3ueNcAfCLB1716O1td3ezyn3Y7X13O5MQyDfYcPR1TfTB89usf6SwOqGxrYtLvn+iYlITGimVMer5eNu3fh66HcZKemEgyG2vYDSE3lyiuvoP7Z59hSU80vfvELCgoKGD9+vNywhRASABBCiM/qhRde4He//S3WQJCslBRSMzMx6abu2sWkJyX1/EgypcjLSGfCkKHdzwBQBsV5eT13roHE2DgmDh1KMBTqstunlCIjObltSm4PDVSrxcLIkhKyU9O6mX2gsJgtxLtiepw5rGkaA/Lycbd4e5wBkJue3mMD2lCKjOQUJg4dhqZpbUsqAgGMUAj9mJF+pQwKM7N6nCatgBibnRGFhXh9vq4XqSuFy+HAbrF2e54VYDLplOTk4rTZ0LTuRpEhKTYuoinfOSkpjCoq6vZ4Shn0S0uLKCiTGONidHExYUN1+77MxMS2JQA9fEabxcKQfv3JTk75VLlRhnHcDIAYu73H42lAYWYmgVCw2zSjFBmJiagerj6lFOkJCYwqKu52Vo1SBsVZ2T1ONVcoYux2RhQU4g8Fu732EmJisPUQeEMpzLpOaW4ecc6Y7mf+aFq3swmODwilRlBuFHmpqRBBuUlJSOCiYcO7nwGgDPplZmE2mXsM8jhsNkaXDaKhubnb+sZuteFyOnosN7quU9a/P0opdF0jFAqj6/pJ6h5FZkpKj/WXArLT0pgwdOhxM4xOFngo6dcvgnID8S4XE4YMJRAMdFtuUhISsFktnccfUDyA6dOnU71wIRW7dvH9++/nmaefpqioSG7aQojj76FKdqq64DQ1NdHS0oLFYiE5OTkqNovxer20tLRETXpaW1tpbGxE0zSSkpKwWq19Pk2hUIj6+nri4+Ox2Wx9Nh1LlizhjjvuoP7QIYrSM7jluuspLS7G1sM5Mp20kflpHWtytZ46kZoW0Xp4FcFa7o4RYbPJhLe1FZPJhL2Lc6Taz2VPo8gQ+brmcDhMWKme03wKa7nDhoFSCm9rK+76eoIeD3ab/YQN5zTMeoR5aBhAz6O+JpPe7RTyzushHO6xU9pWbj69ljsYDBA2jLb0HFNuOjrR3XaAtMjy8FTSHNF6+Pbz/Ok0awSDAQLBIJqm4bDZI17LHWmaTVpk156hIlsPH0keho0wPr8fs9nS/rdVD+XGFNE+lZ+l3Jx+Hmqg2ta5u1JTccXFYe0iYGEoRTiC+uZ09t/QIqi/TmnvCKVo8XqxWiwnvcdGWmd37B2hneE0R1Rnm82df1cBzc3NLHzvXd547z1q/D6u+vzn+cc//kFqBAGc3txmVUqRkJAQFW3w5uZmPB5PVLXBW1tb8Xg8JCUlRcVTKHw+Hw0NDWiaRmJiYp9us3bZPpPu8AUc/ZHtloU4JRs2bOD7999PzaFD5CYk8pWvfIUhxQPQQqEuG8THNuoiEelGUahIugFt13lPn+1UPqMGZ/R4HYECcwT1UaTH09s3C1Ttm2lZTSYwm9s6lic0oiOtK60RNmoiPaY5wg5fpMcz6TrmCB7sc6bTHPHx4OSbBWptnUtlGG0bCkbY+T8badY1HZNJP6NptppN6HrPMyR6dbnpmEnT3inVus1DrcdlRKdU35zh+ouOcti+lChgNrcFAE7yN06lvrH1hjpbKcxmM9d87hpagkHeWbqUha/P51fZ2Tz88MM4nU65iQvpVwgJAJwNoVCIUCjUqz9jOBxu2xzLMPD7/VFxwQaDQZRSUZWeDoFAoNtNiPqKcPvu1R3nqi/RdZ1Dhw5x//33s23jRjIcTr543XVMmTqV5iNHCIfDPa6x7xPad8Y2DKN9yUDfT49hGCg6RtVCUfA0QA3DUFGWnv/Ub6FwqH0qtYqKNIXCYXRDRU16OuryqHheo1L/GW2PkvrbMAxiY13ccsstNDQ08HF5OU89+SRZ2dl859vf7gyM9sW2g8/ni5p+QsdeNtHWBvf5fFExoyEQCLRfUopAINCrrxlN07BaradcjiQAcBYKjcfj6dUXdMf0PMMwcLvdUVH5GO3TfaMpPR2Vj7djM6c+3zZRfTI9mqbR1NTEAw88wLJ33yPZYuHySy7hyiuvRNf1zinx4SgI0nScJ8MwepzG25fS0xHwDAaC0ZEm2q6laEpPx7kKBoMRLaHoM+coitLT0ekPhkLRESBsv9cGg8FeP3BzSvdZQ5GSmsodd9xBU1MTG3bv4uGHHiI+Lo4bbrihTwYAoO3JO9FS5qK1Dd7b+z+neo6gbXlDbw0+KaUwmUwkJCSc8tILCQCcYQ6Ho9evFXG73Xi9XsxmMwkJCVERrfP5fHi93qhKT3P7pkexsbFRsQdAOBymsbGxT6VH0zT8fj+/+93vmD9vHnG6zvRJk7nrrruIi4ujqbERFFit1qg4Rx03O91k6nFPgz6THp+vfcMvHZvNFhWdsWAwiGGEsUZLekLBto6ypmGz2qKiDg8bYQKBQNSkxzDCBNo7yVarFavZTF/fQEopRWtrK5b2JQDRkR4fCoXZZGL48OHcc889PPzb37Kz8ggPPfQQxQMGMGvmzD4V4HW73SiliIuLi4p7Ukcb3GQykZiYKG3wXsjv99PU/ujRvtBmPZ19FyQAcBY6DL19A4yO6FzHZ42Gi7UjTdGSnmPTYDKZomJTlY5Rh4712X2j0Wvwz3/9i78+9hj2cJjRQ4dx9913k5ycfNwyDTQtKspdR1q0KEqP1vmv1u0u3X3sFLWVuahJz3+CGJquRcUI0rH32WhKD7St89d0vc+HnpRSnfVd9KTn+Hp83Lhx3PXVr/LHP/+ZAwcP8sMf/IBnn32WwYMH98n2XTTouLdGUxu8Iw3R2AbvS23WU0qjdNkvXPIACCG6N3/+fH71y19CSwsl+f245557yMvLi4o9GaROEL2n4HXxtej1p0v0frMuuYSvfOlLpDmcbFm/nvvvv5/Dhw9LxghpQ1zAJAAghBAn8eGHH/LDH/4Qd3U1eSmp3H333QwZMiRqO/9CCCGir0NmNpv54g03cPXll5NksbB08WJ+/OMf09DQIBkkhAQAhBBCAKxZs4Z77rmHA7t2keGK5fbbbmPSpEnS+RdCCNHnggBOp5M77ryTKRMuIk7TeemFF/jJT35CU1OTZJAQEgAQQogL2/oNG/jmN7/J9o0bSXM4+dKNN3LV1VdHzxp/IYQQFxTDMEhOTuZb93yLMcOH4zQMnnriCX75y1/i8Xgkg4SQAIAQQlyYtmzZwje/+U02fPIJqXYHN1x/PTfddBNWq1XWtgkhhOjTQYC8vDy+973vMWrwEOyhMH997DF+/etf4/V6JYOEkACAEEJcWHbu3Mm3vvUt1q5YQarNxnXXXMNtt92G3W6Xzr8QQoioCAIUFRXx/e9/nxGlpdiCQf74xz/y8MMP99pnnQshJAAghBBn3N69e7nnnnv4ePlyUqxWrr3qau786ldxOp3S+RdCCBFVQYCBAwfy/e9/n6HFA7D4/fz+97/nkUceIRAISAYJIQEAIYSIbgcOHOC+++5j2ZIlJFusXHXZ5dx11124XC7p/AshhIjKIMCgQYP4/ve/z+CCQkzeVn7zm9/w5z//mWAwKBkkhAQAhBAiOh05coTvfOc7vPPmmySZLVw2cyZ333038fHx0vkXQggR1UGAYcOG8d3vfpeSfv3A08KvfvUr/vGPfxAKhSSDhJAAgBBCRJejR4/yve99j4Wvv06iyczMadP41re+RWJiojzuTwghxAURBBg9ejTf/c53GJCTg9Hs5mc//Sn/+te/CIfDkkFCSABACCGiw5EjR/ju977L3FdeIUE3MW3SJO69915SUlKk8y+EEOKCCgKMGzeO73z72xRmZRFobOTBBx7gqaeekuUAQkgAQAgh+r49e/bw9W98g1dnv0ScpjF5/Hi+853vkJ6eLp1/IYQQFxylFBdNmsR9995LQXoGvvp6fviDH/CHP/xBng4gRBQySxYIIS4UGzdu5L777uPj5ctJMluYetFF3HfffWRmZkrnXwghxAUdBJg6dSoAjz32GLsPH+YXP/85De0zAmJjYyWThJAAgBBC9B0ff/wx9953H5vKy0mx2jo3/EtNTZXOvxBCCAFMmzYNp9PJn//8Z7bs3cMjv/89TY2N/OpXvyI5OVkySIgoIEsAhBBRb9GiRdxx551sLi8nw+7g+muu4dvf/rZ0/oUQQohjKKUYN24cP/rRjxhVNghHMMQT//gH3/7Odzh8+LBkkBASABBCiN7LMAxenjOHu+66i/07dpDlcnHzl7/M17/xDeLi4qTzL4QQQpzk3jlkyBAeeOABLho1ilgFL7/wAnfffTd79uyRDBJCAgBCCNH7BINBnnrqKe695x5qDh4kNyGRu+64k1tvuw2n04lSSjJJCCGE6CIIUFRUxA9/9CNmTJ5MosnMWwsXcuedd7Jx40bJICEkACCEEL1Ha2srf/jDH/jBD35AS00NBalp3PPNb/LFG27AarVK518IIYSIIAiQk5PD/fffz5WXXEKq1cbHy5dz+x138NFHH0kGCSEBACGEOP+qqqr44Q9/yC9+/nNUUzMDs3P43ne/y1VXXYXJZJLOvxBCCHEKQYDU1FS+/e1vc/0115Bhd7C1vJxbb7uVF198kWAwKJkkRB8jTwEQQkSN9evX88ADD/De4sW4FJQWFXHvvfcyduxYlFLS+RdCCCFOIwgQFxfH17/xDVyxsbw8Zw5Ve/byrW9+kx07dvDd736XhIQEySgh+giZASCE6PPC4TDz5s3jy1/5Cu8uWkSibmLK+PH85Cc/Ydy4cdLxF0IIIT4DpRROp5PbbruN++69l+KsbIzmZn7zf//HN7/5TdkcUIg+RGYACCH6NI/Hw2N//Su/++1v8dTVkeWM4eorruCWW2+Vx/wJIYQQZzAIYLFYuPrqq8nOzuYf//gH67ZsYc7s2ezdu5eHH36YqVOnommaZJYQvZjMABBC9FkHDhzg29/+Nj//6U/x1dVRlJbOt+6+m2/dc490/oUQQoizEARQSjFq1Ch++tOfcuWsWaTZ7KxbvZpbbrmFp556Cr/fLxklRC8mMwCEEH3SypUr+eEPf8iKDz8kVtMYUlLK17/+dcaNG4emadL5F0IIIc4SwzDIzc3l/vvvJzc3l5dfeYUjhw7xve9+l+07dvDAj35ESkqKZJQQEgAQQojPprW1ldmzZ/M///M/HN63jxSrlakTJ3HX1++if//+GIYha/6FOEW6pkH7tF2NtlE+I4LrSNO046b7aoBxmhtuapqGSdfR9MgmJ564saemaWhAuD34Z9J1VPv7uuzEKIVhGOi63pYHQohTCgK4XC5uu+028nJzefKf/2TXgQP86dFH2bF9O7/61a8YPny4LAkQQgIAQghxenbu3MlDDz3Eyy+9BF4vObFxfP7aa/nKV75CQkKCjPoLcRqd7kAwyP7qag7UVNPi9+FyOOiXlk5uSioWs7nLDrSuaTR7veytquJIQz2hUIjkuDgKMjJJT0hA07TIAgFaWye9qqGBQLgWPYIAgFKQGh9Hoiu2Mx0tPh8rt29j68EDhA2DwsxMJpaUkRwXd9LPEQyFmLvyY2qbm7lh0mRS4xMkeCjEKVJKoes6M2fNIjMri3/84x+sXb+ORQsXsmXLFn7wgx9wyy234HK5JLOEkACAEEJExufzMXfuXP7v//6PbZs3E6frFPfrz80338ysWbOwWCzS+RfiNDr/h+tqefXjjyjfvRuPr7XzZ7EOJ+MGDOSa8RPITEo6ace4fO8e5n78EbsrjxAIhTqPmZ6QwIxhI7h0xEicdntEnWpDKRasWc2aXTu7DQBoaKC1jTzeOHkqV49te8pHayDAc0vf472N64lzOrGaLazYvo21u3Zx9+VXfioNuq6z7dBBFq5exaiiYuKdMdL5F+IzBgIGDx7Mf//3f/Pss8+yaPFiju7bx/e/9z3eX76c//7xjxk8eLDMBhBCAgBCCNG9vXv38tvf/Y7nn3uOoMdDpsPJ1EmTuPnmmykuLu5seAghTq3zX1lfz1/fXMiOQ4dwWG2MLymlf1o6Hl8r5Xv2sGTDOg7X1/KtK64+rgOtaRprd+3kH2+/SYPHQ0pcHCMLi0iJi6eyvp5P9uzixeXLqG1u4pbpM7BbLERyhZp0HYvZjK7pXXxmaA0E8AeD6JqGzWKB9iUI6/bsZtmmDQzIzuarsy7D5bAzf9VK3ly7hjfXrub2mZd0TvHXAF/AzzvryjHpOpeOHIXNYsVQEkQU4rMwDIOMjAzuu+8+hg4ZwnMvvMC2PXt4ZfZsyj/5hB/96Ed86UtfIiYmRjJLCAkACCHE8QKBAAsWLODXv/41mzZswIXGgNw8brzhBi677DJcLpeM+gtxmkLhMPNXrWDHoUPEOpzcevEMJpUNwmaxYCjFjGEjePKdt9m8v4LXVnzEXZdejsVkQtM06pqbefnDD2jweOifnsHXLr2MAVnZmHSdYDjMur17eHLRW7y7YT390tOZNXxk25z9rqi2Eflrxo3n6nHjTxoA0DSN2uYm/rVkMYfrahlfUsq4gSUopQgbBp/s2U0wHGb60OEUZmailOKSEaP4eNs2NuzbR2OLh+TYtqUAmq6zqaKC9Xv3MKlsUNvzzKXzL8QZCwLYbDYuvewyBpaU8Pzzz/Pu0qUc2rWLb993H+8vX86DDzxAaWmpZJYQ54k8BlAI0evs37+fH/zgB3z1zjvZtn49GTY7l02dyq9++Uuuu+46YmJipPMvxOne+DWNI/V1rN29C4CZw0cwbchQLCYT4fZNNPNSU/nipMnE2O2s2bmDvVWV6O2j7Rsq9lJxtAq71cqNk6dQmpMLtG2+p2saY4qKuWzUaELhMEs3bqDZ6+1x2q8GJMfGkpea+ulXWhoZiYms3bWTw3W19EtP50tTphLvdKKUIhgKUdVQj8VkIiMhoXMDwzink0SXiyZvC00tLWjtf8fr8/HOunJsFgszho3AYjJJoRDiDFLtm2v269eP73//+3z/u99laP8CbH4/Lz7zDNdddx3PPvssra2tkllCSABACHEhc7vdPPvss3zhuuv461/+Am4PJVnZfOvrX+eBBx+ktLT0Uzt/CyFOjaZpHKipoamlhViHg3EDBqK375jfwTAM+qdnkJ+ahsfnY+uBA53f31NZiaEU/dLSKc3NO8nTAjSG9isg1uHkQE0Nh2prIlr329ZpaOu8H/tCKT7atoWlmzbisFq5fuIkspOSO/9uxywAXdcxmUyd6eh4qoBhKMLhtoChpuus37eXzfsrmFBSSmFmZkRPOxBCnDrDMLDb7Vx55ZX86le/4upLLiXLGUPFtm1865vf5Otf/zpr164lHA5LZglxDskSACHEeRcMBvnoo4949A9/YMk772C0tpJmszN+zBhuvfVWBg0ahKZpMuovxBnS1NKCoRSxDieJsa5PBdUUYDWbSWjfuftgbQ2h9tkBTS0tAKTGx2O3Wk/yu4pYh4MYu42qBi+H6uoYnN/vtIMVVY0NzF+1En8wyMzhIxhVXHxcp91k0olzOAmGw7T6/W2PMaRtl3+v34fNYsZpt4Gm4Wlt5Z115ThtdmYMG45Z1yUAIMRZ1FE/FBUV8V//9V8MHTqU2S+9xJ6DB5j93HMsXbqUO+64g6997Wvk5+dLhgkhAQAhRLQ3DHbs2MFf//pXXnzxRZpqa4kzmSjs159rrrmGyy67rPPxfjLqL8SZo+ta5zXY1bXVMb0eoN7tJhQOY9b1zl36O0bnOWF0X6Ntj4Fwe8Cu3u3mdK9eQyneXb+e/dXVpMUncPmoMVhN5uM67VazhcLMTMr37Gbz/gqG9S/AbDKxp7KSmuZmSnJySXLFogHle3az7eABLhs5mn5p6dL5F+IcMQwDp9PJtddey6BBg5gzZw7vf/ABRw8f4aH/+z8WLFjAvffey/XXX09CQoJkmBASABBCRJvq6mqeffZZ/vGPf7B3925igMLkFGbNmME1115Lv379OhsNQogzRwEpcfGYTSYaWzxU1teTFp9A+JjOsKZpNHu9VDbUA+APBgmFw9gsFlLi4gA4XFeLu7WVBNfxMwg0TaOyoZ5mrxeA1oD/tAJ4uqZRUX2U5Vs2ATB1yBDyUlM/1WnXgAklpXy0dSuL160jbBjEO2NYumkDZl1n1vARxNjtNLW08M66T4h3xjB96LC25QEdTzZozxchxFmse9qvtwEDBnD//fczZcoUXnnlFco3bGDHhg3cd++9vPrqq3zve99j2rRpWK1WyTQhJAAghOirNE3DbDbT0tLCggUL+MMf/sDqVaswh0JkO2MYP3Ys119/PUOHDsVisUjHX4iz2Ajvl5ZGRkIih+pqWVT+Cf3S04l3xrQ10DWNsGGwfMsmKuvbAgCGMjo3+SvLzWNR+SccrKlh6aaNXDNuPCaTCZTqDBy8u34d/mAQgHD49GbwGEqxfMtmapubyUxMYsqgIeia9qkAgKEUeSmpfO2Sy3j5o+UsWb8epRSp8fHcPnMWYwcMRAFrdu1k5+EjfG7cOPJSU1Ht9ZI/GGzbudxiOS4oIIQ4OzqeFDB58mSGDBnCu0uWMO/119mxbx9L3n6bVatWcf0Xv8i999xDXl5e56wjIYQEAIQQfYjb7WbhwoXMnj2bD5cvJ9DSQqLFyuDBQ7juC19g0uTJnY/2k86/EGc3AJASF8/0ocN44f2lrN65A4Vi1vCRpCUk4PX5WbVzO0vWryPW6aTR40HTtM7Od1lePiMKClm5YztzV3yEu9XL+IGluBx2apuaWby+nE37K4h1OHG3ejuXG5wKTdM42tDA6p07ABg7cCAZiYldds4VMLR/f/pnpFNZX0/YMEhLSCDZFQuaRoPHzTvry0mOjWXakKGYdJ1mr5elmzawfu9e/MEg2cnJTB86jIHZOVJIhDgH9ZBSivj4eL5w3XWMHTeO+fPns+iddzhUU82/Hn+cRW+/zVVXX81NX/kK48aNaws0CiEkACCE6N2amppYvHgxTz31FB8sX07Q6yVWN1Gck8uVV17J5ZdfTnp6eudjg4QQZ5+macwaMZLa5maWbFjHqh07WLd3L06rlUAohD8YZEJJKSlxccxbuQKLydy2w75SOG02vjx1Gh6fjy0H9jN/1UqWrF+H1WzG6/djMpm4asxY9lZV8cnuXVjNlpOO3Pf0+TZW7KOqoYFYh4PxA0rQNR1DGd12KGIdTuKyY0D7TwdDB1bu2M6+qiqumziJ7OQUWgMBXly+jMXryklLSCDRFcuK7dtYv28vd19+JSMKCmXfESHOUSAAIDc3l2984xtMmjSJV199lY9XrqT2wEEef+wxXp83j+uvv55bb7uNoUOGYDZL90UICQAIIXqdhoYGFi1axD//+U8++vBDgq2txJlMFGfnMG3KFC67/HIKCwtld38hzlOj22mzcdO06RRmZvLRti1U1TcQMsJkJiUzvqSE6UOGMX/VSgBcDgfm9mm4Simyk1O476rPsXTTBtbt3UOD24Ou6xRnZ3Px0OGU5ebxu9fmABDndLQ9BvAUOtT+YJB1e/eglKI4K5u8tLRuO//HpkuhOhf0a5pGrbuZJevXkZaQwJTBgzHpOtsOHmDZpo0UZGRy71VXkxqfwEdbt/DkO2/z+sqPGZCVTYzNJvsCCHGOGO2P8hw2bBjFxcWsXr2aN998k/L166k9fIS//PGPzJkzh2uvvZbbb7+d4cOHY7FYJOOEkACAEOJ8q6ur46233uKf//wnK1esIOTzEWcyMzAnl4kTJnDFFVdQXFyMyWSS3f2FOM8cNhvThw5jQkkp7tZWlDKIsduJsdkJGQaV9XUApMW3bRrYQaPtMYDXXzSZy0eNwev3oWs6sU4HdouV6sZGapub0TWN1PiEU/pMuqZR09TI3qpKAIb1L8ButZ52oPDjbVs5UFPDlydPJSMxibBhsKmiAn8wyLiBJeSlpmEoxdgBA3lnXTl7q6o4UlfHgOxsqZ+EOA+BAIfDwbRp0xgzZgwrVqzg7bffZsOmTVQfqeQff/0rr736Kp+75hruuOMORowYgc1mk4wTQgIAQohzKRQKsWfPHhYsXMhrr77K+vJyDL+fOJOZ/Px+XDx9OhdffDFJSUnExcXJqL8Q51nYMKhzN9MaCJAen4DDZsPWMZqmFApobPGwv6YagH7p6Zh0nbBh4AsEqPe4UQoyExPbAgZ2e/uvtnWYD9bWUO92ExcTQ3Zy8il1pDVNo6K6mnqPB5fDwYDs7NPaol/TNKqbGnl3w3qyk5KZNGgQGhAMh6lpbgIgtf2JBkopHDYriS4XuyuP0NDiOeVZC0KIM6Nj+Y7T6WTChAkMHTqUXbt28dZbb7Fm7Vqqq6v55+OPM2/uXKbPmMENX/wiU6ZMISUlRTJPCAkACCHOpubmZlatXs0rc+awaNEiDh88iMUwiDVb6N+/gIsvvpiZM2eSl5eHUoqmpiYMw5CNfIQ4jzRNo7Glhb8snE9lfT1fv+wKxg8sIXxMUM6kaWyqqKCyvp6UuHgGZuW0rafXdXYcPsQ/3n6TGLudH37hi6QnJBz3OL1gOMyqnTsIhEIMzcgkPeH4zft0TUPTtLZ9P07SwTaUYl9VJYZhkBIXR1p8Qtu0/tPw4ZYtHKmv55bpM0iNTzju72lwwu7iGmha52cQQpz/QIBhGNjtdi666CJGjhzJhg0beOutt1i9Zg3VtXW8Nns2C+bNY8iwYXzhC1/g6quvpri4WPYJEEICAEKIM8UwDA4cOMCiRYuY88orrFm1iha3GwcamU4nAwoLmTJ5MlOmTiUnJwdd1zt39pfptEL0jkZ1rMOBy+6gsaWF9zdvYlBePrEOR9vPgd2VR1iwaiVhw2BCSQmZSUkYSnVO/QfYX13Nx9u3cs24CZjaO9Jhw+DDrVtYsW0bNouFqUOGYrdYOjvUoXCYPVWVeP1+EmJi6Jee0dYT7wxOQDAU4mBtLQA5ySm47PZTrjs0TaOyvp6lGzeQl5rKxNLS/wQ3dJ34mBgU0OT1dgYDAsEgnlYvNouFOIdD1v8L0cvaHna7nfHjxzN8+HA2b97Mu+++y5o1azh09CgbVq3ikzVreOyxx5h1ySV88frrGT9+PPHt9ZUQQgIAQohT7DA0NDRQXl7Om2++yZtvvsm+PXvQQiFidBMDU9MYMXw406ZNY/jw4SQmJnZO85ep/kL0PnaLhRnDhrPt4AHW7trJ42+/yYTSMuwWK/urj7J00wYO1dZSmpPL5aPGoOt657TczMQkpg4ewqsff8S8lSvwtPoYlJdP2AizeX8F72/ejDfg57KRoxhVWPSf2QGahtfv599LFrO78ggTSkr5zueuPbHrTmvAR11zM7QHG8wm0ymPyCulWL5lE0ebGrlz5iWkxMZ1HkPXdQZmZbNI+4T1e/cwuWwQsU4nuyuPcKCmhuzkZLKSkiVgKUQvbIsopbBarYwePZrhw4dz4MABVqxYwQcffMCO3btpOHCQp598kjmzZzNqzBiuufZaLp4+neLiYuztS5WEkACAEEJ0obGxkY0bN7LonXd4d8kStm3ZgtfjwQak2O0UFBRy0cSJTJo8mcLCQux2e+dIvzSehei9DKUYUVDIl6dO59WPP+SjbVtZsX0bmqYRNgwsJjNjigfwlanTSUtIOO561nWdK8eMxdPqY9nmjcxb+TELVq/snNLvcjj43NjxXDthIlaL5bjfVShCRhjguCUH/+n+g9cfwBvwA5Dkim2bFnAK9YmuaRyoqWHZxo0UpGcwfmDJcaP5SimG9S9gRGEh6/fu4Y8LXicrMYnyPbsJGwaXjxpDgssldZgQvbkOa39qQEFBAQUFBVxxxRVs2LCBZcuWUb5uHVV1tXy8dCkfvv8+qenpjBk3jssvu4ypU6dSUFCA1WqVTBQSABBCCAC3283mzZtZvHgxixcvZvOmTXiam7EoRYzJTHZKKmWlpUydOpXRo0eTmpraOc0/HA5LBgrRR+i6zqwRIynOymbd3t0cqasjZBgkuVyU5uYxKC+fmJNMv29bQuDk1otnMKq4mM0VFdS5m9E1nYzERIb2709RZhZmk+n4zr9SOKw2rpswiSZvCxmJieiaxrFhAAW47HZunDQVfzDA4Px+p9wRN5Tikz27CBlhLhk5ikSX67gZBEopYp1O7px5CXNXfszGffvYV1VJanwC1100iUllg6TzL0QfCgQAJCQkMH36dCZMmMC+ffv48IMP+HjFCioOHKCxqoo3583jzQULyMjKYvyECVx+2WVMnjyZ/Px8eZyguOBoSu5yF5ympiZaWlqwWCwkJyefsAlS3+T1emlpaYma9LS2ttLY2IimaSQlJZ3VSHU4HKampoYtW7bw0UcfsWzZMjZu2EBjQwNmpYjRTaQkJDCgqIjRo0czatQo+vXrR0xMzCmt6w+HwzQ3N+NyuaLiZhsOh2lqbKT+4CG0cBh7FDyGSCmFt7UVk8kUFenpqBua6+oIelqiZvpnMBggbBjYbWcmPXr7xneh9uvZbDK1bdJnGD2ug+9YGhAKh9E0DXN7/dvdlP0TNwEMBoMEggE0TcNus6Premc9fjqziZRS1DQ14Q8FSU9IxNrFZmCaphEKh2nwuAkEQ8THxOByOM5I5z9shPH7/Z3p6fudrDD+YBBXaiquuDisUVCHK6Vo8XqxWixRMRrckR5nSjKJGRm4YmKior5raWlBKYXL5Yq8Tmuvl+rq6ti+bRurV69m/YYNHDh0iEZfK61KoZvNZOfmMmHCBKZNm8bYsWMpKCggNjb2rKanubkZj8cTVW3w1tZWPB4PSUlJUbHJs8/no6GhAU3TSExMjMrHTMoMACEuQC0tLVRUVLBmzRo++OAD1qxZw/59+/B6PJgBp67TPz6BooICRo8axajRoykoKOi8ASulZLRfiCjRuTZea9sF/1Q63R2jb6YIOv7H/b0e3vdZ9g7RNI30xES0Hj6PUgqTrpMan4BG2+wDGRMRIgrqtPb6Izk5mclTpjBh4kRqa2vZunUrq1evZsOGDRyqrKR2XwVz9u3jlZdeIjE5mdKyMiZOnMikSZMYMmQIGRkZ8jQBEZWkVAtxAfD5fBw9epTt27ezcuVKPvzoI7Zu3kxtTQ3hUAgbEGM2k5mUTH5eHiOGD2f0mDEUFRURGxv7n9E62dBPCNEHKBX5gwNP5b1CiL5VD4TbZyelpaWRkZHB5MmTqa6uZvPmzaxevZpt27ZRefQoTTW1rFi2jA+WLeOPTie5eXmMGjWKyZMnM3LkSPr3709iYqI8xlhIAEAI0TtveB6Ph8OHD7N161bKy8tZt24dO3bs4GhlJT6vFxNg1zTSHQ4ysnMoLi5m6JAhlJaVkZubS1xcXOe6ftnQTwghhBDREAzQdZ2srCyys7OZPn06dXV17Nmzh02bNrFlyxb27d9PXWMDh7ZvZ8/27cx58UViExLIy89n0OBBjBo1muHDhlFcXExqaqpsJigkACCEOPdaW1upr6/n4MGD7Nixg08++YQNGzawZ88e6mpqCAYCmAAbGjEWCznJKeTn5lI2aBBDhgyhqKjouJtYR4dfpvgLIYQQItp0Ll0ymUhPTyczM5OJEyfi8Xg4cuQI27ZtY+PGjezcuZPKo0dxNzaxo34dm9atY/Zzz+N0ucjMyqK0tJQRI0YwfPhwCgsLycjIID4+XpYNCAkAnIuL2DAMTO2bFp2OY6OC0bAZh4gOHeWxo1wbhoHX66Wmpob9+/ezc+dOtmzZws6dO9m3dy811TV4mpswDAMzYNM0kmx2ktIzyM7KoqCggJKSEoqKisjJziY2NhbdZEIZxnHrZDv+XiSj/lr7Zl6RXGOR0AAtkmuwffOwSPPxVBoEkaZZKdV+jjQ0Q2v7O8c97uwU8jCSeuoU8lGPsC6MNA8j/owRTqU+02nWjim3J/6+puudm851nLczleZTOSdnPA/P02c8G2kmwlv3uSo3ZyLNStPQj3n1mnJznuqbs5Hmz1p/qfbP3nGvjXS2W1+oszvSFVG5OcP3+oivvQjv9afSZoqozX/C5qbHDni4XC4GDhxISUkJV111FfX19VRUVLBr1y527dxJxf79HK2ppsnjoXLnTvbv2MEb8+ZhttlISEwkMyuLouJiSktKKCsro7CwkJycHBISEjo3ktN1/TP1WYS4oAMAHo+HDz74gE8++YSWlhbS09OZNGkSw4cPjzjyppRi+/btLF26lIMHD2K32xk8eDDTpk0jOTlZSoc4L4LBIE1NTVRUVFBdXU1TUxMHDhxg79697Nmzh/3791NbW0tLSwsohRmwAzaTmSxnDEmJieTm5FBcVETxgAH069ePtLQ0nDEx1NXX0+rzUdPQQHV9fZefISUpidiYmB4blA2NjTQ2N/d4ncW5XCTEx/eYdq/PR3VtbbcNCAXYLBbS09I6Nx7rSjgc5lBlJaFQqMfGTXpqakQ731fX1tLi9WIYBs3NzTRVHUULh7HZrMe1WRJcLmIj2IXZ7fXS6O4pD8Fhs5EcH99joyEYClHT0IChjG5bpiaTidTERMw9rGdUSlHdUI8/EKT7P62RFBeHM4Kd9hvdbppbWro9nlIQ63SSEMGOzF6/n7qmpvbScfwxfD4fLY2NBL1eXE4nSbFxPTa2w4ZBnbuZcLj7oJCmayS5YrvcZf5Y9W43rYFAjx2HOKeTmB7zUMPj81HX4u32eApwWK0kRrB7djAUos7t7rHxbjLpJMfG9XjtKaWobW4mGMG1F2OzEknTvamlBY/P12OaXXY7cU5nz+UmEKCxxUN3FZ0CbGYzSe17ofRYbpqbCbcPTASCAaxWa3tw8NiOikZSbCwWk7nHDmS9uxlfINhjuYmPicEZQf3lbm3F7fX2+HedNisJMT2XG38wQG1jY/d1tgKL2UxqYmKP5cYwDGoaGwgEQ93WDxoayQkJ2COYfl3f1ISntfVTx2t76okPq8WMxWIh1hlDfATXSktrK/XNzXRXcJQCu9VKSkJCZHV2YwNG2Og2GKbrOqkJiVh6qG+UgqrqarTa2h7/9pm+18e6XKQkJZ2Rez3Qfl6cPXbuw+EwhysrI6pvurvXHxvAqG9spMXnIz0ri7TMTMaMH09TUxOHDx9m75497GgPCAT8fsLhMN6jR9leVcWm8nJeA0xmM3EJCaSlp1NQUND5Sk9PJzExkczMTGw2GzExMTL4KCQAEAm3281f/vIX3nnnHdLT00lISGDTpk28/fbb3HnnnVx//fURXUzvv/8+f/zjH2ltbSU/P5+WlhaWLl3Kxx9/zH/913+RmZkpJUSccYZh4Pf78Xq9NDQ0UFdXR3V1NQcPHmTfvn1UVFRQUVFBVVUVjY2NeNs7m59uALW9bDY7V0+bxtBBg8jNzSU7O5vk5GQcDsdxoxo+v5///eMfWLNhAybd1GXTT9N1Hrz3Pq6cObPbZQC6rvPqm2/wr5deQtf0bm7MIa657DLu/8bd3TZGTLrOpm3b+O+HHsIf8NNVS8gwDAYUFvD/fv4LkhISumxAaJpGk9vND//nfzhw5HCXn1GhiHE4eOi//5tRQ4YS7mYmgGEY/O2Zp1m0bBkmXccwFEY41Pn3OlrPhjK4+fIruO7iGd0eT9d1VmzcwBPz5rYPV3fduBlTNoj/uvmWbgOcuqZzuLqaXz35BG5vS5f5rZQiNSGRn37tLrJTU7scVdIAXzDIn2bPZnvFvq7rVaUwmUzcd+OXmDx8RLdp1jSN+cvf5/X3l3VbT4fDYa64aBJ3Xfv57h8pp+ts2bOHR154ri3Qc2yaFe2bV4YxwgYFmZncd/XncNnsXTZ4NU2j2evlj/Nfp7a5qesyq8Bps3HvVZ+jKDOz289oGAYvf7icT3bv6v7epBRfnDSFWSNGdjsjRdc0Vu/cyetrVvVY14wqKuauSy7r9u/qmsahulr+vGA+Xr+/y3KolCItPoHvfu5aUuLju772gNZgkMcXvcX+o0fR9K7z0Gw2cfv0GQzKy+uxM/DWJ2t4d8MGdF3rNs2XjhzFFy+a3GO52XpgP/9c8k4P17yiOCuL+676XLedTU3TqPe4efT1udR73GhoKNSny48Cl8PBt6/+HP3S0nssNy+8v4yN+/Z2e/404MtTpjFt6LAey82HWzczb8XHdNe7NgyDcQNLuHPWpd0GHnRdZ8+hwzz073/S6vd3ea0YhkFOejo/++pdJPdQZ3t9Pn77zNPsr6zsMs1KKWwWK/91yy2MKint9vwBvLTkHRavWvXp4EN7Xd0xM+j6GTP5ymWXd5uHJl1nzdYt/O2VORiG6qbONhhaXMwDt9+BrZtHJuqaRnV9Pb984nEa3M3d1tmJsXH85Ktfo18P9U0oFOL//fNJ1m/Z0u29Xtd1fnjPPVw965Ie7/WvvfUm/5w9u9t7fSgc4upZl/Djb3+722vZpOts3r6d/37oN23lppt7fVH//vz6Bz8gMSGh22uvye3mR//7v1QcOtjtvd7pcPCbB3/MmGHDui03Sin+/swzvLX0vf/kofafmRBaez67vS18/tLLmDZ2LPsqKthfUcHhI0eorqmh2eOhpb6B/bW17N6yhSBgdAQ1YmNJSkoiNzeXfv360b9/f/Lz88nKyiIlJYXk5GTi4+Ox2+1YLBaZLSAkAADwxhtv8Pbbb3PppZdy5513kpCQwO7du/nDH/7A008/zYABAxg+fHi3xzh48CCPP/44JpOJX/ziFwwbNgyv18srr7zCCy+8wIsvvsh3vvMd2e1TREwpRSgUIhgM4vP5aG5ubhshbmqitraWyspKDh8+zJEjR6isrOzs4Dc1NdHS0kIoFDqlzfZU+8vhiuGmm29m0MCBnZv2dfzbcVPXaJv2VltfT3VtbbfH1TQNb2trRFMcmz0ejtbU9Pi+nkYO2v8w/kCAyppq/H5/t29NTIiPaMq+YRhU19X2+BljHA78/gBEcJNtaGrqMQ8BPK2tPSeZ9pGQbmZjdOahx93zFF+trRFW29hAc0tLj+c5FME+D0op6pubqG1s7PZ9Jl3HF2EeerzeHo/X8b5I8tAXDFDT0NDj6E9ji6ftGtO0bqeWGoZBg8dNvdvd7fF8ATvBcKjH4ymg2eulwePpMT1tDeKeE90a8FMXwXXl9nojmhoeCoepcze3BQC6YTGZeuxwdZSbRo+bek/3eWg2mfCHgp2P4evpmmro4Xht7/NFVG78wWDniH13mrwtbZ35Hj5jpOUmEApGfO01t7REVm4imF0C7bNl3O7I6q+Oa6UbwWCQmoZGWv3d57nTbo+o3BhKUd/c3GP9YLNY8AeCEd0rmz0t1EVY30SShz6/n+qGhh7vQY1udwRT2Nvq4drGhvZZBXQbFA2FwxHUN4q6hobI7vXeM32vbzqFe30NPl/35SY+Li6ycmMY1ERwr3c6HPgDkd2n6psaI7rXp6anM+uSSzrbfx6Ph/r6eo4cOcKBAwfYX1HBkSNH2HHwIHtrqgkGg9TX11NfX8/u3buPC7RYrVbi4uKIj48nOTmZzMxMsrKyOjct7Jg9EB8fT1xcHLGxsVitVsxms/RXRHQHABoaGli0aBFpaWnccsstZGRkADB48GBuv/12fvazn7F48WKGDRvWbcTsww8/5MCBA3zzm99k/PjxADgcDm666Sa2bNnCsmXLuPbaaykoKJBS0gdEuj7tVDrz4XAYwzAIh8MEAgG8Xi8tLS20tLTg8XhobGykoaGBhoYG6uvrO0fya2pqqK+vx+1243a78Xg8BAIBwuHwSTv4mqZhNptxuVwkJSWRnp5OVlYWaSkp0OrrtmJXSuGKcZKcmNhtAEEBZrOZL1xxJaOHD+8mit82YlVaXNzjWkOlFBNGjkLX9G7z3jAMhpSW9JznhkFeTjbfuvU2QuEQXQ2tKGWQmpyC09HzVHOnw8Gt13+RhqauR3IVCqvFSk5mJqqHhoamaVw2bTr5OTltHU+fj9amZjTDwGw2d3YOlFIMLS7uMaBjKEVJv37cftXV3XYslFLkZWT0OLNJKUVSXDxfuvSytkZON1wOB/EuV/d/t73Dd+WkyYwuLev2POuaRv/s7B7zEKUYXTYIm9Xa7fGUUpT1L+ixU2goRV56BrdcceVJG4rBYJBAayshv5/0xCSsZkv350UpHDYbV44e2zbdXOs6c6wWMylxcT2eZ13TuKi0jLzU1O7rKQUDsnMiuvaKs7L54kWTu50yrJQiNyW1xyUPCkiOjePa8RPbgihdzgCAWIejbYlCDwEPi9nMrBEjqXe7u5/5o+lkJ6dEtLZ5ZGERLoejx3JTkpMbUbnJTU3l+osmdfu3lVKkxsdjNpl7PGaM3cFVY8bh9fvbAsLhEGaz+fjPq9o6r4mu2B6Pp+s6kwcNpjAzs8f7W1FmVs/lBijNzYuo3OSnpff4N5VSpCcnc9Pll3cffFOK+NhYYhyOHo9ns1q4Zuo06rupszsCRzlpaRGVm4uGDe9yKn4gGMTUvgfA8AEDezyeoRSFubncduVVPZabrNTUHjtlCkVCrIsbZ13SY/DNabOTGBfb8zId3cTnLrmU8aNG9XivLxswIKL6ZvzIUWhoPd7rBw0c2OPnU4ZBXnY237z11vbleV3f61OSknE6HD0e0+lwcPN111Pf2NjDvd5CblZWz/cp4NJp08jLyu72vquUYsywYYSCQYz2mXAJCQkkJiZSVFTUOTDk9/vZsGULqzdsIBAIoJnNtCqDyspKjhw5Qk1NDc3NzQQCAaqrq6murmbXrl2fqg/MZjMOh4PY2FhcLhfx8fGkpKSQmppKamoqSUlJJCUlkZiYSGJiInFxccTExHS+HA5HZ5vSZDKd8aUHMlOhD/WbVB97vtf69eu5//77mTRpEj/96U+Pmw5bV1fHd77zHQD+9Kc/kdTFOqRgMMhPfvIT1q9fz6OPPkpZWdlxP3/66ad58skn+eEPf8jVV18ddSe9Y8TZarWSlJQUFWuPPB4PHo+HxMRENE3DMIzOaGwwGCQQCOD3+wkEAgQCgbaOW2srLS0teL1ePB4Pbreb5ubmzo77sV97PJ7Ozn9LSwutra0Eg0HC4XCPu+V3VNp2u534+HgSExNJTU0lOzu7M6qbnZ1NZmZmZ0Wu6zqNdXXU7tpNjN2BxWrptnFlnLCpTXefJZIKumMGQSSVfaQbDQWDQZqbm3G5XFi6mBJ5KseLdNO+M53mjuOFw2GaGhupO3AQPRz+1JpC4xQ2V9Ij3FzpVDY+jGQztxPzsG1NbCsmk+m49ERyvLORZuMUN6jSTpJGr9eLu66OgMeDzWY/tU25IjkvkV57kR4vgjQHgwEMQ+Gw23s+ZoTl5qxswBlhmgMBP/5AAE3TsNvsXdYBZ3wjskgDx6eRZiMcxhfwnzw97VPPOcfl5rOk2TDC+INBXKmpuOLisLbX4V1de5HUN5+1/oo0zXoXaVZK4fF6sVos2KzWM19nn4U0Gz1MW2/xenGmJJOcmUmsy9Vj2Tkb9/pI0nwqx3O3703i6mF/hrN1rz8Tx9OO2YjW4/FgcjpJKeiPKzYWt9tNTU0N1dXVHDlypHOm6OHDh6msrKSuro7Gxkaam5s7253d/T1N0zCZTJjNZqxWKzExMTidzs4gQGxsLLGxsZ0zCE78+tj3OxwOrFYrNpsNq9Xa+bJYLFgsls7NDP1+Py0tLaSkpETFExB8Ph+N7bOGEhMTOzdwjCZ97iwdPnwYv99Pbm7upwqZy+UiPT2dLVu2UFdX12UAwOPxUFVVRUJCAmlpaZ/6eU5ODgAHDhyI2siPYRidneFj14l39zr2mfDHfu/Eaecnfu/YV8eoesfXHZ30YzvrJ/v/Ezvwx/6/3+/vDAB0rK/3+Xz4/f7jfvfYVyAQOO7zdPx7KlFOk8mExWIhLi6us7I8NhqbkpJCWloaqamppKWlkZKS0hmZdblcWK3WLkcHWn2+tgZYOEzYCKOH9TN23s+kM/24wLPx+MEzneaO43UEfwzDQBlGRNMUu0zzGY7Dnq00n9HzfAbT3F1HwGg/N4ahTmmJjaHUKe1Afa6Pp1Bn9JiqPZhxRstNhJ8v0iRE2uE7E+Xms6Y5rP5z3+tV5aYv5OE5KofHtlFOpf7uE3W2Uqd9T5J7/Zk/3rHXiREOg9G294TdbsfpdJKenv6p94dCIXw+H01NTZ37RdXU1HQGCzq+rq2tpa6urnOgyuv1drZ/O5ajRurYmQEdg1c2m+1TL4vF0hkY6NinwGw2Ex8f/6mgwYnBg2MDCB2/d+LXZrO5c6ZCx2fpeHrCsf/fEUg68d+Or4/9/omvY79/YpAmEAgQDAaj+nGOfS5lje27zcafZEdxq9WKy+UiEAjg7maNm8/nw+12k5iY2Pns82PFxcW1jcA2NmIYximNkHd0PnuzcDjM8uXLeeKJJzCZTBF1+k/892Sd+65eJ3ayOztN3QQXTvb3zrRjK4qTVVgOh6MzYtox1So+Pp6EhITOKV4JCQmdU7E6oqfHVm4nlp2OtHQENrpaEtA2nb/t/a2trQT8flQfr2yUUijDiKr0dJTPUCCAYYTp8xSEQyGMcDhq0hMKh9s6ZOFQr6+bI6q3gLDRNgLkU9GSHqNzJkUg4G/fQK9vp8lorx8C7Zvj9f30GJ1BokDATygUjIr6IRwOE2hfrhEt6UFBqH0tejQIBYMoiJr0BINB7LQFaJrd7i5nfnR0TDvanScuSe5YnnpsR79jxqrb7aa+vp6GhobOvaaamppobm4+bjarz+c7bpAsEAgQCoU6l5Sezbb3iZ3wk3XUT+z4n/hvT6+u/kbHMU7s+He8DMMgNTWVn/3sZzgcjl7ddtB1/bSeJNHnAgAdm4OdrOOuaRpWq7VzdLvLyqR9dLmrEdiOjlsgEDjlwh8MBtsez9aLWSwWKisrWbZsWe9pYJwQgeu4ODseodQRlTzx1RGh7Oi0d7xO/P+OKOuxL4fD0fmvw+HAbrd3ft0REOiYRnXsv91Fdzs6hZ81EKRpGrrZhCMxsS1aHCUs0Oc7/sdVoDExaLpO0OePnkRp/2lMRkVyNHClphLweqOo9EXZSTrp4o1oSlN0nCdN13HEx6OZTHKKenF954iPxxrjREVJmsxRVtuZALvLhTIMvF7vac/wOXZ5Qke7NSMjo8vlLh2zbkOhUOfXHcthO/7t+Nrr9eL1emltbe38uuP/O2bYHjsL99ivO/a8OnbQ78TXiTOCO/pavWlVer9+/Trb8md6dskZLU8mU+dTv6I6ABDJpjQ9rXGLdA3h6ayN13W9y/XNvUl2djYXX3xxZyf6ZBG4k02nOdnXx0bkTvy643ViJ7rj647XsdN/TnzviVOCjv3/jn87PnPHmqSTTRnq6tx3PALo2MrnVCujM73xiWEYYLGQlJ8X8Tq0viAcDkddejrqihOf9d0nG8Pt00Y712dGSXpUe5qiZZfkjgZTNKWnrYGlYTJFR/2g2sueSY+i9LTvQG/S9bb9IqKhfggb6LoWVelRHHNPipL6oaN9HTX1t6HQdO2c1Q8d93TLMXt3nNh+PfbfE9u+x7aJT+y8d+y5FWrfCPTE5b0n+7rjPR0BgWOX/p7sPSf799jgwolfd/x/V8uST/z6xNnHoVCItLQ07HZ7Z5+ltzrdNnWfCwA42ncAPtnoasfIv8lkwm7veofwjjUtfr//pGuQ/O07+Nrt9lOucDpGknuz5uZmLrroIiZOnNi5CeCJFUDH1yeOzHf39flqlACdUcrExMTOPQ36so51X5qmER8ff9IZL31NKBSisbGRuLi4qElPQ/ujoDqWikRDI7+xsRGLxdLjhkt9JT1NTU34fD6sNhsJXewE3td4WloIBgJRk56OJ6vouk5iYmJUrLsMBAI0NzeTkJAQFekJBoM0NDS0bcYWG4ujhx39+0pHrKGhoXMmYJ9Pj1I0NDQQDASw2e3Ex8VFRYe5ubm5y6W/fZHb7aalpQWzydzZZu3LNE37VBv8xP7E+egXHLuE4cSvu/teRxu8ubkZm83WubS3NzudMtTn7krJyclomta5O+OJHfempiZsNlu3FYXD4SA+Pp7m5mZ8Ph9xJ1SSDQ0NhMNhkpKSTrkAn+8OcaSfsWP03Ol09unK59i8Pnb2R19vFB/7+aMlkn/sTSGa0hNNaTr2GoqW9Jx4jqKhw6wdUwajIj1RXN9FS3pOHByIltHYaKrvNKU66wYNouocEYXpibb6IZIZ2Ocyfz/L5+hYBh5t9d1xaexrHzgnJwen08n+/fsJBo/fhKapqYnKykoyMjJITEzs8hgul4ucnBwaGxupqqr61M8rKirQdZ38/HyiZ7zMmgAAWblJREFU1dna3EMIIYQQQpz7dp0QUgYlLVEZAMjNzaWoqIjNmzezZ8+e4362Zs0ajh49yogRI46bAeD3+2ltbe2c7m8ymRg1ahQ+n4+PPvrouM0dqqurWb16NWlpaZSVlcnVLIQQQgghhBBCAgDng8vl4qqrrsLj8fDnP/+Z8vJyjhw5wjvvvMO///1v0tLSuOyyy47r/P/lL3/hwQcfZMeOHZ3fnzhxImVlZcybN4+XX36ZQ4cOsX37dh577DF2797NFVdcQXZ2tpQQIYQQQgghhBBRoU/uTDNjxgyOHj3KnDlzePDBB3E6nTQ3N5Oamsrdd99NUVFR53vD4TC7du1i586duN3uzu+npKRw33338ac//YnHH3+c2bNndz5P8+qrr+a6666Lmp3KhRBCCCGEEEKIPhkAsFqt3HzzzYwZM4ZNmzbhdrtJTU1l5MiR5ObmHvdem83G17/+dTweD8XFxcf9bPDgwfzv//4v5eXlHDp0CIvFQklJCUOHDu31O/kLIYQQQgghhBBRHwCAtkf5DRo0iEH/v737jo+qyv/H/5qamUnvvQBpQEIg9GJIICC92EBQBAVEgUX9WFbXrqurq6sryqp0pEhoAlICCAFSgEAaSUghCemF9DJ97vn9wXfuj2EmITRFfD8fDx4Pzcydufecc8/c8z6tb98u3ycSiRAZGdnp666urnj44YepJBBCCCGEEEIIeaAJKQkIIYQQQgghhBAKABBCCCGEEEIIIYQCAIQQQgghhBBCCKEAACGEEEIIIYQQQigAQAghhBBCCCGEEAoAEEIIIYQQQgghhAIAhBBCCCGEEEIIoQAAIYQQQgghhBBCKABACCGEEEIIIYRQAIAQQgghhBBCCCEUACCEEEIIIYQQQggFAAghhBBCCCGEEEIBAEIIIYQQQgghhFAAgBBC/kQYY5QIhBBCCKFnBvKnIKYk+OsRCAQQiUQQCoUP1DU9iNcjEAgeqLL3IF3T9WXuQcongUDwQF2PUCiESCR64K7pQazvHqRrMubTg5ZHjLEH7l560H6THsTnuwetXnhQn8EfpLwSiUQPZPnj84xRKOovx2AwgOM4CAQCiMUPRgyI4zhwHPdAXY/BYOCDNQ9CBcQYg8FgeOCuhzH2QP2YG8vdg3Q9HMfxD10PSv1gLHdU31F9R/Xd7dPr9Q9U8Emv14Mx9kDVdwaDwaRBRs/g9Az+e9V3xnL3IAYBKABACCGEEEIIIYT8BdAaAIQQQgghhBBCCAUACCGEEEIIIYQQQgEAQgghhBBCCCGEUACAEEIIIYQQQgghFAAghBBCCCGEEEIIBQAIIYQQQgghhBBCAQBCCCGEEEIIIYRQAIAQQgghhBBCCCEUACCEEEIIIYQQQv5SxJQEfx2MMdTX10Oj0cDJyQkKhYIS5T7IE6VSicbGRuh0OshkMjg5OUEmk1Hi3Ef0ej2am5vR3t4OxhjkcjkcHR1hZWVFiXOfqqmpgUqlgo+PDyQSCSXIfUqtVqOxsRFqtRpSqZR+m/7g36Pq6mpotVr4+PhALKZHxPslX9rb29Hc3AydTgeJRAIHBwfY2NhAIBBQAt0nVCoVGhsbodFoqC77E+VZQ0MDpFIpXFxcIBT+dfrFqXb/C8nLy8OXX36J5uZm/O1vf0NUVBQlyh+oqakJ8fHxOH36NKqrq6HRaCCXy+Hv748xY8YgOjoa1tbWlFB/IJ1Oh9TUVBw9ehSFhYVobW0Fx3GwtraGn58foqOjMXr0aNjY2FBi3UcqKirw4YcfQqlU4osvvoCHhwclyn1Go9Hg5MmTiI+PR2lpKVQqFaysrODj44OxY8ciNjaW6r/fWVlZGT744ANwHIcvvvgCLi4ulCh/sCtXruDw4cNIS0tDfX09tFot31gZOHAgJk6cCD8/P0qoP1BHRwd+++03HD9+HBUVFXxd5u3tjaioKMTGxsLR0ZES6j6j1+uxZcsWHDhwAMHBwXjnnXf+Us9yFAD4i2hpacH69euRm5sLkUgElUpFifIHqq6uxtdff43k5GQYDAY4OTnBxsYG7e3tSElJwYULF5CWloalS5fCycmJEuwPoFarsXnzZuzYsQMtLS2Qy+VwcnKCQCBAY2MjSktLkZqaSvl0H9Z1a9euRXZ2Ntzd3cFxHCXKfXhvbdiwATt27IBSqYS9vT1sbW3R1taG1NRUZGVlIT8/Hy+88AJsbW0pwX4HTU1NWL16NfLy8uDt7U33zX3gzJkz+Pbbb1FcXAyhUAhHR0coFAoolUrk5OQgOzsbycnJWLFiBSIjIynB/qD7ZtWqVTh69Cg0Gg0cHR1ha2sLlUqFtLQ0ZGRkIDU1FStWrIC3tzcl2H0kJSUFu3btQlNTE5ydnf9ydR4FAP4COI7Dnj17cObMGYhEIgiFQho29gfSaDRYu3YtTp8+DRsbG8ycOROxsbGwt7dHU1MTDh48iP379+Pw4cNwcnLCkiVLIBKJKOF+Z/Hx8di6dSu0Wi2GDRuGRx99FD169IBIJEJVVRX27duHhIQExMfHw87ODkuXLqUhs3+wq1ev4scff8Rvv/0GgUDA/yP3370VFxcHvV6PiRMnYubMmXBxcUFDQwP27t2Lo0eP4tdff4WnpyeefvppSrB7rLa2Ft9//z1OnjxJ98t94sqVK/j2229RVFQELy8vPPHEExg0aBBsbGzQ2tqK5ORk7Ny5EwUFBfjmm2/w8ccfw8fHhxLud2QwGPDzzz/j0KFDkEgkeOSRRzB58mS4uLigra0NJ06cwI4dO5CYmAhbW1u89tprNL3zPlFZWYn169ejtbUVIpHoL1nv0dPqX8D58+exc+dOMMYoMe4DmZmZOHXqFIRCIWbMmIFFixbxDUc3Nzf4+/tDqVTiwIED+O233zBp0iT06NGDEu531NjYiL1790KlUmHAgAH4+9//bjKM3NPTE8HBwWCM4dixYzh27BgefvhhhIaGUuL9ATiOQ05ODlavXo20tDQwxqghc5+qq6vD7t27oVKpEB0djZdeegl2dnb8fWWs6w4cOIBff/0V0dHR8PX1pYS7R/dNVlYWfvzxR2RmZtI9cx+Jj49HcXExHBwcsHz5ckRHR/Ovubu7IzAwEM7Ozvj6669RWFiIY8eOYf78+ZRwv6Pi4mLEx8eD4ziMHTsWy5Ytg1wu55/lAgICoNfrsXnzZiQlJWHKlCkYMGAAJdwfTKPR4KeffkJ+fj7EYjF0Ot1fMh1oF4AHXG1tLdatW4e2tjaMGDECMpnslgMBjDEaDngXpaWloa2tDS4uLpgwYYJZr7FMJsOoUaMgk8nQ0NCAkpKSbj/MUZDn7igsLERJSQnEYjEmTpxocQ65ra0tJk+eDGtrazQ1NSEvL4/y6A9qUK5evRrvvPMOUlNTYW9vj8DAwNv+PKrv7n39d+XKFVhbW2PatGl849/I2toajzzyCJydnVFZWYmzZ89Sot0DNTU1+P777/Huu+8iLS0NTk5OdxRo5jiO7pu7pK2tDefPn4der0e/fv0wfPhws/cIBAJERUUhMDAQBoMBWVlZ0Gg0VLf9jrKyslBfXw8bGxtMnDiRb/wbiUQijBw5kp/eVFBQ0K3PNRgM9JxwDx05cgTx8fHw9/dH7969byutH4T6jkYAPMB0Oh22bduGrKwsREVFYdq0acjIyOjWsWq1Gjk5OUhPT0dlZSV0Oh0cHR3h4+NjceVzgUCAgQMH0hC0boiJiYGrqysAwMvLy+J7pFIphEIhtFptp9FJjuNQVlaG8+fP4/Lly2hvb4dMJoOPjw8cHBws/vj7+Phg4MCBf6mVTm+HVqtFjx49oNPpEBQU1On7XF1dIZfL0dHRgebm5k4bqBcuXEBubi6am5shFovh4eEBNzc3sx43xhjs7e0xatQoSKVSyohuOHr0KDZs2AChUIi+fftiwYIFKCgoQGFhYbc/Q6VSITs7G+np6aiqqoLBYODrO0v5IBAIMGTIEHh6elIG3GJwJTMzExqNBv7+/ggODrb4voCAAPTo0QNXr15FWloapk+fTjs53GUHDx7Epk2bIBaLERERgQULFiArKwuXL1/u9me0tLQgPT2dbwgB13o+PT09zaatMcYgk8kwcuRIs6APMaXRaODi4oKAgACEhYV1utuMQqGAi4sLv0uAVqs1e69Op0N+fj4uXLiAsrIyaDQa2NnZwcfHx+IK9YwxhIWFdfm7R64ZOHAgXnvtNXR0dHSaXlKpFCKRCBzHQavVdvosd+XKFZw/fx5FRUXo6OiAXC6Hj48P7O3tLb7f398fAwcOpEy4Rfn5+fjpp58gFArxzDPPIDMzE+np6d06tqmpCWlpacjOzkZDQwMEAgHc3d3h7u5usb6Ty+V46KGH7tvFbCkA8ABLSEjg51EuWLCg21HF0tJSbNiwAUlJSWhtbeUfeBljEAqFfOPx+miyWCzGO++8QwGAbggJCUFISEiX78nLy4NKpYKtra3FIIFSqcTevXuxe/duvsFizCOBQGBSGRl7nTmOw7hx4zBgwAAKANzEsGHDEB4eDq1W2+XqvfX19VCpVBAIBGaLlen1eiQkJGDLli24fPkydDodn0cATOadXZ9HwcHBGDhwIAUAukmn08HX1xeTJk3CpEmT4ObmhqKiom4fX1xcjA0bNiAlJQVtbW3dqu9EIhE+/fRTCgDcIpVKhbKyMjDG4O3t3WlDUCaTwc/PD+fOnUNZWRlaW1vh7OxMCXgX6fV6+Pv7Y8qUKZgwYQJcXV2RnZ3d7UDOhQsXsGHDBmRnZ0OtVndatxnvG8YYXFxcEBISQgGAm3BycsI//vEPqFSqLueMG7cwEwgEUCgUZr8ZdXV1+Omnn/Dbb7+hqamJfz64sW67/jcIAJYtW0YBgG4ICAhAQEBAl+8pKChAW1sbZDKZxalMHR0d2LVrF/bu3Yvq6mpwHHfTZzmDwYApU6YgMjKSpu3cgra2Nqxfvx7l5eV45JFHEBMT063GP2MMZ8+excaNG5GbmwuNRtOt+s7NzQ3h4eEUACC/r5KSEmzYsAE6nQ5z585FSEhIt37cS0tL8emnnyIzMxMKhQJjxoxBZGQkZDIZysvLkZiYiNLSUgBAcHAwQkND+R8TavzfnQfkU6dOYe/eveA4DsOHDzf7IdZoNNiwYQPi4uKg0+kQEhKCUaNGwd3dHS0tLfwOAlqtFg4ODhg6dCikUik4jkOfPn2o8d8Nxn2Wu2IwGHDq1Cl0dHTA3t7eJJ8YYzh48CBWrVqFlpYW+Pr6IioqCgEBAVCr1cjOzkZKSgo/amPIkCFwcHAAx3Fwc3Ojxv8tiI6OxtixY+Hj43PLD0PFxcX45JNPkJOTAxsbG4wbNw79+/eHVCpFWVkZEhMTUV5eDoFAgJCQEH7dB6FQSFsL3gbjSBmBQABnZ+dOe/UFAgFcXFwgEAjQ3t5OAYB7IDY2FpMmTYK3t/ct3zdnzpzBv//9b1RXV8PFxQWTJk1CaGgoOI5DQUEBEhMT0dDQALFYjAEDBsDT0xMcx8HGxoZ2degGoVAIGxubm25JdvHiRRQVFUEoFCI0NNSk97++vh5ffPEFkpKSIJFIMHz4cAwZMgS2traoqalBcnIyCgoKwBiDr68v+vXrx5eDO5lCRa7RarVITU3Ftm3boNFoMGzYMLP5/2q1GqtXr8bu3bvBcRz69u2LkSNHwtXVFc3NzUhNTUVGRgb0ej0cHR0xZMgQSCQScBxnkl/k5jiOwy+//IKkpCT06dMHc+fO7fZz1unTp/Hll1+irq4Obm5uiIqKQlBQEAwGA/Ly8pCcnIympiaIxWJERkbyuw/Z2dnd11vZUgDgAX3I2rBhA4qLizFhwgRMmDChW8fpdDps3rwZWVlZsLW1xcKFCzF9+nSTH5WJEyfiiy++4BfaevLJJ+Hn50eLbt0BvV6PEydO4PLlyygoKEB2djZ0Oh3Gjh2LRYsWmfUAJCUlYffu3dDpdIiOjsby5ctNGiMzZszA5s2bsXXrVmg0GkRGRmLKlCmUR3dZcnIyjh8/DsYY+vfvbxIAKCgowIYNG9DS0oK+ffvi1VdfNVkgcPr06Thy5Ai+/fZbtLe3w8fHB88//zztInAbbtYD0xnjVnQ5OTmwt7fH888/j8mTJ5s8FDz88MP497//jYsXL0IgEODpp5+Gl5cX3Uu3Sa1WQ6lUQigU3rQX2MbGBiKRCBqNBkqlkhLvLuvZs+dtHXf16lWsWbMG1dXV8PHxwSuvvIKhQ4fygWWO4xAVFYUvvvgC1dXVsLOzw7Jly2BtbU33zV109epVbN26FW1tbXyjxIgxhp07dyI5ORlSqRRPPvkk5s6da9IYmTJlCr755hskJCRAp9Nh2rRp6Nu3L+XRHWCMISkpCbm5uSgqKkJWVhY6OjowdOhQLF261Gw4/4kTJ7Bv3z5wHIfY2Fi8+OKLcHNzM3lO2LhxI+Li4qDRaDB06FCMHz+e8ug2pKWlIS4uDgqFAvPnz+90+u2NqqqqsGbNGtTV1cHf3x+vvvoqIiMjTeq75ORkPkDg6OiIv/3tb5DL5fd9PlFX4APo4MGDSEhIQM+ePTFv3jyL87wsKSwsRHJyMgBgzJgxmDlzptl8soCAACxYsAAODg4oKCjAkSNHAIAqozugVCqxefNmrF+/nu8VtrW1Rb9+/cwekjUaDQ4fPoyOjg74+vpi0aJFZj2RCoUCTz75JPr374/29nb88ssvaGpqojy6i7Kzs/H999+jqakJXl5emDNnjskCQL/99htqampgb2+P5557zmx3AIlEggkTJmDcuHEwGAw4cuTILQ1bJ3cuLy8PqampEAqFGD9+PKZOnWrWIxAYGIj58+fD1tYWly5dwrFjx6i+uwMGg4GfCtPZvGYjqVQKgUDAH0PuDykpKSgsLISVlRXmzJmD4cOHm4wqEwqFGDZsGB577DGIRCIkJSUhLS2N7pu7qLW1FT/++CMyMjIglUoxc+ZMk9+YqqoqnDhxAgaDAYMHDzZr/APXdhJYsGABPD09UVlZiX379vFTCcnt0el02LVrF1avXo2EhAQ0NzdDLpejX79+ZiOYlEol4uPjoVQq0aNHDyxcuNCk8Q9cC4LOmTMHYWFhaG1txS+//ILW1lbKo1t09epVrFu3Do2NjZgxYwZGjBjR7WOTkpJQUlICmUyGp59+GoMGDTKr70aNGoWZM2dCKBTi1KlTyMrK+lPUdxQAeMBcvHgRW7duhVgsxrx5825pVd/c3Fy0tLTA2toaY8aM6XR4Zt++fdGnTx9wHIcLFy6gvb2dEv4OcByH6OhoLFu2DAsWLEBkZCTa2tqwatUqfPrpp6ipqeHfW1tbyy/SNGTIEPj7+1v8TFtbW0RHR0MikeDKlSu3tLAT6VpWVhb+/e9/o7i4GI6Ojli8eDHCw8P51zs6OnDx4kVwHIeQkBBERERY/ByRSISYmBjY2tqioaGB/9Egv4+cnBy0trbC1tYWMTExnY6+6NevH0JCQmAwGHD+/HmoVCpKvDuo64zzJm/2cCQQCPh5lrQi9v0TwMnMzIRWq4WXl1eXD9LGaWlKpRLnz5+nxLtLmpubsWrVKsTHxwMAJkyYgMcee8ykUVJYWIi6ujpIpVLExMR0Ogy5Z8+eGDhwIBhjJgs5ktu/PwYPHoylS5di8eLFGD58OPR6PTZu3Ij3338fxcXF/Hurq6tRXFzMB8w6m0Lr6OiIqKgoiMViFBUVdXtXKPL/B2W2bduGjIwMREZG4oknnjBbsK8zer0emZmZ0Ol08PPzw9ChQzt970MPPQQXFxe0t7f/aeo7Gm/6J6BSqZCTk2NxBVHGGL8nbFNTE9atW4fa2lo8+uijiImJuaXvKSsr4+cadbXvskwmQ1BQEJKTk1FTU4OWlpabzlV70DHGUFhYiKtXr1p8sLWyskLfvn0tLuhjb2+P+fPn88e1trbi559/xrZt23DixAnY29vj5ZdfhkQiwdWrV9HS0gKJRIKgoKAuH6IDAwNhY2OD1tZWlJeXY/DgwX/5e6miogKlpaUW0804j7Kzuf+MMZw5cwYrV65ESUkJnJycsGTJEowbN87sAc34INWzZ88uR+D4+vrCxcUFLS0tuHLlCg3t+38BlJycHOj1eot54OnpedvDl6//nIqKChgMBjg5OXVZ31lbWyMwMBDnzp1DbW0t36tDbp1IJIJQKOQXsrrZw7RxvYXuPrCRe0uj0aCyshIA4OPj0+UCqS4uLvD19UVZWRlKS0uh1WppbZM7VFNTg1WrVuHEiRN843/JkiVmz18VFRXQaDRwdHTsshNIKBQiJCQEEokEjY2NqK+vh7u7OyX0bZLL5XjyySf533ClUolff/0Va9asQWpqKn788Ue88847sLa2Rk1NDTo6OiAWizvdDcUoODgYcrkcKpUK5eXlnXYqEHOnTp3C/v374eLiggULFtzSWjIdHR2oqanh18noqr7z8PCAl5cXqqqqUFZW9qeo7ygA8CdQV1eHzz77DPX19WaNA+NqoK+88gp27NiB1NRUhISE8BFhY9BAJBJBr9fzPSl6vR4GgwEcx/E9Xx0dHWCMwcbG5qYPuE5OThAIBDQ/8//hOA5xcXE4evSo2cMqx3Hw8PDAV199ZXHV8Bvz1M7ODnPnzkVxcTFOnjyJpKQkPPLIIwgMDERHRwf0ej1EIpHF7WFu/ByZTIbm5mZ+N4e/uoSEBKxZs8ZsIUTjli0ffvghBg0aZHacXq/H4cOHsXr1atTV1cHDwwMvvvgixo4da/ZZarUaWq0WQqHwpnkkl8v5RbHa2trAcdxfvrFTU1ODTz75BC0tLRbru0ceeQQrVqy4o+8wGAz8yCVra+suV9oGrvXCCIVCqNVqGgFwByQSCaysrMAYg1qt7vK9arUaHMfxx5A/nlar5cu/vb19l2uWXL+QakdHBwUA7lBBQQFWrlyJtLQ0SCQSTJ06FQsXLrT4G9Pe3g6O4yCTyW66CJmTkxNEIhF0Oh2N5rwLrv/NUigUmDlzJq5cuYK9e/fy2wEPHjyYf5YTi8U3XQ/F1tYWMpkMSqWS36mG3FxpaSk2btwItVqNJ598EmFhYWYdqcadfRhj0Ol0/BQ1sVjM13cCgQB2dnZdPptJJBLY29vzC9fq9XoKAJC7w7i1xI0PxMbCW19fj2PHjoHjODQ3N+OLL74wq5SM+8QyxrB161YcOnQINjY2WLZsGby9vSmR71Ee3c4QVmtrawwbNgxJSUlobm5GWVmZycq8xuGx5PbyqLMgjiUqlYofkdHW1oZevXph2bJlGDp0aKd5QEOW7597idw/jAEvxhhaWlq6fG9rayvfiPmrjzC73xs65N7WhampqVi5ciUuX74MGxsbPPnkk5g9e/ZN13eiPPrjSSQSjBgxAocOHYJSqURxcbHZaEzKp3sjOTkZRUVFkEgkSEpKQkZGhtnzQ1lZGSQSCcrLy/HOO+9AIBBg5MiRmDNnzgOfRxQA+BNwc3PD3//+d2i1WosPxB4eHjAYDHxkq7a2FtXV1RZ/DIwR++LiYn74qzGib2NjA4FAgI6ODqhUqi63QTPuKSuVSmk4LK4NpZs9ezbGjh1rMY+srKzg5OQEjuNQVVWF2tpa2NnZdbnXrjHieH3eWltbQywWQ6fTobm5+aYP0Gq1mt9SiAAxMTHo1auXWYXOGINIJDLb/qi9vR1r167Fnj17oNPpEBkZieXLl5st6ndjI0cmk4HjuJuOvFCr1XxE38bGhrZoxLWhdG+//TYfibdU390pkUjE3xMdHR1Qq9Vd3iPNzc3gOA5WVlY3HS1AOmdjYwMXFxcwxnD16lWo1WqL6WkwGPihl05OTjcdSUN+H9f/3re0tHTZy3X9b5RcLu90TSHSdeM/ISEBK1euRHV1NVxdXbFw4UJMnDixy/Q0/paoVCp0dHR0+R1NTU0wGAyQSqX39ZZl92Pe1NbWoqamBhKJBL179+7099vW1hYSiQQajQYajYbPI+Oz3M2eE9rb2+lZ7jYYR5HpdDrk5uZa7DwwTkvr6OhAeno69Ho93yFqZWXFr+bf2toKg8HQ6SgAYz4yxvjndAoAkDsml8stDku+XltbG2bPno2Ojg6LkSqBQIDa2lrEx8fDYDAgJiYGgYGBfMMUAPz8/CAWi9HY2IjKykqLw9WBa/MACwsLwXEcXF1dbzp86a9AIBAgKCioywa9sSL/8ssvkZGRgWHDhuH999/vdHhrfX099Ho9rKys+DR2dXWFvb09qqurb7pqfHFxMb/PPI3wuMbHx6fTxXZupFKpsHbtWuzatQscx2H06NFYtmzZTbePsbe3h4uLC8rKylBcXAylUtlpT015eTkaGhogEoluax/7B5G1tfU9X69CIBDA19cXIpGIr+9cXFwsvlepVPL3mouLCzVG74Bx7ZLExESUl5ejsbHR4v3U2trKL3Z1s3U0yO/HysoKPj4+yMjIQHl5OZqbm81WLjdqaGhARUUFBAIBfHx8aPj/bTh9+jS+/vpr1NXVwc/PD8uXL8fIkSNv+jvh6+sLKysrtLe348qVK50GrDmOQ0FBAfR6PRwcHPhnQXJzer0eP/zwA06ePIng4GB89tlnnf42NDQ0QKvVQiQS8R1rHh4esLa2Rn19PQoKChAbG9vpdxUWFvLB0u5uX0eAAQMGYOHChV3eL4mJicjLy4O7uzvGjx8PqVSKkJAQ/lnE09MT2dnZfH3X2RoCxo5XoVAIb2/vP0V9RwGAB4StrS1mz57d5XtycnJw/PhxGAwGjB49GuPHjzd5vU+fPnBwcEBjYyNOnDiB/v37W4xiZWdnIzc3FwKBAH379qUAwC1QKBRwdXWFSqVCdnY2CgsLERYWZva+lpYWJCUlwWAwwM3NjV/Ix93dHUFBQaiqqsK5c+dQVlYGPz8/iwGhEydOQK/Xw8/P744XTfurYYxh7969+OWXX8AYw/jx47F8+fIuF4G5vgEbHh6OjIwM5OfnIzs7G0OGDLH4AHHixAm0tbXBzs4Offv2pYT/HRnrrtbWViQkJCAsLMxidD8zMxN5eXkQCoUIDw+nXrK78FC2c+dO1NbW4ty5c5gxY4bZezIyMlBWVsYHv2lkzP1BJBIhIiICR44cQVVVFc6cOYNp06Z1+mBdU1MDmUyGfv36UXDzFuXn52PVqlW4evUqevTogddffx39+/fv1rFBQUFwc3NDWVkZEhISEBUVZTGIVlxczK9YHhwcDFdXV0r4bpJIJPDy8oJarcbly5eRmZmJqKgos/ep1WqcOnUKWq0Wzs7OfOPSw8MDvXr1Ql1dHc6ePYsZM2ZYbNw3NTXh5MmTfM90Zzs/EXP9+/e/6T1z9epV5OTkwMXFBU899RS/JtP19V1CQgLKysqQmpqKCRMmWPyc06dPo66ujq/v/gzoV/Uv1qjpSmBgIL+tz7Fjx7Bv3z6zBTOKioqwdu1aNDU1wc3NzWwFdHKTG04oxNixY+Hg4ICGhgZs3LjRZJs/Y+N/48aNyMjIgEgkQmxsLD/s2crKChMmTICNjQ3Kysqwdu1a1NXVmRzf3t6OzZs3Iz09HSKRCGPHjqWVfW9RQUEB4uLioNFo4O/vj2nTpkGr1aK6utriv6qqKpNhfGPHjoWnpyeam5uxdu1aFBYWmny+VqvFgQMHEB8fD47jMGTIkC6nFZC7LzQ0FEOHDgXHcTh8+DAOHjxott98fn4+1q1bh5aWFnh4eGDMmDGUcHch8BIREQGNRoPt27cjIyPD7N776aefoFQq0bt3bwwcOJAS7T4ybNgwBAcHQ6PRYMuWLUhNTTVZP4XjOCQmJiIuLg46nQ6hoaEWA6Ckc2q1Glu2bOGDYNOnT4enp2eXvz9Xr17l88HT0xNjxoyBSCTC2bNn8fPPP5st1lxVVYU1a9agqqoKtra2mDBhAk3TuEVRUVFwd3dHR0cHtmzZYrLNH3Bt9FhcXBxOnz4N4NpWccbOGIVCgQkTJkChUKCoqAjr1q0z24axtbUVmzZtQlZWFsRiMcaNG9fpSDVy5+0iS22kkSNHomfPnlCpVPjpp5+Qnp5u8j6DwYCEhATs2rULer0eYWFhiIyM/FNcO40AIDyJRIKnnnoKpaWlyMrKwqpVq5CWlob+/ftDJpOhtLQUiYmJuHLlCmxtbfH000+jd+/elHC3aODAgXjkkUewZcsWJCcno6mpCVFRUXBzc0NDQwNSUlKQlZUFg8GAMWPG4NFHHzXpPRk5ciRmzpyJuLg4HDt2DBUVFRg5ciTc3d3R0tKCc+fO8XOZoqOjLfawka4dOXIEtbW1EIlEqK2txYcfftjl+w0GAx599FHMmzcPwLUemHnz5mHVqlXIysrC22+/jaioKPj7+0OtViMzMxNnzpxBe3s7+vbti2eeeYZWOv+dWVlZYd68eSgvL0dubi5WrlyJ1NRUREREwMrKCiUlJTh9+jTKy8v5rTpvtl0TuTmFQoE5c+aguLgYV65cwccff4yxY8ciICAAVVVV+O2331BSUsL3yHRn1A35/bi6uuK5557D559/jrKyMnz00Ud46KGHEBISAo7jkJeXh8TERDQ0NMDHxwcLFy6koeW3KDc3F2fPnoVQKITBYMC2bduwffv2Tt/PcRwCAgLw/vvvw8HBAQKBAI8++iguX76MpKQkbNq0CTk5ORg8eDBsbW1RXV2NxMREFBYWQiqV4vHHH+9yj3NiWXBwMObOnYvvv/8eFy9exLvvvovo6Gj4+PigtbUVqampOH/+PDQaDQYNGoSnnnrKJMgyevRoXLp0Cbt378bhw4dRVlaGESNGwM3NDY2NjTh79iwyMzPBcRxiY2MxZcoUSvTfmaenJ5577jl88cUXKC4uxgcffICoqCgEBgbCYDAgNzcXSUlJaGpqgr+/P5577rk/zTRBCgD8xXAc1+VK2n5+fnjzzTexfv16pKSk4NixY/jtt98AXIuOSSQShISE4Mknn8SYMWNoaObt3HRiMZ566inIZDLs2bMHubm5yM7O5vfHBgBnZ2eMGzcOTz31lNlijFKpFAsWLIC9vT1++eUX5OXlIScnxyRI4OLignHjxmHOnDn08HWL2tvbcfHiRX4VeqVSedOFlDiOM9meRyAQYPLkyZDJZNi6dSuKi4vx008/8XnEGIOdnR3Gjx+P+fPnd7lXM7l1xl0EjPVdZ3r27Im33noL69atw7lz53DkyBEcPXqU/wypVIrevXtj7ty5iI6OpmHMd8mAAQPwf//3f1i9ejUKCwuxceNGCAQCfjHOHj164Nlnn8WwYcMosf6A++ZmowWHDRuGN998Exs2bEBubi527dplUrcpFAoMGzYM8+fP/9MMh72fXLx4EW1tbRAKhdDpdGaj/Cz9/tja2sJgMJg8A7z66qtwc3PDiRMnkJycjOTkZD6PRCIRfH198dhjj2HKlCnU+38bBAIBpk+fDrFYjG3btqGkpASXL1/mn+UYY7C3t0dsbCzmz59vNsRfJpPxWznu378f2dnZyMrK4u8lgUAAV1dXTJgwAbNnz6b1Z/6gOu+hhx6CWCzGxo0bkZeXh7i4OJP6ztraGiNHjsT8+fMtTum9b8svoz2V/jKampqQkpICg8GAAQMGdLkYmkqlQk5ODjIyMlBdXQ2dTgdHR0eEhoYiMjKShpTfBQaDAcXFxTh37pzJYnH+/v4YOHAggoODu/xR5jgOpaWluHDhgsmCfwEBARgwYACCgoL+FCuR3m+0Wi2SkpJueb/dwMBA9OnTx+zvtbW1uHDhAvLz89HU1MTPHezfvz/69u1Lq8rfA4WFhcjNzYVCocDIkSNvuoicUqnExYsXkZWVherqan6HFGN9R3Nj742amhqcPXsWeXl5aG1thUKhQFBQEIYNGwZfX18KuPzO8vLykJ+fzz/Q3myHn+bmZqSnpyMnJwf19fUQCARwc3NDeHg4IiIiTObTku7LycnB5cuXb6n829nZYfjw4WYjybRaLfLy8pCeno6KigpoNBp+B6KBAwfC29ub7rO70IgsLy/HuXPnUFBQgLa2NlhZWcHX1xcDBgxA3759uxzhx3EcSkpKcOHCBZSUlKCjowNyuRw9evRAZGQkevXq1eUe9OT2ZWRk4MqVK3BycsLw4cO7fOZubGxEWloacnNz0dDQAKFQCA8PD4SHh6Nfv35/uh0aKABAulW5Mcaot/93SGOBQHBbP8Z3ejz5fRhHFVAeUX1HqP560PIQoD3N6T6jNKZnOarvKABACCGEEEIIIYSQ+wJ1cRBCCCGEEEIIIRQAIIQQQgghhBBCCAUACCGEEEIIIYQQQgEAQgghhBBCCCGEUACAEEIIIYQQQgghFAAghBBCCCGEEEIIBQAIIYQQQgghhBBCAQBCCCGEEEIIIYRQAIAQQgghhBBCCPlLEVMSEELIvcVxHMrLy5GZmYmioiK0tbXBysoKPj4+6Nu3L0JCQiCXy7v8DMYYBALBfX+tBoMB2dnZaGxsRM+ePeHv739fnJdGo0FGRgY0Gg169+4NV1fXbh1XUVGBoqIii68JBAJYWVnB3t4e7u7ucHBwuG/yqKamBvn5+VAoFIiIiIBUKr1rn22pLObl5aG6uhqenp4IDQ19IO/jy5cv49SpU6isrIRUKkW/fv0wbtw4iMUP5qPUjfnMGENeXh5qamrg4+ODoKCgP/wcm5ubkZ2dDYPBAMYYfHx8EBgY2K06OScnBw0NDQAAT09PBAcH/ynqWEIIuRsVPCGEkHukpqaGvfPOOywoKIhJJBIGgP8nEAiYq6sre/zxx1lSUhLjOM7iZ1RXV7P169ezurq6+/56Ozo62JQpU5hUKmWffvrpfXNeZWVlLDw8nDk4OLA9e/Z0+7iVK1cyGxsbZmNjw6ytrU3+2djYMAcHB+bp6cmGDBnC3nrrLZaXl3dfXO/mzZuZQqFgAwcOZDU1NXflMzmOY2lpaWz79u1Mq9WavPb8888ziUTCFi9e3Gk5/jNLTExk/fr1YwKBgL9/p02bxtRq9QN3rRzHsdTUVBYXF2eSlzqdjs2fP59JJBL20ksv3RfnevLkSebm5sZsbGyYXC5njzzyCFMqlTc9rqqqig0dOpQpFAoml8vZkiVLmMFgoB8sQshfAo0AIISQe6S+vh7Lly/Hzp07IRQK0aNHD/Tq1Qt2dnbQaDQoKytDfn4+duzYgXPnzuF///sfJk6caPIZubm5eOGFF1BaWoro6Ohu91z/kb2GSqUSWq0WWq32vjqvjo4OtLW1QafTdfs4rVaL9vZ2iEQiuLq6QiKRmPQiqtVqNDU1obq6GufOncPevXvxxRdfYMKECX/o9Wq1WiiVSnR0dIDjuLvymXFxcXjttdcwfPhwzJw50+Q1lUoFnU4HlUr1wN3HKpUKX3zxBbKysuDi4oKYmBgoFAqMGjUKVlZWD9z1btmyBW+88Qaio6Px+OOPm9xDarUaOp0OarX6vhiVpNfr0d7eDqVSCQBITk5GQUEBIiIiujzu3LlzyMzMhFqtBgD+eggh5K+AAgCEEHKPbNq0Cbt27YJCocD//d//YcGCBfD09IRYLAZjDE1NTThy5Ajee+89FBUV4d1330W/fv3g7e3Nf0ZBQQGSk5Ph6elJw1P/QK6urti0aRMCAwP5BjXHcdBoNKisrMTBgwexefNm5OTkYOnSpdi8eTOGDx/+h53v4MGD8dlnn8HFxQV2dnZ35TMTExNRXl6OESNGmL02e/ZshIaG3rTh9WfU0NCA7OxsAMCyZcvw9ttvQygUPrANxpMnT6KqqupPUd8Yz1EoFMLKygo1NTU4efJkl+WQ4zjEx8dDrVZDJBLBYDCYfBYhhFAAgBBCyC1ra2vD/v37wXEcZs6ciTfffBMymcysUTl37lwAwKJFi5Ceno5jx47hmWeeoQS8334sxWL4+fmhR48eZq+FhYUhNjYWgwcPxksvvYTi4mL861//wubNm2Fra/uHnG9YWBjCwsJ+t++bOHGi2eiVB4VarYZWq4VYLEZERAREItED3WD8s10XYwwKhQKDBw/GiRMncOTIESxatKjTdVUqKytx4sQJuLi4wNHREYWFhVTBEUIoAEAIIeTOtLS0oKamBgDQr18/s8b/9caPH4+wsDBkZGTg8uXLAK4Nba2pqUFVVRUAQKfToaSkBHq9Hm5ubiYNS4PBgNraWhQXF6Ourg5qtRp2dnYICAhAr169zB6E9Xo9KioqYDAY4OPjA7FYjCtXriAvLw9tbW1wdXVF7969uxx1wHEcKioqkJubi5aWFri7uyM8PLzL6zRSqVQoKytDaWkpmpqa+GBIUFAQvL29IRQKLaalnZ0d3N3dUVBQgOzsbDg6OiIiIgIuLi78e3U6HYqLi1FQUAC1Wg1fX1+Eh4ff8/wWiUR48skncenSJXzyySc4fvw4EhMTLTaKDQYDKioqUFhYiMbGRigUCvTq1Qs9e/Y0GVLOGEN1dTXa2tpgZ2cHDw8Pi/nBGENVVRXa29vh4OAAd3d3tLa2oqamBlKplM/jG8+huroaJSUluHr1KjQajUmZuT4fOzo6UFVVhebmZgDXgluFhYWQy+Xw8fGBRCJBTU0NWlpaYG9vDw8PD4vXXF5ebnLNxikxlhpqbW1tqKmpgUKhgJeXF1QqFfLy8lBcXAwA8PPzQ2hoaKejGwwGAyorK1FQUID6+nrIZDJ4e3sjMDAQjo6O3cpTrVaLqqoqlJSU8NNG6urqUFRUBLFYDF9fX6hUKlRVVUEmk8HLywvl5eVIT0+HXC5HRESEWZ41NDSgoKAAlZWVEAgE8PLyQnBwMJydnc2+39J9WlRUhEuXLkGlUsHHxwdhYWFwcHDg78mSkhLk5ORApVLB29vb5PWbMaZ5S0sL//8FBQV8GbJU9urr65Gbm4vq6mrI5XIEBQUhMDDQZKrMjTQaDUpKSlBUVIT29nY4OTkhKCgIvr6+fHDlVgmFQowbNw6ZmZk4f/58l9MAzpw5g8LCQkydOhVqtfqmAYCmpiY+zxhj8PLyQmho6E3LUUtLC4qLi1FZWYm2tjZIpVJ4eXkhKCjIpM4yqq2tRXNzM9zc3ODo6Ij6+nrk5OSguroa1tbWCAwMRK9eve7qgp6EkL8oWgaBEELuvvr6ejZo0CAGgD355JOsvb290/fq9Xp2/vx5lpiYyEpLS/lFqh566CHm4ODAADCRSMTc3NyYn5+fySJ2JSUl7NVXX2W9e/dmcrmcX6RMJBIxd3d39sQTT7D09HST76usrGRRUVGsf//+LCkpiX300UfM39+fiUQiJhAImEwmY/369WM//PAD02g0Zufb3NzMPvvsMxYSEsIvbGhlZcVGjhzJdu7cyWJiYhgA9sEHH5gcZzAY2NGjR9mMGTOYp6cnE4vF/GKIMpmMhYSEsA8++IA1NjaaHLdt2zbm4eHBXnjhBbZr1y7Ws2dPJhKJmEwmY3PnzuXTtry8nL300kvMx8eHiUQiBoDZ2NiwGTNmsD179rBevXoxkUjE4uLiup2PX375JQPAfHx8urXAX05ODvPx8WEA2Msvv2xx8bF//OMfLCgoiEmlUj6vPD092fz589nFixdN3v/ZZ58xT09PNnnyZNbQ0GDxO+vq6tj48eOZt7c3+/HHHxljjO3YsYN5e3uzmJgYVltba/L+y5cvs5deeomFhIQwmUzGlxmxWMw8PDzYnDlzTM7j8OHDzM/Pj1lbWzMATC6XMw8PDzZkyBBWVlbGGGPs5ZdfZm5ubuzll182WwSwtLSUvfbaa6xXr14m1+zm5saeeOIJlpycbHbMr7/+yvz9/dm8efPY+fPn2ezZs5mDgwMTCARMKBQyBwcHNnHiRHb69GmL9967777LAgMD+fIpFAqZvb09GzFiBNu4caPFcn2jwsJCNmDAAObq6srfG05OTszDw4ONGTOGtba2shMnTrCePXuyJ554gh08eJBFREQwsVjMpFIpe/jhh/m07+joYOvWrWPDhw9nNjY2TCAQMIFAwGxsbNjw4cPZ+vXrzRavq66uZtHR0SwiIoIlJiayjz76iPn4+DChUMgfO2nSJHbx4kXW3t7OPv30U+bv72/y+sMPP8zS0tK6Vdb37t3L/Pz8mEKhMMnnkSNHssrKSqbX69ns2bMZALZw4UK2Y8cONmzYMCaXy/ny4+3tzV566aVOF57MyspiCxYsYF5eXvw9KpFIWGBgIPvHP/7Bqqurb6mePX78OJPL5czGxobt37+fRUdHMwDs66+/7rSuffbZZ5lAIGA//PADmzFjBgPA5s+fb7YIoEajYdu3b2dRUVHM1tbWJM9GjRplcTFMY16vXbuWjRo1ijk6OjKhUMjXc7a2tmzo0KHsp59+Mjv2jTfeYO7u7ux///sf279/Pxs2bBiTyWQmafviiy+y8vJy+oElhNAigIQQcr9xcnJCTEwMzp8/jz179kChUGDevHkICwuDo6OjSW+aSCTCwIEDTY6XSCQIDQ1FW1sbMjMzIZFI0Lt3b9jY2PA9elVVVViyZAni4+Ph4uKC8ePHw9fXFzqdDpcuXUJqairi4uJQU1ODHTt2wM3Nje9ZrK6uRm1tLd577z0kJiYiICAAM2fOhEajwfnz55GVlYVXX30VNjY2mDNnjknv/bvvvotVq1ZBJBJh+PDh6Nu3L+rr65GQkIAXX3yx0zQ5ePAgFi9ejOrqavTp0wfjx4+Hvb09GhsbkZqaioKCAnz44YcQiUT4xz/+YdIDXVNTg5SUFCQkJKC8vBzOzs5obm6Go6MjrK2tUVtbixdffBH79++Hra0tJkyYAH9/f5SUlODYsWNIS0tDU1PTPR/e3KNHD/Tt2xcVFRXIyMiAUqmEQqEAcG3o8QsvvIBff/0VdnZ2iI2NRa9evdDY2IjTp09jw4YNSE9Px9q1a/nyMGTIEHR0dCAhIQFpaWmIjY01+86zZ8/i1KlTsLe3x6BBgwAA7e3tqKyshK2tLT/HGQDKysqwcOFCJCQkwM3NDRMnToS3tze0Wi1ycnJw4cIFbN26FVevXsXPP/8MJycn2NvbIzw8HBcvXkRHRwf//15eXnxvZENDA+rq6lBfX29ybkVFRVi8eDGOHz8OW1tbxMTE8NecmJiIuLg4pKam4rvvvjMZLaFUKlFRUYHU1FQsWrQIeXl5iIyMhK+vL6qqqnDhwgUcOnQIFRUV2LVrF78lnVarxccff4xvvvkGTk5OmDp1Knx9faFWq3H27FmkpKTg4sWLEIlE/PSbzlhZWaFPnz6wtrbG+fPnodFoEBAQAFdXV/To0QNisRgqlQqVlZWQSCR46623kJ2dDScnJ7S1tcHa2hr29vZQq9X4+OOP8fXXX0Or1SIiIgKRkZEAgAsXLuDcuXPIyMhAUVER3n77bX4UiPE+ra6uxnvvvYfk5GT06tULI0aMQENDA86ePYuDBw+CMYagoCCsXr0aISEhGDZsGGpra3Hu3DnEx8eDMYbt27ffdCSAg4MDwsPDkZmZCaVSCUdHR4SFhfGjPK537Ngx7N69GxKJBGPGjIGdnR1yc3ORnZ3NX+dXX31l0lt99uxZLF68GFlZWfDy8sJjjz0Gd3d3lJaW4vTp0/jkk0+Qk5ODVatWwdPT81Y7s+Dk5IRx48YhISEBR44cweLFi81Gl5SVleHkyZMICAjAqFGjcPDgwU5HkHz77bf44IMP0NHRgYiICAwaNAgikQhpaWk4c+YMMjMzUVVVheXLl/MjFwwGA7766it89NFHYIxh0KBBCAsLg5WVFSoqKpCSkoKzZ8+isLAQzs7OJmW+sbERtbW1iIuLQ15eHvR6PWJiYmBra4tLly4hNzcXq1atgkqlwqpVq7o12ooQQmgEACGE/I6Kior4HikAzN7eng0ZMoQtWbKErV69mqWmprKmpiaL26ZxHMf0ej3bvn07E4vFfA+0RqNher2eMcbYv/71LwaAeXl5sf379/O9mhzHsZaWFvb5558zqVTKpFKpyaiB0tJSFhwczPfcv/baa6y8vJxptVqmVqtZYmIi69u3LwPAJk6cyDo6Ovhj4+LimEKhYFZWVuyjjz5izc3NjDHGtFotO378OOvTpw9/vdePAGhoaGBRUVEMAJsyZQorKSnhe9z0ej27fPkymzhxIgPABgwYYLLl4Zo1a/geNH9/f7Zu3TqWlZXFfv31V5adnc0YY+zjjz9mAJirqyvbtGkT35uqVCrZ5s2bmbu7O9/beC9HADB2bUs8AKxPnz6sqqqKMXZtC7UVK1YwAMzf35/t3LmTP0e9Xs8yMjLYmDFjGAA2adIk1tTUxBhjrLW1lY0dO7bTEQUGg4H/vscee4zflm79+vUMAOvdu7dJr+p7773Hn0N8fDzfC8lxHGtubmYfffQRE4vFTC6Xs0OHDvHfoVKp2JIlS/jvaW1tZWq1mi+7zzzzDAPA5s2bx/9NrVazBQsWMADMz8+PxcXF8WVJp9Ox8+fP8/dHREQEKyoqMilnxt57Hx8ftmXLFtbS0sJ0Oh1rbW1l3333HbOxsWEA2H/+8x/+uPT0dObm5sZsbW1Nemg5jmPl5eVs+vTpDADfg98VjuOYVqtlFy9eZD4+PkwikbBdu3bx9wljjB04cIDvAXdxcWH/+c9/WGZmJouPj2fnzp1jjDG2ZcsWplAomFQqZa+//jqrqalhHMcxjuNYdXU1e/XVV5lEImHW1tZs69at/PeXl5ez0NBQBoBJpVL22muvsaqqKqbT6Vh7ezv78MMPmUgkYiKRiFlbW7O3336b1dbW8mn0z3/+k4nFYmZjY8NOnDhx03Kr1+uZUqnk82z27NlMqVTy+azT6fgRAABYbGwsS01NZSqViun1elZZWcmeeuopvk7KyckxGZURGxvLALARI0aws2fPMp1Ox5eTAwcOsKCgIAaAvfHGG93eks84AsDa2polJyezM2fOMAcHB+bm5mY28omxa9tjCgQCNn/+fNbe3s6mTp1qcQRAfHw8c3Z2ZmKxmL3yyiusurqaL9fGESZWVlbM1dWVHT9+nD/u/PnzzMPDgwkEAvbmm2+a1O9arZYlJCSwwMBAfhTF9d+5aNEiPm2jo6PZ2bNnmUqlYjqdjlVUVPD54uLiwpctQgi5HRQAIISQexwEWLp0KfPy8jLZQ1woFDInJyc2fPhw9vbbb7PMzEyLD7179uxhYrGY+fr6sitXrvB/12g07Pnnn2fu7u7s9ddft3hsZWUl34C4fkjs9QGA2NhYvrF5PWNwITg4mJ+WoFar2cyZMxkANmPGDNbW1mZ23NatW/kG0fUBgIsXL7JBgwaxnj17st9++81iWm3ZsoUJhULm7e3NLl26ZDEA8Pnnn5sdV1VVxSIiIjptPHAcx95///3fLQDw2muvMQAsICCAXb58mTHGWEZGBj/s+bvvvrN4XEpKCnNzc2MymYz98ssv/N//+9//MgAsPDycVVZWmhxTUlLCgoKCmEgkYj/99BP/d0sBAKVSyebPn8/c3d3Ze++9Z/Ecrly5wnr27MkAsB9++MHktWXLljEAbNasWWbDly0FAFJSUpiTk1OX13zu3Dnm7e3NAJjk7fUBgE8++cTsuLa2NjZu3DgGgC1YsIDP8/379zOpVMr8/PxMAgpGp06dYnPmzGH//Oc/LZZ7SwoKCpivry+TSCRs//79Jq9dHwBYsWKFWdlrbW3lG74zZsywGHRoaWnhAxOxsbGspaXFLAAwevRosykgeXl5/HST2NhYPhhnVFxczHr06MEAsPXr13e7zC9cuJABYHPnzjX5u1ar5QMAXl5eLDU11ezYpKQk5uDgwKysrNi+fftM6gWJRMJcXFzYyZMnLX7vmjVrmEgkYv7+/t2+164PACQmJrL29vZOpwFotVo2d+5cJhQK2fbt25lOp7MYAFCr1fx1Xh+Mu7H8XT99wBjM+Pnnn1lAQAAbNWpUp0P1ly9fzgCwcePGmUwNMwYAnJ2d2alTp8yOS0tLY66urgwA27JlC/24EkJum5DGQBBCyL3Ts2dPfPXVVzh8+DBWrlyJ2bNno3fv3lAoFGhsbERKSgo+/vhjTJ06FT/88AO0Wm23PlcikeDTTz9FYmIiXn31VbOF84x71BuHiXb2uaNHj7Y4NDg4OBgCgQAqlQoajYYfwp6eng4AmDJlCmxsbMyOGzNmDIKDg83+HhISgv379+PQoUMYOXKk2et6vR4CgQAikQh6vZ5fdO3GIcqjR482+/ulS5dQWFgIOzs7TJ482SwtBAIBpk2bBldX199l6zbj9wsEAn7KQUpKCqqqquDv79/pavkREREYMGAA1Go1Tp8+zf993Lhx8PPzQ15eHlJSUkyOOXXqFC5fvoyQkBCLaXM9mUyGL7/8EqdPn8ayZcvMXu9umemu5ORkNDY2olevXpgyZYrF9wwYMAAxMTEAgBMnTvD7shuHddvb2yM6OtrsOBsbGwQEBAC4tlidcWtGd3d32NraoqKiAh988AF/DsZ8HzlyJDZt2oS33nqr24vjdWf4uVQqxZgxY8zKXklJCbKysiASifDEE09Y3BXCzs4Os2bNgkgk4qcC3CgqKgpOTk4mf3N2doa9vT0AYMSIEfx/G9na2vIL1SmVyrtaxvv3729xlwl/f384OjpCq9XyiwlyHIfjx49Dp9NhyJAhGDx4sMXPjImJga+vL8rLy3HhwoXbygdra2uMGzcOAHDkyBGT675y5QpOnz6NwMBAjBgxotO6oLKyEmfOnAEAzJgxw2I5sbGx4e/jM2fOoK6uDgAwdepUnDx5Eps2bYKXl5fZcUqlkp9OodVq+XJ7Y13Zr18/s797eHjw07ja29vpx5UQcttoDQBCCLnHJBIJwsPDER4ejsWLF6O+vh75+fk4d+4cjh8/jpSUFJSVleGNN96AQqHo1jaAAoEAjo6OcHR0hEqlQn5+PsrLy1FVVYXS0lLk5eXh4sWLyMvL4x+OLfH29rb4dysrKwgEAnAcxz+kVlVV4erVq7CxseHnXN/I0dERQUFByMzMNEsDDw8PuLu7o6GhATk5OaioqEBlZSWKi4uRm5uLzMxMvuFv6XwdHBwsrjBfXFwMpVKJnj17ws/Pz+J5+fn5wdPTEw0NDfc8v9va2gAAcrmcn4Ocn5/PNwD+85//QCaTmV0jYwwVFRUArs2d12g0sLKyQlBQEGJiYrBx40YcOHAAM2bMgEgkgkajwf79+8EYw/jx4+Hj43PTMuPk5AQnJycolUrk5eXxZebKlSvIz89HVlYWCgoKuiwz3WXc0aJnz558w8XsIUQs5ndpqKioQHNzM5/HjDHY2dlZXCHfWEaNDUzjuYaFhWHGjBlYt24dNm3ahH379iE4OBhDhgzBQw89hMGDB8PX1/eu57mNjY3Fe6m8vBxNTU1wcHBAaGhop8eHhITA0dERra2tKC8vx4ABA0xet5S3QqGQDzi4urpazG/j3PS7Hfjy9PS0uBq9SCSCRCIBY4xfe0KtVvNlqry8HO+8847Fc1Wr1VAqleA4zmIQpLvGjh2LL7/8kl9XpH///gCA06dPo6ysDEuWLOHXvbCkvLwcDQ0NEAqFOHz4MAoLC80a6kKhEJcvX4ZQKER9fT1qamrg5eUFhUIBPz8/GAwGVFVVoaysDFVVVfwOGMZ6rqs8cXNzg7W1tcV7xRg8sBQ4IIQQCgAQQsh9Ggzw9PSEp6cnoqOjsWzZMhw+fBivv/46ioqK8P3332Py5MkWt4m6kU6nw8GDB7F69WqkpaWhsbGR762XyWTw8fGBXC632Jt+YyPK0gP5jVpbW6HX62FjY2PxAdV4fZ1tj1VXV4e1a9di586dKC4uRltbGwwGAx/McHJy6nKRPoVCYbHR0drayl+LccG9G0mlUrMe0ntBrVajvLwcAODi4gJbW1swxvjtDmtqavDtt9922Ug3XpOxASUWizF9+nRs27YNJ0+exJUrV9CrVy8UFBQgKSkJtra2mDp1arcWONRqtdi3bx/Wrl2LjIwMNDY28g0huVwOb29vyOVyPohxuwwGA/8ZDg4OZtsQ3hg0AmAy2uT6BuWtbHsml8vxz3/+E25uboiLi0NpaSnOnTuHc+fO4YcffoCvry8mTJiA5cuXd9kgvxXGEQCWyp4xHxUKRaf3DHCtt14mk6GxsdFi2t9swbfb3T7vTuqx7i6oqdFo+Gu6ePEiLl682K3yf7v69OmDyMhIHDt2DAkJCejfvz+0Wi0OHToEiUSCiRMndnnura2tfO/87t27u3VPdXR08P+fm5uL7777DkePHkVVVRWUSiUYYxCJRPwIFeOWmp3VyZ2d371exJQQQgEAQgght4HjOOzatQvHjh1DaGgoli1b1um+2AqFAo888gjKy8vx0ksvoaCgAFeuXOlWAGDDhg14/fXX0dzcDF9fX8TGxiIoKAhBQUHo3bs33N3d8cwzz+D8+fM3feC21Kix1IgWCoUwGAxdBhUs9U41NTVhxYoV2L59O7+jQZ8+fRAUFITg4GCEh4cjPz8fTz31VJfnaul8jY1LjuOg1+tv6bzuturqaly6dAnAtd5oY6PPeI4DBgzAihUr+F5SS9fIGIObm5tJw3fEiBEICwtDWloaTp48iV69euHo0aOorq5GdHS02S4SneXpjz/+iLfeegvt7e3w8/PD+PHj+Tzo3bs3nJycMHfu3C4bad0hEAj4a9bpdF2mvbHRLxKJzBqyt9PgcXd3x0cffYRFixbh7NmzSExM5PeGLykpwapVq5CRkYHNmzejR48edy3vbxz+f31D2WAwdFk2dTodHwyzVFf8mRt+149UmDlzJp544gmTnSluvE6O49C7d+/b/j5bW1uMHz8ex44dw5EjR/DCCy+guLgYycnJCA0NxZAhQ256vgKBANbW1vj73/+OXr16WSy/xjwRiUT8tKfs7GzMmzcP6enpsLOzw4ABAxASEmJSz61duxb/+te/brlOJoQQCgAQQsh9/MCbmJiIH3/8EWFhYZg1a5bF+aDXCw0NhVQqhVarNesFtaS0tBRfffUVmpubMXXqVPzrX/9CYGCgSaPx6tWr/JzquzEE2NXVFdbW1mhubkZtbW2njTlLr+3btw+7du2CTCbDBx98gPnz58PZ2dmk0WQcanur5+rt7Q2xWIzm5mbU19db3EKso6MDjY2N9/zh+siRIygpKYFUKsXo0aP573N3d+cbhNOmTet0lISxEXhjY9Ld3R2TJk1CWloa4uPjMWPGDBw6dAjAtXnH3RndcPnyZXz99ddoa2vDY489ho8//hg9evQwKTNVVVV8+buTMiMUCvlrrqyshEql6rQnv7S0FMC1kQKW1pW4Vcbe2x49eqBHjx6YNWsWmpubkZ+fj82bN2Pt2rVITk7G/v378be//e2elgdXV1fIZDK0tLSgrq4Offr0sfi+mpoatLa2wsrKyuJw/j8zKysrPqDp7OyMWbNmWbwPGWPQ6/UQi8V3fJ/GxMTAxcWFD/ycOXMGVVVVmDVrlsVpRNdzcXGBTCaDSqVCZGQkJk2aZPF9xrrKGLTiOA6rVq1Ceno6/Pz8sHLlSsTExMDGxsbkeq6f5vR7rElCCCFmv9GUBIQQcvcNGzYMEokE+fn52LNnz03fn56eDq1WCxcXF77hBPz/vUE3PigWFBSguLgYVlZWeOGFF9CnTx+zBtaVK1dQU1PDP5zeKV9fXwQFBUGv1+PUqVMWH14rKiqQm5tr9mB/9uxZ6HQ6hIeH49lnn4Wrq6tZIzcrKwt6vR6MsVs63z59+sDDwwN1dXX84l03ys7ORkVFxT0NAGRnZ+O7776DwWBAZGSkyeJ1EREREIvFyMvL4xdSvFFraytWrFiBRx99FJs3bzZ7fcqUKXB0dMT58+dx4MABpKWlwcvLC+PHj+/W+V26dAmlpaVQKBR48cUXERISYlZmiouL+QXN7rTMDBgwAGKxGAUFBcjOzrb4noaGBiQnJ/P5aGdnd0ffGRcXh8cffxwfffQR39AyTjEZNmwYPvjgA5M1B+61nj17wtfXFx0dHTh58mSn7zt58iQ6Ojrg6el5V0cl3I67fY/IZDJ+TYPk5GR+ioylANXcuXPx1FNPITEx8Y6+s3fv3hg4cCCuXr2KQ4cOIT4+HlZWVpgwYcJNjw0ICICfnx80Gg2OHj3a6X2wdetWTJs2Da+//joaGxvR0tLCj7aaPHkypk6dCltbW5P07OjoQE5Ozl2rkwkhhAIAhBBynxg7diyGDBkCnU6Hjz/+GKtWrUJDQ4NZo1mpVGLXrl34/vvvAVxb8d24ujlwbei4SCQym2dqfFDnOM7iitDNzc347rvvUF9fD+DOV3QHACcnJ0yfPp1vaJ06dcrkdY1GgzVr1qCkpMTsPI0PwWq12uIIh9TUVPz8888AcNPh0jcKDAxEbGwsP8S9sLDQ5PXGxkb88MMPaGtru6PGjV6v56cZGHcqUKvVqK2txc6dO/Hss8/i4sWLsLe3x8svv2yy8N2oUaPQr18/tLa24quvvkJ1dbVZkGTHjh1Yt24dfv31V4tTLMLDwzFixAiUlZXhq6++QmNjI6KjoxESEtLthl1XZaahoQHfffcdPz/5xjJjHJre1tbW5RSQ6685LCwMjY2N+O9//8uXxevTc/369UhNTYVCocDUqVMtDqO/FfX19di3bx82btxocSX5pqYmfnX6zhbAvJu8vb35RuemTZvMdnEwNop/+ukn/v6/F4sU3gpjPre3t3crn7vDuK7JpUuX8O2330KlUpm8rlar8d1332HHjh04duzYLa37YIm1tTUefvhhANemSiUkJCA8PByRkZE3Pdbd3Z3fteLnn3/GkSNHzN6Tl5eHL7/8EgcPHkRBQQG/2Kexfuno6DCb5sAYw86dO5GUlATg5lNjCCHkXqEpAIQQcg+4ubnhvffew6JFi1BaWopXXnkFmzZtwogRIxAQEAChUIja2lqcP38eKSkpaGlpwYABA/DSSy+ZLJjm6OgImUyG+vp6vPPOOxg8eDAmTJjAz5+/ePEiPv/8c8jlcvTp0wccx6GgoACrV6/GkSNHoFAooFQqu1x06lY89dRTOHToEE6ePInnn38er7zyCoYMGYL29nZs374dmzZtgpWVlcl2bsC1Oexr1qxBTk4OPvzwQyxevBjOzs5oa2vDqVOnsHLlSlRUVEAikUCtVpsFO27WYFm+fDk/1/vZZ5/F3/72N4SEhKCmpgarV6/GgQMHIJVKb3vIbWNjI9544w3Y2dnxn8FxHL9qe3FxMVQqFezt7fHOO+/gkUceMTney8sLr7zyCpYuXYoDBw7gmWeeweLFixEcHAy1Wo0jR47wDaPp06djxowZZuegUCgwffp0HD58GOnp6ZBKpZg+fXqn60vcqE+fPujZsyfy8/Px6aefQiKRICQkBHq9Hnl5efjhhx9w4sSJTsuMcRh3SkoK3nrrLfTq1QuzZ8/udMi6t7c3XnnlFSxbtgy7du2CWq3GwoULERAQgJaWFuzZswdr166FTqfDM888wzfY7rShuXbtWqSlpeHFF1/EihUr0K9fP4jFYpSWlmLVqlUoKChAaGhot3qD75RQKMSSJUtw8uRJpKen47nnnsPy5csxdOhQAMDZs2fxzTffoKSkBOHh4Vi2bNnvvqDfjYz5mZSUhDfeeAM9e/bEnDlz7mgRzaFDh2LRokX4/PPPsXLlSly9ehVz5syBh4cHGhsbsW3bNmzatAkikQgLFy7sVkP9ZqKjo+Hu7s6vyfH88893a20VAFi4cCGOHz+OM2fOYMmSJVi6dClGjx4NmUyGS5cuYeXKlcjIyICXlxdeeuklyOVyWFlZYejQoTh37hz279+P//73v5g8eTJkMhnq6uqwd+9erF69mq8/2tvb70pglhBCbhkjhBByT3Acx44fP87GjBnDZDIZA2Dxn1wuZ1OnTmVpaWlmn9HQ0MAmTpxo8v4PPviAMcbY1q1bmaenJ/8Zvr6+zNvbm1lZWTEPDw/2ySefsBdeeIEBYGPHjmVtbW2MMcZKS0tZUFAQA8C2bt1q8dwPHDjAhEIh8/b2Znl5eSavZWRksDFjxjCRSMSEQiFzcHBgCoWCCYVCNnPmTDZ58mQGgL3//vv8MS0tLWzx4sVMKpUyAMzR0ZEFBAQwFxcXJpFI2LBhw9iGDRtYeHg4A8C++eYb/tg1a9YwACwsLIxVV1d3mt6HDh1iYWFhTCAQMIlEwhwdHZmVlRWTyWRs0aJFrH///kwkErG4uLhu5+GXX37Zab4Z/wkEAubo6MjGjRvHdu/ezbRarcXP0mq17Mcff2QBAQEMABOLxczJyYnZ2toyAEwqlbIZM2awwsLCTs/n8uXLLDAwkAFg/fr1Y1VVVRbft27dOgaAhYaGmrxn/fr1zM3NjQFgCoWC+fn5MS8vL2ZlZcW8vb3Z559/zp599lkGgE2ePJkplUr+2OTkZObn58dft62tLTt16hRjjLF58+YxAOzpp59mHMfxx2g0Gvb999/zx0kkEubk5MQUCgUDwOzs7NjSpUtZbW2tyflv376diUQi1qNHD1ZSUmLxGpcuXcoAsJkzZ5qk+dGjR/lyYCyfzs7OTCKRMIFAwPr06cN+/fXXbpeBgoIC5uvryyQSCdu/f7/ZfWK83268T66XkpLCoqKimEgkYgKBgNnb2zN7e3smEAiYWCxmo0ePZsnJySbHlJeXs9DQUAaAbdq0yewz6+vrWVhYGAPAvvvuO4uvDxo0iAFg3377bbev99SpU8zb25vPZ3t7e3bmzBlmMBjYrFmzGAC2ZMkSk3w2qq6u5uuW9evXm7zW1NTE3njjDebk5MQAMCsrK+bs7MzkcjlfFl5++WXW2NjY7XP97bffmFwuZ9bW1uz06dMmr3V0dPB1kZ2dHUtISDB5Xa1WsylTpjAAbP78+Uyv15u8npaWxmJjY/lyY2try5ycnJhYLGYAWHBwMIuLizNJh/z8fBYVFcUEAgETiUTM3d2d+fv7Mzs7OyaXy9msWbPY//73P2ZnZ8ccHR1ZUlISf+zChQsZADZr1iyzc2GMsdraWta/f38GgK1atYp+YAkht41GABBCyD0iEAgQExODiIgInD59GklJSSgsLERjYyP0ej0cHBwQHByMsWPH4qGHHrLYw+bk5IRvv/0WW7ZsQV5eHoRCIfr27QsAmDVrFvz9/bFz507k5uZCqVTC2dkZAwcOxOTJk9G/f39kZmbC0dER9vb2UKvVsLGxgZ2dHV544QXU19fzn3WjwMBAvPnmm7C1tTXbhz0iIgJbt27F7t27cfz4cdTV1cHZ2Rljx47F448/jqSkJPTt2xcPPfQQf4ydnR3+/e9/46GHHkJ8fDw/H9/f3x9RUVGYOHEiXF1dIZFIkJmZCU9PT3AcB6FQiIiICPz973+Hp6dnl4vETZgwAYGBgdixYweSk5PR1tYGLy8vTJ06FQ8//DB27tyJsrKyW1phfOjQoXjrrbcsviYSiWBtbQ1PT0/07t0boaGhsLW17XKkwnPPPYfhw4dj//79uHDhAurr6yEWi9GjRw+MHTsWEyZMgIODQ6ef4e/vj3fffRfZ2dkYNGhQpwuaRURE4M0334Sbm5tJmj399NPo2bMndu/ejUuXLkGtVsPFxQWDBg3C5MmTER4ejgsXLsDd3R3Ozs5Qq9X88OahQ4di06ZN2L17N+rq6mBvbw8nJycAwLRp0+Dh4YHBgwebnIdUKsWiRYswfPhw7Nu3D2lpaWhoaIBcLkffvn0xadIkjBw50mybuz59+uDNN9+Evb19pz3PDz/8MKytrREREWEydSA2NhZ79uzBvn37kJqaipqaGhgMBnh4eGDYsGGYNm0aevXq1e0y4OTkhGXLlqG9vR2BgYFm98kbb7wBuVxudp9cb9iwYYiLi8OBAwdw8uRJVFRUgOM4+Pv7IyYmBhMnTjSZMmK8Z55//nlcvXqVX7fgenK5HIsWLUJNTY3FXSDkcjmeffZZxMbGdmuXCKORI0di06ZN+OWXX/h7297eHkKhEDNnzoS/vz9GjBhhcTqNjY0NX7f069fP5DUHBwd8+OGHmDRpEg4ePIicnBy0tLTA2toaoaGhmDx5MkaNGnXTLQ+vFxAQgNdffx0CgcBs6oRCocCKFSsQFhYGDw8Ps1EFIpEITzzxBPr06YMhQ4aYTT8ZMGAAtm3bhsOHDyMhIQGlpaXQarVwc3PD4MGDMX36dAQHB5ukQ3BwMDZv3oy4uDgkJSWhvr4ecrkcISEhGD9+PGJiYqDX66FUKvl7//rRK05OToiMjLSYttbW1njuuedQWVl5S/lJCCFmz6eMliAlhJDfBWMMOp0OOp0OjDGIxeIu93y+kV6vh0AgMBsizHEctFotDAYDJBLJHc+fvRVarZZfubu736vX66HVaiEQCCCVSu/6kGfGmEl6dHeI/O/NmHb3Kh26wnEcNBoNXw5vpcwwxmAwGEy2d7uVa9bpdBCJRLdU9m/X9febVCq9L8qCsfwbAyTXNwLvt/rqdvO5u/eoXq//3crCnTAYDNBqtWCMdbtOub6sG7dQJYQQCgAQQgghhBBCCCHkd0HhSEIIIYQQQgghhAIAhBBCCCGEEEIIoQAAIYQQQgghhBBCKABACCGEEEIIIYQQCgAQQgghhBBCCCGEAgCEEEIIIYQQQgihAAAhhBBCCCGEEEIoAEAIIYQQQgghhBAKABBCCCGEEEIIIRQAIIQQQgghhBBCCAUACCGEEEIIIYQQQgEAQgghhBBCCCGEUACAEEIIIYQQQgghFAAghBBCCCGEEEIIBQAIIYQQQgghhBBCAQBCCCGEEEIIIYRY8v8Bm2vpsjGc/d8AAAAldEVYdGRhdGU6Y3JlYXRlADIwMjItMDgtMDZUMDA6Mzg6MjErMDA6MDAWm/EvAAAAJXRFWHRkYXRlOm1vZGlmeQAyMDIyLTA4LTA2VDAwOjM4OjIxKzAwOjAwZ8ZJkwAAAD10RVh0aWNjOmNvcHlyaWdodABDb3B5cmlnaHQgMjAwNyBBcHBsZSBJbmMuLCBhbGwgcmlnaHRzIHJlc2VydmVkLp5m3CkAAAAjdEVYdGljYzpkZXNjcmlwdGlvbgBHZW5lcmljIFJHQiBQcm9maWxlGqc4jgAAACR0RVh0aWNjOm1hbnVmYWN0dXJlcgBHZW5lcmljIFJHQiBQcm9maWxlHD1oPgAAAB10RVh0aWNjOm1vZGVsAEdlbmVyaWMgUkdCIFByb2ZpbGXqb66rAAAAAElFTkSuQmCC;" vertex="1" parent="8Nt1t6jGfpRGjF9K0AyX-32">
          <mxGeometry x="425.72957142857143" y="281.4814814814814" width="570.608949056336" height="352.74698453242513" as="geometry" />
        </mxCell>
      </root>
    </mxGraphModel>
  </diagram>
</mxfile>
